ISO-10303-21;
HEADER;
FILE_DESCRIPTION(('CATIA V5 STEP Exchange'),'2;1');

FILE_NAME('C:\\Users\\jawel\\OneDrive\\Desktop\\MicroMouseSTP\\BaseSuperior.stp','2026-09-29T02:24:43+00:00',('none'),('none'),'CATIA Version 5 Release 21 GA (IN-10)','CATIA V5 STEP AP203','none');

FILE_SCHEMA(('CONFIG_CONTROL_DESIGN'));

ENDSEC;
/* file written by CATIA V5R21 */
DATA;
#5=PRODUCT('BaseSuperior','','',(#2)) ;
#1=APPLICATION_CONTEXT('configuration controlled 3D design of mechanical parts and assemblies') ;
#14=PRODUCT_DEFINITION('',' ',#6,#3) ;
#16=SECURITY_CLASSIFICATION(' ',' ',#15) ;
#15=SECURITY_CLASSIFICATION_LEVEL('unclassified') ;
#47=CARTESIAN_POINT(' ',(0.,0.,0.)) ;
#52=CARTESIAN_POINT('Axis2P3D Location',(20.7692370951,31.75,5.)) ;
#57=CARTESIAN_POINT('Line Origine',(29.5384659666,69.725,13.75)) ;
#61=CARTESIAN_POINT('Vertex',(29.5384659666,69.725,5.)) ;
#63=CARTESIAN_POINT('Vertex',(29.5384659666,69.725,22.5)) ;
#66=CARTESIAN_POINT('Line Origine',(25.1538515309,50.7375,5.)) ;
#70=CARTESIAN_POINT('Vertex',(20.7692370951,31.75,5.)) ;
#73=CARTESIAN_POINT('Line Origine',(20.7692370951,31.75,13.75)) ;
#77=CARTESIAN_POINT('Vertex',(20.7692370951,31.75,22.5)) ;
#80=CARTESIAN_POINT('Line Origine',(25.1538515309,50.7375,22.5)) ;
#92=CARTESIAN_POINT('Axis2P3D Location',(0.,0.,22.5)) ;
#97=CARTESIAN_POINT('Axis2P3D Location',(50.,25.,22.5)) ;
#101=CARTESIAN_POINT('Vertex',(79.2307629049,31.75,22.5)) ;
#104=CARTESIAN_POINT('Line Origine',(74.8461484691,50.7375,22.5)) ;
#108=CARTESIAN_POINT('Vertex',(70.4615340334,69.725,22.5)) ;
#111=CARTESIAN_POINT('Axis2P3D Location',(50.,65.,22.5)) ;
#122=CARTESIAN_POINT('Axis2P3D Location',(50.,25.,22.5)) ;
#126=CARTESIAN_POINT('Vertex',(23.6923133856,31.075,22.5)) ;
#128=CARTESIAN_POINT('Vertex',(76.3076866144,31.075,22.5)) ;
#131=CARTESIAN_POINT('Line Origine',(28.0769278214,50.0625,22.5)) ;
#135=CARTESIAN_POINT('Vertex',(32.4615422571,69.05,22.5)) ;
#138=CARTESIAN_POINT('Axis2P3D Location',(50.,65.,22.5)) ;
#142=CARTESIAN_POINT('Vertex',(67.5384577429,69.05,22.5)) ;
#145=CARTESIAN_POINT('Line Origine',(71.9230721786,50.0625,22.5)) ;
#157=CARTESIAN_POINT('Axis2P3D Location',(50.,25.,13.75)) ;
#162=CARTESIAN_POINT('Axis2P3D Location',(50.,25.,5.)) ;
#166=CARTESIAN_POINT('Vertex',(79.2307629049,31.75,5.)) ;
#169=CARTESIAN_POINT('Line Origine',(79.2307629049,31.75,13.75)) ;
#181=CARTESIAN_POINT('Axis2P3D Location',(50.,65.,13.75)) ;
#186=CARTESIAN_POINT('Line Origine',(70.4615340334,69.725,13.75)) ;
#190=CARTESIAN_POINT('Vertex',(70.4615340334,69.725,5.)) ;
#193=CARTESIAN_POINT('Axis2P3D Location',(50.,65.,5.)) ;
#205=CARTESIAN_POINT('Axis2P3D Location',(70.4615340334,69.725,5.)) ;
#210=CARTESIAN_POINT('Line Origine',(74.8461484691,50.7375,5.)) ;
#222=CARTESIAN_POINT('Axis2P3D Location',(50.,25.,13.75)) ;
#227=CARTESIAN_POINT('Line Origine',(76.3076866144,31.075,13.75)) ;
#231=CARTESIAN_POINT('Vertex',(76.3076866144,31.075,5.)) ;
#234=CARTESIAN_POINT('Axis2P3D Location',(50.,25.,5.)) ;
#238=CARTESIAN_POINT('Vertex',(23.6923133856,31.075,5.)) ;
#241=CARTESIAN_POINT('Line Origine',(23.6923133856,31.075,13.75)) ;
#253=CARTESIAN_POINT('Axis2P3D Location',(23.6923133856,31.075,5.)) ;
#258=CARTESIAN_POINT('Line Origine',(28.0769278214,50.0625,5.)) ;
#262=CARTESIAN_POINT('Vertex',(32.4615422571,69.05,5.)) ;
#265=CARTESIAN_POINT('Line Origine',(32.4615422571,69.05,13.75)) ;
#277=CARTESIAN_POINT('Axis2P3D Location',(50.,65.,13.75)) ;
#282=CARTESIAN_POINT('Axis2P3D Location',(50.,65.,5.)) ;
#286=CARTESIAN_POINT('Vertex',(67.5384577429,69.05,5.)) ;
#289=CARTESIAN_POINT('Line Origine',(67.5384577429,69.05,13.75)) ;
#301=CARTESIAN_POINT('Axis2P3D Location',(67.5384577429,69.05,5.)) ;
#306=CARTESIAN_POINT('Line Origine',(71.9230721786,50.0625,5.)) ;
#318=CARTESIAN_POINT('Axis2P3D Location',(0.,0.,5.)) ;
#330=CARTESIAN_POINT('Axis2P3D Location',(50.,120.,5.)) ;
#334=CARTESIAN_POINT('Vertex',(-5.68434188608E-014,2.84217094304E-014,5.)) ;
#336=CARTESIAN_POINT('Vertex',(100.,1.42108547152E-014,5.)) ;
#339=CARTESIAN_POINT('Line Origine',(100.,30.,5.)) ;
#343=CARTESIAN_POINT('Vertex',(100.,60.,5.)) ;
#346=CARTESIAN_POINT('Axis2P3D Location',(50.,60.,5.)) ;
#350=CARTESIAN_POINT('Vertex',(-7.1054273576E-015,60.,5.)) ;
#353=CARTESIAN_POINT('Line Origine',(0.,30.,5.)) ;
#371=CARTESIAN_POINT('Axis2P3D Location',(0.,0.,2.5)) ;
#376=CARTESIAN_POINT('Axis2P3D Location',(94.,5.,2.5)) ;
#380=CARTESIAN_POINT('Vertex',(98.,5.,2.5)) ;
#382=CARTESIAN_POINT('Vertex',(90.,5.,2.5)) ;
#385=CARTESIAN_POINT('Axis2P3D Location',(94.,5.,2.5)) ;
#395=CARTESIAN_POINT('Axis2P3D Location',(94.,5.,1.25)) ;
#400=CARTESIAN_POINT('Line Origine',(90.,5.,1.25)) ;
#404=CARTESIAN_POINT('Vertex',(90.,5.,0.)) ;
#407=CARTESIAN_POINT('Axis2P3D Location',(94.,5.,0.)) ;
#411=CARTESIAN_POINT('Vertex',(98.,5.,0.)) ;
#414=CARTESIAN_POINT('Line Origine',(98.,5.,1.25)) ;
#426=CARTESIAN_POINT('Axis2P3D Location',(94.,5.,0.)) ;
#438=CARTESIAN_POINT('Axis2P3D Location',(11.,72.5,2.5)) ;
#442=CARTESIAN_POINT('Vertex',(15.,72.5,2.5)) ;
#444=CARTESIAN_POINT('Vertex',(7.,72.5,2.5)) ;
#447=CARTESIAN_POINT('Axis2P3D Location',(11.,72.5,2.5)) ;
#457=CARTESIAN_POINT('Axis2P3D Location',(11.,72.5,1.25)) ;
#462=CARTESIAN_POINT('Line Origine',(7.,72.5,1.25)) ;
#466=CARTESIAN_POINT('Vertex',(7.,72.5,0.)) ;
#469=CARTESIAN_POINT('Axis2P3D Location',(11.,72.5,0.)) ;
#473=CARTESIAN_POINT('Vertex',(15.,72.5,0.)) ;
#476=CARTESIAN_POINT('Line Origine',(15.,72.5,1.25)) ;
#488=CARTESIAN_POINT('Axis2P3D Location',(11.,72.5,0.)) ;
#500=CARTESIAN_POINT('Axis2P3D Location',(6.,5.,2.5)) ;
#504=CARTESIAN_POINT('Vertex',(10.,5.,2.5)) ;
#506=CARTESIAN_POINT('Vertex',(2.,5.,2.5)) ;
#509=CARTESIAN_POINT('Axis2P3D Location',(6.,5.,2.5)) ;
#519=CARTESIAN_POINT('Axis2P3D Location',(6.,5.,1.25)) ;
#524=CARTESIAN_POINT('Line Origine',(2.,5.,1.25)) ;
#528=CARTESIAN_POINT('Vertex',(2.,5.,0.)) ;
#531=CARTESIAN_POINT('Axis2P3D Location',(6.,5.,0.)) ;
#535=CARTESIAN_POINT('Vertex',(10.,5.,0.)) ;
#538=CARTESIAN_POINT('Line Origine',(10.,5.,1.25)) ;
#550=CARTESIAN_POINT('Axis2P3D Location',(6.,5.,0.)) ;
#562=CARTESIAN_POINT('Axis2P3D Location',(89.,72.5,2.5)) ;
#566=CARTESIAN_POINT('Vertex',(93.,72.5,2.5)) ;
#568=CARTESIAN_POINT('Vertex',(85.,72.5,2.5)) ;
#571=CARTESIAN_POINT('Axis2P3D Location',(89.,72.5,2.5)) ;
#581=CARTESIAN_POINT('Axis2P3D Location',(89.,72.5,1.25)) ;
#586=CARTESIAN_POINT('Line Origine',(85.,72.5,1.25)) ;
#590=CARTESIAN_POINT('Vertex',(85.,72.5,0.)) ;
#593=CARTESIAN_POINT('Axis2P3D Location',(89.,72.5,0.)) ;
#597=CARTESIAN_POINT('Vertex',(93.,72.5,0.)) ;
#600=CARTESIAN_POINT('Line Origine',(93.,72.5,1.25)) ;
#612=CARTESIAN_POINT('Axis2P3D Location',(89.,72.5,0.)) ;
#624=CARTESIAN_POINT('Axis2P3D Location',(0.,0.,0.)) ;
#629=CARTESIAN_POINT('Line Origine',(0.,30.,0.)) ;
#633=CARTESIAN_POINT('Vertex',(-7.1054273576E-015,60.,0.)) ;
#635=CARTESIAN_POINT('Vertex',(-5.68434188608E-014,2.84217094304E-014,0.)) ;
#638=CARTESIAN_POINT('Axis2P3D Location',(50.,60.,0.)) ;
#642=CARTESIAN_POINT('Vertex',(100.,60.,0.)) ;
#645=CARTESIAN_POINT('Line Origine',(100.,30.,0.)) ;
#649=CARTESIAN_POINT('Vertex',(100.,1.42108547152E-014,0.)) ;
#652=CARTESIAN_POINT('Axis2P3D Location',(50.,120.,0.)) ;
#680=CARTESIAN_POINT('Axis2P3D Location',(0.,0.,0.)) ;
#685=CARTESIAN_POINT('Line Origine',(0.,60.,2.5)) ;
#690=CARTESIAN_POINT('Line Origine',(0.,0.,2.5)) ;
#702=CARTESIAN_POINT('Axis2P3D Location',(50.,60.,2.5)) ;
#707=CARTESIAN_POINT('Line Origine',(100.,60.,5.)) ;
#719=CARTESIAN_POINT('Axis2P3D Location',(100.,60.,0.)) ;
#724=CARTESIAN_POINT('Line Origine',(100.,-2.84217094304E-014,2.5)) ;
#736=CARTESIAN_POINT('Axis2P3D Location',(50.,120.,2.5)) ;
#53=DIRECTION('Axis2P3D Direction',(0.974358763495,-0.225,0.)) ;
#54=DIRECTION('Axis2P3D XDirection',(0.225,0.974358763495,0.)) ;
#58=DIRECTION('Vector Direction',(0.,0.,1.)) ;
#67=DIRECTION('Vector Direction',(0.225,0.974358763495,0.)) ;
#74=DIRECTION('Vector Direction',(0.,0.,1.)) ;
#81=DIRECTION('Vector Direction',(0.225,0.974358763495,0.)) ;
#93=DIRECTION('Axis2P3D Direction',(0.,0.,1.)) ;
#94=DIRECTION('Axis2P3D XDirection',(1.,0.,0.)) ;
#98=DIRECTION('Axis2P3D Direction',(0.,0.,1.)) ;
#105=DIRECTION('Vector Direction',(0.225,-0.974358763495,0.)) ;
#112=DIRECTION('Axis2P3D Direction',(0.,0.,1.)) ;
#123=DIRECTION('Axis2P3D Direction',(0.,0.,1.)) ;
#132=DIRECTION('Vector Direction',(0.225,0.974358763495,0.)) ;
#139=DIRECTION('Axis2P3D Direction',(0.,0.,1.)) ;
#146=DIRECTION('Vector Direction',(0.225,-0.974358763495,0.)) ;
#158=DIRECTION('Axis2P3D Direction',(0.,0.,1.)) ;
#159=DIRECTION('Axis2P3D XDirection',(-0.974358763495,0.225,0.)) ;
#163=DIRECTION('Axis2P3D Direction',(0.,0.,1.)) ;
#170=DIRECTION('Vector Direction',(0.,0.,1.)) ;
#182=DIRECTION('Axis2P3D Direction',(0.,0.,1.)) ;
#183=DIRECTION('Axis2P3D XDirection',(0.974358763495,0.225,0.)) ;
#187=DIRECTION('Vector Direction',(0.,0.,1.)) ;
#194=DIRECTION('Axis2P3D Direction',(0.,0.,1.)) ;
#206=DIRECTION('Axis2P3D Direction',(-0.974358763495,-0.225,0.)) ;
#207=DIRECTION('Axis2P3D XDirection',(0.225,-0.974358763495,0.)) ;
#211=DIRECTION('Vector Direction',(0.225,-0.974358763495,0.)) ;
#223=DIRECTION('Axis2P3D Direction',(0.,0.,1.)) ;
#224=DIRECTION('Axis2P3D XDirection',(-0.974358763495,0.225,0.)) ;
#228=DIRECTION('Vector Direction',(0.,0.,1.)) ;
#235=DIRECTION('Axis2P3D Direction',(0.,0.,1.)) ;
#242=DIRECTION('Vector Direction',(0.,0.,1.)) ;
#254=DIRECTION('Axis2P3D Direction',(0.974358763495,-0.225,0.)) ;
#255=DIRECTION('Axis2P3D XDirection',(0.225,0.974358763495,0.)) ;
#259=DIRECTION('Vector Direction',(0.225,0.974358763495,0.)) ;
#266=DIRECTION('Vector Direction',(0.,0.,1.)) ;
#278=DIRECTION('Axis2P3D Direction',(0.,0.,1.)) ;
#279=DIRECTION('Axis2P3D XDirection',(0.974358763495,0.225,0.)) ;
#283=DIRECTION('Axis2P3D Direction',(0.,0.,1.)) ;
#290=DIRECTION('Vector Direction',(0.,0.,1.)) ;
#302=DIRECTION('Axis2P3D Direction',(-0.974358763495,-0.225,0.)) ;
#303=DIRECTION('Axis2P3D XDirection',(0.225,-0.974358763495,0.)) ;
#307=DIRECTION('Vector Direction',(0.225,-0.974358763495,0.)) ;
#319=DIRECTION('Axis2P3D Direction',(0.,0.,1.)) ;
#320=DIRECTION('Axis2P3D XDirection',(1.,0.,0.)) ;
#331=DIRECTION('Axis2P3D Direction',(0.,0.,1.)) ;
#340=DIRECTION('Vector Direction',(0.,-1.,0.)) ;
#347=DIRECTION('Axis2P3D Direction',(0.,0.,1.)) ;
#354=DIRECTION('Vector Direction',(0.,1.,0.)) ;
#372=DIRECTION('Axis2P3D Direction',(0.,0.,-1.)) ;
#373=DIRECTION('Axis2P3D XDirection',(1.,0.,0.)) ;
#377=DIRECTION('Axis2P3D Direction',(0.,0.,-1.)) ;
#386=DIRECTION('Axis2P3D Direction',(0.,0.,-1.)) ;
#396=DIRECTION('Axis2P3D Direction',(0.,0.,-1.)) ;
#397=DIRECTION('Axis2P3D XDirection',(1.,0.,0.)) ;
#401=DIRECTION('Vector Direction',(0.,0.,-1.)) ;
#408=DIRECTION('Axis2P3D Direction',(0.,0.,-1.)) ;
#415=DIRECTION('Vector Direction',(0.,0.,-1.)) ;
#427=DIRECTION('Axis2P3D Direction',(0.,0.,-1.)) ;
#439=DIRECTION('Axis2P3D Direction',(0.,0.,-1.)) ;
#448=DIRECTION('Axis2P3D Direction',(0.,0.,-1.)) ;
#458=DIRECTION('Axis2P3D Direction',(0.,0.,-1.)) ;
#459=DIRECTION('Axis2P3D XDirection',(1.,0.,0.)) ;
#463=DIRECTION('Vector Direction',(0.,0.,-1.)) ;
#470=DIRECTION('Axis2P3D Direction',(0.,0.,-1.)) ;
#477=DIRECTION('Vector Direction',(0.,0.,-1.)) ;
#489=DIRECTION('Axis2P3D Direction',(0.,0.,-1.)) ;
#501=DIRECTION('Axis2P3D Direction',(0.,0.,-1.)) ;
#510=DIRECTION('Axis2P3D Direction',(0.,0.,-1.)) ;
#520=DIRECTION('Axis2P3D Direction',(0.,0.,-1.)) ;
#521=DIRECTION('Axis2P3D XDirection',(1.,0.,0.)) ;
#525=DIRECTION('Vector Direction',(0.,0.,-1.)) ;
#532=DIRECTION('Axis2P3D Direction',(0.,0.,-1.)) ;
#539=DIRECTION('Vector Direction',(0.,0.,-1.)) ;
#551=DIRECTION('Axis2P3D Direction',(0.,0.,-1.)) ;
#563=DIRECTION('Axis2P3D Direction',(0.,0.,-1.)) ;
#572=DIRECTION('Axis2P3D Direction',(0.,0.,-1.)) ;
#582=DIRECTION('Axis2P3D Direction',(0.,0.,-1.)) ;
#583=DIRECTION('Axis2P3D XDirection',(1.,0.,0.)) ;
#587=DIRECTION('Vector Direction',(0.,0.,-1.)) ;
#594=DIRECTION('Axis2P3D Direction',(0.,0.,-1.)) ;
#601=DIRECTION('Vector Direction',(0.,0.,-1.)) ;
#613=DIRECTION('Axis2P3D Direction',(0.,0.,-1.)) ;
#625=DIRECTION('Axis2P3D Direction',(0.,0.,1.)) ;
#626=DIRECTION('Axis2P3D XDirection',(1.,0.,0.)) ;
#630=DIRECTION('Vector Direction',(0.,1.,0.)) ;
#639=DIRECTION('Axis2P3D Direction',(0.,0.,1.)) ;
#646=DIRECTION('Vector Direction',(0.,-1.,0.)) ;
#653=DIRECTION('Axis2P3D Direction',(0.,0.,1.)) ;
#681=DIRECTION('Axis2P3D Direction',(1.,0.,0.)) ;
#682=DIRECTION('Axis2P3D XDirection',(0.,1.,0.)) ;
#686=DIRECTION('Vector Direction',(0.,0.,1.)) ;
#691=DIRECTION('Vector Direction',(0.,0.,1.)) ;
#703=DIRECTION('Axis2P3D Direction',(0.,0.,1.)) ;
#704=DIRECTION('Axis2P3D XDirection',(1.,0.,0.)) ;
#708=DIRECTION('Vector Direction',(0.,0.,1.)) ;
#720=DIRECTION('Axis2P3D Direction',(-1.,0.,0.)) ;
#721=DIRECTION('Axis2P3D XDirection',(0.,-1.,0.)) ;
#725=DIRECTION('Vector Direction',(0.,0.,1.)) ;
#737=DIRECTION('Axis2P3D Direction',(0.,0.,1.)) ;
#738=DIRECTION('Axis2P3D XDirection',(-0.384615384615,-0.923076923077,-0.)) ;
#48=AXIS2_PLACEMENT_3D(' ',#47,$,$) ;
#55=AXIS2_PLACEMENT_3D('Plane Axis2P3D',#52,#53,#54) ;
#95=AXIS2_PLACEMENT_3D('Plane Axis2P3D',#92,#93,#94) ;
#99=AXIS2_PLACEMENT_3D('Circle Axis2P3D',#97,#98,$) ;
#113=AXIS2_PLACEMENT_3D('Circle Axis2P3D',#111,#112,$) ;
#124=AXIS2_PLACEMENT_3D('Circle Axis2P3D',#122,#123,$) ;
#140=AXIS2_PLACEMENT_3D('Circle Axis2P3D',#138,#139,$) ;
#160=AXIS2_PLACEMENT_3D('Cylinder Axis2P3D',#157,#158,#159) ;
#164=AXIS2_PLACEMENT_3D('Circle Axis2P3D',#162,#163,$) ;
#184=AXIS2_PLACEMENT_3D('Cylinder Axis2P3D',#181,#182,#183) ;
#195=AXIS2_PLACEMENT_3D('Circle Axis2P3D',#193,#194,$) ;
#208=AXIS2_PLACEMENT_3D('Plane Axis2P3D',#205,#206,#207) ;
#225=AXIS2_PLACEMENT_3D('Cylinder Axis2P3D',#222,#223,#224) ;
#236=AXIS2_PLACEMENT_3D('Circle Axis2P3D',#234,#235,$) ;
#256=AXIS2_PLACEMENT_3D('Plane Axis2P3D',#253,#254,#255) ;
#280=AXIS2_PLACEMENT_3D('Cylinder Axis2P3D',#277,#278,#279) ;
#284=AXIS2_PLACEMENT_3D('Circle Axis2P3D',#282,#283,$) ;
#304=AXIS2_PLACEMENT_3D('Plane Axis2P3D',#301,#302,#303) ;
#321=AXIS2_PLACEMENT_3D('Plane Axis2P3D',#318,#319,#320) ;
#332=AXIS2_PLACEMENT_3D('Circle Axis2P3D',#330,#331,$) ;
#348=AXIS2_PLACEMENT_3D('Circle Axis2P3D',#346,#347,$) ;
#374=AXIS2_PLACEMENT_3D('Plane Axis2P3D',#371,#372,#373) ;
#378=AXIS2_PLACEMENT_3D('Circle Axis2P3D',#376,#377,$) ;
#387=AXIS2_PLACEMENT_3D('Circle Axis2P3D',#385,#386,$) ;
#398=AXIS2_PLACEMENT_3D('Cylinder Axis2P3D',#395,#396,#397) ;
#409=AXIS2_PLACEMENT_3D('Circle Axis2P3D',#407,#408,$) ;
#428=AXIS2_PLACEMENT_3D('Circle Axis2P3D',#426,#427,$) ;
#440=AXIS2_PLACEMENT_3D('Circle Axis2P3D',#438,#439,$) ;
#449=AXIS2_PLACEMENT_3D('Circle Axis2P3D',#447,#448,$) ;
#460=AXIS2_PLACEMENT_3D('Cylinder Axis2P3D',#457,#458,#459) ;
#471=AXIS2_PLACEMENT_3D('Circle Axis2P3D',#469,#470,$) ;
#490=AXIS2_PLACEMENT_3D('Circle Axis2P3D',#488,#489,$) ;
#502=AXIS2_PLACEMENT_3D('Circle Axis2P3D',#500,#501,$) ;
#511=AXIS2_PLACEMENT_3D('Circle Axis2P3D',#509,#510,$) ;
#522=AXIS2_PLACEMENT_3D('Cylinder Axis2P3D',#519,#520,#521) ;
#533=AXIS2_PLACEMENT_3D('Circle Axis2P3D',#531,#532,$) ;
#552=AXIS2_PLACEMENT_3D('Circle Axis2P3D',#550,#551,$) ;
#564=AXIS2_PLACEMENT_3D('Circle Axis2P3D',#562,#563,$) ;
#573=AXIS2_PLACEMENT_3D('Circle Axis2P3D',#571,#572,$) ;
#584=AXIS2_PLACEMENT_3D('Cylinder Axis2P3D',#581,#582,#583) ;
#595=AXIS2_PLACEMENT_3D('Circle Axis2P3D',#593,#594,$) ;
#614=AXIS2_PLACEMENT_3D('Circle Axis2P3D',#612,#613,$) ;
#627=AXIS2_PLACEMENT_3D('Plane Axis2P3D',#624,#625,#626) ;
#640=AXIS2_PLACEMENT_3D('Circle Axis2P3D',#638,#639,$) ;
#654=AXIS2_PLACEMENT_3D('Circle Axis2P3D',#652,#653,$) ;
#683=AXIS2_PLACEMENT_3D('Plane Axis2P3D',#680,#681,#682) ;
#705=AXIS2_PLACEMENT_3D('Cylinder Axis2P3D',#702,#703,#704) ;
#722=AXIS2_PLACEMENT_3D('Plane Axis2P3D',#719,#720,#721) ;
#739=AXIS2_PLACEMENT_3D('Cylinder Axis2P3D',#736,#737,#738) ;
#40=PRODUCT_DEFINITION_SHAPE(' ',' ',#14) ;
#31=APPROVAL_PERSON_ORGANIZATION(#25,#21,#19) ;
#25=PERSON_AND_ORGANIZATION(#22,#23) ;
#22=PERSON(' ',' ',' ',$,$,$) ;
#23=ORGANIZATION(' ',' ',' ') ;
#21=APPROVAL(#20,' ') ;
#20=APPROVAL_STATUS('not_yet_approved') ;
#19=APPROVAL_ROLE('APPROVER') ;
#13=DATE_AND_TIME(#11,#12) ;
#12=LOCAL_TIME(23,24,43.,#10) ;
#10=COORDINATED_UNIVERSAL_TIME_OFFSET(0,0,.AHEAD.) ;
#86=ORIENTED_EDGE('',*,*,#65,.F.) ;
#87=ORIENTED_EDGE('',*,*,#72,.T.) ;
#88=ORIENTED_EDGE('',*,*,#79,.T.) ;
#89=ORIENTED_EDGE('',*,*,#84,.F.) ;
#117=ORIENTED_EDGE('',*,*,#84,.T.) ;
#118=ORIENTED_EDGE('',*,*,#103,.T.) ;
#119=ORIENTED_EDGE('',*,*,#110,.T.) ;
#120=ORIENTED_EDGE('',*,*,#115,.T.) ;
#151=ORIENTED_EDGE('',*,*,#130,.F.) ;
#152=ORIENTED_EDGE('',*,*,#137,.F.) ;
#153=ORIENTED_EDGE('',*,*,#144,.F.) ;
#154=ORIENTED_EDGE('',*,*,#149,.F.) ;
#175=ORIENTED_EDGE('',*,*,#79,.F.) ;
#176=ORIENTED_EDGE('',*,*,#168,.T.) ;
#177=ORIENTED_EDGE('',*,*,#173,.T.) ;
#178=ORIENTED_EDGE('',*,*,#103,.F.) ;
#199=ORIENTED_EDGE('',*,*,#192,.F.) ;
#200=ORIENTED_EDGE('',*,*,#197,.T.) ;
#201=ORIENTED_EDGE('',*,*,#65,.T.) ;
#202=ORIENTED_EDGE('',*,*,#115,.F.) ;
#216=ORIENTED_EDGE('',*,*,#173,.F.) ;
#217=ORIENTED_EDGE('',*,*,#214,.T.) ;
#218=ORIENTED_EDGE('',*,*,#192,.T.) ;
#219=ORIENTED_EDGE('',*,*,#110,.F.) ;
#247=ORIENTED_EDGE('',*,*,#130,.T.) ;
#248=ORIENTED_EDGE('',*,*,#233,.F.) ;
#249=ORIENTED_EDGE('',*,*,#240,.F.) ;
#250=ORIENTED_EDGE('',*,*,#245,.T.) ;
#271=ORIENTED_EDGE('',*,*,#137,.T.) ;
#272=ORIENTED_EDGE('',*,*,#245,.F.) ;
#273=ORIENTED_EDGE('',*,*,#264,.F.) ;
#274=ORIENTED_EDGE('',*,*,#269,.T.) ;
#295=ORIENTED_EDGE('',*,*,#144,.T.) ;
#296=ORIENTED_EDGE('',*,*,#269,.F.) ;
#297=ORIENTED_EDGE('',*,*,#288,.F.) ;
#298=ORIENTED_EDGE('',*,*,#293,.T.) ;
#312=ORIENTED_EDGE('',*,*,#149,.T.) ;
#313=ORIENTED_EDGE('',*,*,#293,.F.) ;
#314=ORIENTED_EDGE('',*,*,#310,.F.) ;
#315=ORIENTED_EDGE('',*,*,#233,.T.) ;
#324=ORIENTED_EDGE('',*,*,#288,.T.) ;
#325=ORIENTED_EDGE('',*,*,#264,.T.) ;
#326=ORIENTED_EDGE('',*,*,#240,.T.) ;
#327=ORIENTED_EDGE('',*,*,#310,.T.) ;
#359=ORIENTED_EDGE('',*,*,#338,.T.) ;
#360=ORIENTED_EDGE('',*,*,#345,.T.) ;
#361=ORIENTED_EDGE('',*,*,#352,.T.) ;
#362=ORIENTED_EDGE('',*,*,#357,.T.) ;
#365=ORIENTED_EDGE('',*,*,#214,.F.) ;
#366=ORIENTED_EDGE('',*,*,#168,.F.) ;
#367=ORIENTED_EDGE('',*,*,#72,.F.) ;
#368=ORIENTED_EDGE('',*,*,#197,.F.) ;
#391=ORIENTED_EDGE('',*,*,#384,.T.) ;
#392=ORIENTED_EDGE('',*,*,#389,.T.) ;
#420=ORIENTED_EDGE('',*,*,#406,.F.) ;
#421=ORIENTED_EDGE('',*,*,#413,.T.) ;
#422=ORIENTED_EDGE('',*,*,#418,.T.) ;
#423=ORIENTED_EDGE('',*,*,#389,.F.) ;
#432=ORIENTED_EDGE('',*,*,#418,.F.) ;
#433=ORIENTED_EDGE('',*,*,#430,.T.) ;
#434=ORIENTED_EDGE('',*,*,#406,.T.) ;
#435=ORIENTED_EDGE('',*,*,#384,.F.) ;
#453=ORIENTED_EDGE('',*,*,#446,.T.) ;
#454=ORIENTED_EDGE('',*,*,#451,.T.) ;
#482=ORIENTED_EDGE('',*,*,#468,.F.) ;
#483=ORIENTED_EDGE('',*,*,#475,.T.) ;
#484=ORIENTED_EDGE('',*,*,#480,.T.) ;
#485=ORIENTED_EDGE('',*,*,#451,.F.) ;
#494=ORIENTED_EDGE('',*,*,#480,.F.) ;
#495=ORIENTED_EDGE('',*,*,#492,.T.) ;
#496=ORIENTED_EDGE('',*,*,#468,.T.) ;
#497=ORIENTED_EDGE('',*,*,#446,.F.) ;
#515=ORIENTED_EDGE('',*,*,#508,.T.) ;
#516=ORIENTED_EDGE('',*,*,#513,.T.) ;
#544=ORIENTED_EDGE('',*,*,#530,.F.) ;
#545=ORIENTED_EDGE('',*,*,#537,.T.) ;
#546=ORIENTED_EDGE('',*,*,#542,.T.) ;
#547=ORIENTED_EDGE('',*,*,#513,.F.) ;
#556=ORIENTED_EDGE('',*,*,#542,.F.) ;
#557=ORIENTED_EDGE('',*,*,#554,.T.) ;
#558=ORIENTED_EDGE('',*,*,#530,.T.) ;
#559=ORIENTED_EDGE('',*,*,#508,.F.) ;
#577=ORIENTED_EDGE('',*,*,#570,.T.) ;
#578=ORIENTED_EDGE('',*,*,#575,.T.) ;
#606=ORIENTED_EDGE('',*,*,#592,.F.) ;
#607=ORIENTED_EDGE('',*,*,#599,.T.) ;
#608=ORIENTED_EDGE('',*,*,#604,.T.) ;
#609=ORIENTED_EDGE('',*,*,#575,.F.) ;
#618=ORIENTED_EDGE('',*,*,#604,.F.) ;
#619=ORIENTED_EDGE('',*,*,#616,.T.) ;
#620=ORIENTED_EDGE('',*,*,#592,.T.) ;
#621=ORIENTED_EDGE('',*,*,#570,.F.) ;
#658=ORIENTED_EDGE('',*,*,#637,.F.) ;
#659=ORIENTED_EDGE('',*,*,#644,.F.) ;
#660=ORIENTED_EDGE('',*,*,#651,.F.) ;
#661=ORIENTED_EDGE('',*,*,#656,.F.) ;
#664=ORIENTED_EDGE('',*,*,#413,.F.) ;
#665=ORIENTED_EDGE('',*,*,#430,.F.) ;
#668=ORIENTED_EDGE('',*,*,#537,.F.) ;
#669=ORIENTED_EDGE('',*,*,#554,.F.) ;
#672=ORIENTED_EDGE('',*,*,#599,.F.) ;
#673=ORIENTED_EDGE('',*,*,#616,.F.) ;
#676=ORIENTED_EDGE('',*,*,#475,.F.) ;
#677=ORIENTED_EDGE('',*,*,#492,.F.) ;
#696=ORIENTED_EDGE('',*,*,#689,.F.) ;
#697=ORIENTED_EDGE('',*,*,#637,.T.) ;
#698=ORIENTED_EDGE('',*,*,#694,.T.) ;
#699=ORIENTED_EDGE('',*,*,#357,.F.) ;
#713=ORIENTED_EDGE('',*,*,#711,.F.) ;
#714=ORIENTED_EDGE('',*,*,#644,.T.) ;
#715=ORIENTED_EDGE('',*,*,#689,.T.) ;
#716=ORIENTED_EDGE('',*,*,#352,.F.) ;
#730=ORIENTED_EDGE('',*,*,#728,.F.) ;
#731=ORIENTED_EDGE('',*,*,#651,.T.) ;
#732=ORIENTED_EDGE('',*,*,#711,.T.) ;
#733=ORIENTED_EDGE('',*,*,#345,.F.) ;
#742=ORIENTED_EDGE('',*,*,#694,.F.) ;
#743=ORIENTED_EDGE('',*,*,#656,.T.) ;
#744=ORIENTED_EDGE('',*,*,#728,.T.) ;
#745=ORIENTED_EDGE('',*,*,#338,.F.) ;
#155=FACE_BOUND('',#150,.T.) ;
#369=FACE_BOUND('',#364,.T.) ;
#666=FACE_BOUND('',#663,.T.) ;
#670=FACE_BOUND('',#667,.T.) ;
#674=FACE_BOUND('',#671,.T.) ;
#678=FACE_BOUND('',#675,.T.) ;
#51=CLOSED_SHELL('Closed Shell',(#91,#156,#180,#204,#221,#252,#276,#300,#317,#329,#370,#394,#425,#437,#456,#487,#499,#518,#549,#561,#580,#611,#623,#679,#701,#718,#735,#747)) ;
#59=VECTOR('Line Direction',#58,1.) ;
#68=VECTOR('Line Direction',#67,1.) ;
#75=VECTOR('Line Direction',#74,1.) ;
#82=VECTOR('Line Direction',#81,1.) ;
#106=VECTOR('Line Direction',#105,1.) ;
#133=VECTOR('Line Direction',#132,1.) ;
#147=VECTOR('Line Direction',#146,1.) ;
#171=VECTOR('Line Direction',#170,1.) ;
#188=VECTOR('Line Direction',#187,1.) ;
#212=VECTOR('Line Direction',#211,1.) ;
#229=VECTOR('Line Direction',#228,1.) ;
#243=VECTOR('Line Direction',#242,1.) ;
#260=VECTOR('Line Direction',#259,1.) ;
#267=VECTOR('Line Direction',#266,1.) ;
#291=VECTOR('Line Direction',#290,1.) ;
#308=VECTOR('Line Direction',#307,1.) ;
#341=VECTOR('Line Direction',#340,1.) ;
#355=VECTOR('Line Direction',#354,1.) ;
#402=VECTOR('Line Direction',#401,1.) ;
#416=VECTOR('Line Direction',#415,1.) ;
#464=VECTOR('Line Direction',#463,1.) ;
#478=VECTOR('Line Direction',#477,1.) ;
#526=VECTOR('Line Direction',#525,1.) ;
#540=VECTOR('Line Direction',#539,1.) ;
#588=VECTOR('Line Direction',#587,1.) ;
#602=VECTOR('Line Direction',#601,1.) ;
#631=VECTOR('Line Direction',#630,1.) ;
#647=VECTOR('Line Direction',#646,1.) ;
#687=VECTOR('Line Direction',#686,1.) ;
#692=VECTOR('Line Direction',#691,1.) ;
#709=VECTOR('Line Direction',#708,1.) ;
#726=VECTOR('Line Direction',#725,1.) ;
#749=ADVANCED_BREP_SHAPE_REPRESENTATION('NONE',(#748),#46) ;
#49=SHAPE_REPRESENTATION(' ',(#48),#46) ;
#91=ADVANCED_FACE('PartBody',(#90),#56,.F.) ;
#156=ADVANCED_FACE('PartBody',(#121,#155),#96,.T.) ;
#180=ADVANCED_FACE('PartBody',(#179),#161,.T.) ;
#204=ADVANCED_FACE('PartBody',(#203),#185,.T.) ;
#221=ADVANCED_FACE('PartBody',(#220),#209,.F.) ;
#252=ADVANCED_FACE('PartBody',(#251),#226,.F.) ;
#276=ADVANCED_FACE('PartBody',(#275),#257,.T.) ;
#300=ADVANCED_FACE('PartBody',(#299),#281,.F.) ;
#317=ADVANCED_FACE('PartBody',(#316),#305,.T.) ;
#329=ADVANCED_FACE('PartBody',(#328),#322,.T.) ;
#370=ADVANCED_FACE('PartBody',(#363,#369),#322,.T.) ;
#394=ADVANCED_FACE('PartBody',(#393),#375,.T.) ;
#425=ADVANCED_FACE('PartBody',(#424),#399,.F.) ;
#437=ADVANCED_FACE('PartBody',(#436),#399,.F.) ;
#456=ADVANCED_FACE('PartBody',(#455),#375,.T.) ;
#487=ADVANCED_FACE('PartBody',(#486),#461,.F.) ;
#499=ADVANCED_FACE('PartBody',(#498),#461,.F.) ;
#518=ADVANCED_FACE('PartBody',(#517),#375,.T.) ;
#549=ADVANCED_FACE('PartBody',(#548),#523,.F.) ;
#561=ADVANCED_FACE('PartBody',(#560),#523,.F.) ;
#580=ADVANCED_FACE('PartBody',(#579),#375,.T.) ;
#611=ADVANCED_FACE('PartBody',(#610),#585,.F.) ;
#623=ADVANCED_FACE('PartBody',(#622),#585,.F.) ;
#679=ADVANCED_FACE('PartBody',(#662,#666,#670,#674,#678),#628,.F.) ;
#701=ADVANCED_FACE('PartBody',(#700),#684,.F.) ;
#718=ADVANCED_FACE('PartBody',(#717),#706,.T.) ;
#735=ADVANCED_FACE('PartBody',(#734),#723,.F.) ;
#747=ADVANCED_FACE('PartBody',(#746),#740,.T.) ;
#4=APPLICATION_PROTOCOL_DEFINITION('international standard','config_control_design',1994,#1) ;
#32=APPROVAL_DATE_TIME(#13,#21) ;
#748=MANIFOLD_SOLID_BREP('PartBody',#51) ;
#11=CALENDAR_DATE(2026,28,9) ;
#30=CC_DESIGN_APPROVAL(#21,(#16,#6,#14)) ;
#18=CC_DESIGN_DATE_AND_TIME_ASSIGNMENT(#13,#17,(#16)) ;
#29=CC_DESIGN_DATE_AND_TIME_ASSIGNMENT(#13,#28,(#14)) ;
#17=DATE_TIME_ROLE('classification_date') ;
#28=DATE_TIME_ROLE('creation_date') ;
#27=CC_DESIGN_PERSON_AND_ORGANIZATION_ASSIGNMENT(#25,#26,(#16)) ;
#33=CC_DESIGN_PERSON_AND_ORGANIZATION_ASSIGNMENT(#25,#34,(#6)) ;
#35=CC_DESIGN_PERSON_AND_ORGANIZATION_ASSIGNMENT(#25,#36,(#6,#14)) ;
#37=CC_DESIGN_PERSON_AND_ORGANIZATION_ASSIGNMENT(#25,#38,(#5)) ;
#26=PERSON_AND_ORGANIZATION_ROLE('classification_officer') ;
#34=PERSON_AND_ORGANIZATION_ROLE('design_supplier') ;
#36=PERSON_AND_ORGANIZATION_ROLE('creator') ;
#38=PERSON_AND_ORGANIZATION_ROLE('design_owner') ;
#39=CC_DESIGN_SECURITY_CLASSIFICATION(#16,(#6)) ;
#100=CIRCLE('generated circle',#99,30.) ;
#114=CIRCLE('generated circle',#113,21.) ;
#125=CIRCLE('generated circle',#124,27.) ;
#141=CIRCLE('generated circle',#140,18.) ;
#165=CIRCLE('generated circle',#164,30.) ;
#196=CIRCLE('generated circle',#195,21.) ;
#237=CIRCLE('generated circle',#236,27.) ;
#285=CIRCLE('generated circle',#284,18.) ;
#333=CIRCLE('generated circle',#332,130.) ;
#349=CIRCLE('generated circle',#348,50.) ;
#379=CIRCLE('generated circle',#378,4.) ;
#388=CIRCLE('generated circle',#387,4.) ;
#410=CIRCLE('generated circle',#409,4.) ;
#429=CIRCLE('generated circle',#428,4.) ;
#441=CIRCLE('generated circle',#440,4.) ;
#450=CIRCLE('generated circle',#449,4.) ;
#472=CIRCLE('generated circle',#471,4.) ;
#491=CIRCLE('generated circle',#490,4.) ;
#503=CIRCLE('generated circle',#502,4.) ;
#512=CIRCLE('generated circle',#511,4.) ;
#534=CIRCLE('generated circle',#533,4.) ;
#553=CIRCLE('generated circle',#552,4.) ;
#565=CIRCLE('generated circle',#564,4.) ;
#574=CIRCLE('generated circle',#573,4.) ;
#596=CIRCLE('generated circle',#595,4.) ;
#615=CIRCLE('generated circle',#614,4.) ;
#641=CIRCLE('generated circle',#640,50.) ;
#655=CIRCLE('generated circle',#654,130.) ;
#750=SHAPE_REPRESENTATION_RELATIONSHIP(' ',' ',#49,#749) ;
#161=CYLINDRICAL_SURFACE('generated cylinder',#160,30.) ;
#185=CYLINDRICAL_SURFACE('generated cylinder',#184,21.) ;
#226=CYLINDRICAL_SURFACE('generated cylinder',#225,27.) ;
#281=CYLINDRICAL_SURFACE('generated cylinder',#280,18.) ;
#399=CYLINDRICAL_SURFACE('generated cylinder',#398,4.) ;
#461=CYLINDRICAL_SURFACE('generated cylinder',#460,4.) ;
#523=CYLINDRICAL_SURFACE('generated cylinder',#522,4.) ;
#585=CYLINDRICAL_SURFACE('generated cylinder',#584,4.) ;
#706=CYLINDRICAL_SURFACE('generated cylinder',#705,50.) ;
#740=CYLINDRICAL_SURFACE('generated cylinder',#739,130.) ;
#3=DESIGN_CONTEXT(' ',#1,'design') ;
#65=EDGE_CURVE('',#62,#64,#60,.T.) ;
#72=EDGE_CURVE('',#62,#71,#69,.F.) ;
#79=EDGE_CURVE('',#71,#78,#76,.T.) ;
#84=EDGE_CURVE('',#64,#78,#83,.F.) ;
#103=EDGE_CURVE('',#78,#102,#100,.T.) ;
#110=EDGE_CURVE('',#102,#109,#107,.F.) ;
#115=EDGE_CURVE('',#109,#64,#114,.T.) ;
#130=EDGE_CURVE('',#127,#129,#125,.T.) ;
#137=EDGE_CURVE('',#136,#127,#134,.F.) ;
#144=EDGE_CURVE('',#143,#136,#141,.T.) ;
#149=EDGE_CURVE('',#129,#143,#148,.F.) ;
#168=EDGE_CURVE('',#71,#167,#165,.T.) ;
#173=EDGE_CURVE('',#167,#102,#172,.T.) ;
#192=EDGE_CURVE('',#191,#109,#189,.T.) ;
#197=EDGE_CURVE('',#191,#62,#196,.T.) ;
#214=EDGE_CURVE('',#167,#191,#213,.F.) ;
#233=EDGE_CURVE('',#232,#129,#230,.T.) ;
#240=EDGE_CURVE('',#239,#232,#237,.T.) ;
#245=EDGE_CURVE('',#239,#127,#244,.T.) ;
#264=EDGE_CURVE('',#263,#239,#261,.F.) ;
#269=EDGE_CURVE('',#263,#136,#268,.T.) ;
#288=EDGE_CURVE('',#287,#263,#285,.T.) ;
#293=EDGE_CURVE('',#287,#143,#292,.T.) ;
#310=EDGE_CURVE('',#232,#287,#309,.F.) ;
#338=EDGE_CURVE('',#335,#337,#333,.T.) ;
#345=EDGE_CURVE('',#337,#344,#342,.F.) ;
#352=EDGE_CURVE('',#344,#351,#349,.T.) ;
#357=EDGE_CURVE('',#351,#335,#356,.F.) ;
#384=EDGE_CURVE('',#381,#383,#379,.T.) ;
#389=EDGE_CURVE('',#383,#381,#388,.T.) ;
#406=EDGE_CURVE('',#405,#383,#403,.F.) ;
#413=EDGE_CURVE('',#405,#412,#410,.T.) ;
#418=EDGE_CURVE('',#412,#381,#417,.F.) ;
#430=EDGE_CURVE('',#412,#405,#429,.T.) ;
#446=EDGE_CURVE('',#443,#445,#441,.T.) ;
#451=EDGE_CURVE('',#445,#443,#450,.T.) ;
#468=EDGE_CURVE('',#467,#445,#465,.F.) ;
#475=EDGE_CURVE('',#467,#474,#472,.T.) ;
#480=EDGE_CURVE('',#474,#443,#479,.F.) ;
#492=EDGE_CURVE('',#474,#467,#491,.T.) ;
#508=EDGE_CURVE('',#505,#507,#503,.T.) ;
#513=EDGE_CURVE('',#507,#505,#512,.T.) ;
#530=EDGE_CURVE('',#529,#507,#527,.F.) ;
#537=EDGE_CURVE('',#529,#536,#534,.T.) ;
#542=EDGE_CURVE('',#536,#505,#541,.F.) ;
#554=EDGE_CURVE('',#536,#529,#553,.T.) ;
#570=EDGE_CURVE('',#567,#569,#565,.T.) ;
#575=EDGE_CURVE('',#569,#567,#574,.T.) ;
#592=EDGE_CURVE('',#591,#569,#589,.F.) ;
#599=EDGE_CURVE('',#591,#598,#596,.T.) ;
#604=EDGE_CURVE('',#598,#567,#603,.F.) ;
#616=EDGE_CURVE('',#598,#591,#615,.T.) ;
#637=EDGE_CURVE('',#634,#636,#632,.F.) ;
#644=EDGE_CURVE('',#643,#634,#641,.T.) ;
#651=EDGE_CURVE('',#650,#643,#648,.F.) ;
#656=EDGE_CURVE('',#636,#650,#655,.T.) ;
#689=EDGE_CURVE('',#634,#351,#688,.T.) ;
#694=EDGE_CURVE('',#636,#335,#693,.T.) ;
#711=EDGE_CURVE('',#643,#344,#710,.T.) ;
#728=EDGE_CURVE('',#650,#337,#727,.T.) ;
#85=EDGE_LOOP('',(#86,#87,#88,#89)) ;
#116=EDGE_LOOP('',(#117,#118,#119,#120)) ;
#150=EDGE_LOOP('',(#151,#152,#153,#154)) ;
#174=EDGE_LOOP('',(#175,#176,#177,#178)) ;
#198=EDGE_LOOP('',(#199,#200,#201,#202)) ;
#215=EDGE_LOOP('',(#216,#217,#218,#219)) ;
#246=EDGE_LOOP('',(#247,#248,#249,#250)) ;
#270=EDGE_LOOP('',(#271,#272,#273,#274)) ;
#294=EDGE_LOOP('',(#295,#296,#297,#298)) ;
#311=EDGE_LOOP('',(#312,#313,#314,#315)) ;
#323=EDGE_LOOP('',(#324,#325,#326,#327)) ;
#358=EDGE_LOOP('',(#359,#360,#361,#362)) ;
#364=EDGE_LOOP('',(#365,#366,#367,#368)) ;
#390=EDGE_LOOP('',(#391,#392)) ;
#419=EDGE_LOOP('',(#420,#421,#422,#423)) ;
#431=EDGE_LOOP('',(#432,#433,#434,#435)) ;
#452=EDGE_LOOP('',(#453,#454)) ;
#481=EDGE_LOOP('',(#482,#483,#484,#485)) ;
#493=EDGE_LOOP('',(#494,#495,#496,#497)) ;
#514=EDGE_LOOP('',(#515,#516)) ;
#543=EDGE_LOOP('',(#544,#545,#546,#547)) ;
#555=EDGE_LOOP('',(#556,#557,#558,#559)) ;
#576=EDGE_LOOP('',(#577,#578)) ;
#605=EDGE_LOOP('',(#606,#607,#608,#609)) ;
#617=EDGE_LOOP('',(#618,#619,#620,#621)) ;
#657=EDGE_LOOP('',(#658,#659,#660,#661)) ;
#663=EDGE_LOOP('',(#664,#665)) ;
#667=EDGE_LOOP('',(#668,#669)) ;
#671=EDGE_LOOP('',(#672,#673)) ;
#675=EDGE_LOOP('',(#676,#677)) ;
#695=EDGE_LOOP('',(#696,#697,#698,#699)) ;
#712=EDGE_LOOP('',(#713,#714,#715,#716)) ;
#729=EDGE_LOOP('',(#730,#731,#732,#733)) ;
#741=EDGE_LOOP('',(#742,#743,#744,#745)) ;
#90=FACE_OUTER_BOUND('',#85,.T.) ;
#121=FACE_OUTER_BOUND('',#116,.T.) ;
#179=FACE_OUTER_BOUND('',#174,.T.) ;
#203=FACE_OUTER_BOUND('',#198,.T.) ;
#220=FACE_OUTER_BOUND('',#215,.T.) ;
#251=FACE_OUTER_BOUND('',#246,.T.) ;
#275=FACE_OUTER_BOUND('',#270,.T.) ;
#299=FACE_OUTER_BOUND('',#294,.T.) ;
#316=FACE_OUTER_BOUND('',#311,.T.) ;
#328=FACE_OUTER_BOUND('',#323,.T.) ;
#363=FACE_OUTER_BOUND('',#358,.T.) ;
#393=FACE_OUTER_BOUND('',#390,.T.) ;
#424=FACE_OUTER_BOUND('',#419,.T.) ;
#436=FACE_OUTER_BOUND('',#431,.T.) ;
#455=FACE_OUTER_BOUND('',#452,.T.) ;
#486=FACE_OUTER_BOUND('',#481,.T.) ;
#498=FACE_OUTER_BOUND('',#493,.T.) ;
#517=FACE_OUTER_BOUND('',#514,.T.) ;
#548=FACE_OUTER_BOUND('',#543,.T.) ;
#560=FACE_OUTER_BOUND('',#555,.T.) ;
#579=FACE_OUTER_BOUND('',#576,.T.) ;
#610=FACE_OUTER_BOUND('',#605,.T.) ;
#622=FACE_OUTER_BOUND('',#617,.T.) ;
#662=FACE_OUTER_BOUND('',#657,.T.) ;
#700=FACE_OUTER_BOUND('',#695,.T.) ;
#717=FACE_OUTER_BOUND('',#712,.T.) ;
#734=FACE_OUTER_BOUND('',#729,.T.) ;
#746=FACE_OUTER_BOUND('',#741,.T.) ;
#45=UNCERTAINTY_MEASURE_WITH_UNIT(LENGTH_MEASURE(0.005),#41,'distance_accuracy_value','CONFUSED CURVE UNCERTAINTY') ;
#60=LINE('Line',#57,#59) ;
#69=LINE('Line',#66,#68) ;
#76=LINE('Line',#73,#75) ;
#83=LINE('Line',#80,#82) ;
#107=LINE('Line',#104,#106) ;
#134=LINE('Line',#131,#133) ;
#148=LINE('Line',#145,#147) ;
#172=LINE('Line',#169,#171) ;
#189=LINE('Line',#186,#188) ;
#213=LINE('Line',#210,#212) ;
#230=LINE('Line',#227,#229) ;
#244=LINE('Line',#241,#243) ;
#261=LINE('Line',#258,#260) ;
#268=LINE('Line',#265,#267) ;
#292=LINE('Line',#289,#291) ;
#309=LINE('Line',#306,#308) ;
#342=LINE('Line',#339,#341) ;
#356=LINE('Line',#353,#355) ;
#403=LINE('Line',#400,#402) ;
#417=LINE('Line',#414,#416) ;
#465=LINE('Line',#462,#464) ;
#479=LINE('Line',#476,#478) ;
#527=LINE('Line',#524,#526) ;
#541=LINE('Line',#538,#540) ;
#589=LINE('Line',#586,#588) ;
#603=LINE('Line',#600,#602) ;
#632=LINE('Line',#629,#631) ;
#648=LINE('Line',#645,#647) ;
#688=LINE('Line',#685,#687) ;
#693=LINE('Line',#690,#692) ;
#710=LINE('Line',#707,#709) ;
#727=LINE('Line',#724,#726) ;
#2=MECHANICAL_CONTEXT(' ',#1,'mechanical') ;
#24=PERSONAL_ADDRESS(' ',' ',' ',' ',' ',' ',' ',' ',' ',' ',' ',' ',(#22),' ') ;
#56=PLANE('',#55) ;
#96=PLANE('',#95) ;
#209=PLANE('',#208) ;
#257=PLANE('',#256) ;
#305=PLANE('',#304) ;
#322=PLANE('',#321) ;
#375=PLANE('',#374) ;
#628=PLANE('',#627) ;
#684=PLANE('',#683) ;
#723=PLANE('',#722) ;
#43=PLANE_ANGLE_MEASURE_WITH_UNIT(PLANE_ANGLE_MEASURE(0.0174532925199),#42) ;
#7=PRODUCT_CATEGORY('part',$) ;
#9=PRODUCT_CATEGORY_RELATIONSHIP(' ',' ',#7,#8) ;
#6=PRODUCT_DEFINITION_FORMATION_WITH_SPECIFIED_SOURCE('',' ',#5,.NOT_KNOWN.) ;
#8=PRODUCT_RELATED_PRODUCT_CATEGORY('detail',$,(#5)) ;
#50=SHAPE_DEFINITION_REPRESENTATION(#40,#49) ;
#62=VERTEX_POINT('',#61) ;
#64=VERTEX_POINT('',#63) ;
#71=VERTEX_POINT('',#70) ;
#78=VERTEX_POINT('',#77) ;
#102=VERTEX_POINT('',#101) ;
#109=VERTEX_POINT('',#108) ;
#127=VERTEX_POINT('',#126) ;
#129=VERTEX_POINT('',#128) ;
#136=VERTEX_POINT('',#135) ;
#143=VERTEX_POINT('',#142) ;
#167=VERTEX_POINT('',#166) ;
#191=VERTEX_POINT('',#190) ;
#232=VERTEX_POINT('',#231) ;
#239=VERTEX_POINT('',#238) ;
#263=VERTEX_POINT('',#262) ;
#287=VERTEX_POINT('',#286) ;
#335=VERTEX_POINT('',#334) ;
#337=VERTEX_POINT('',#336) ;
#344=VERTEX_POINT('',#343) ;
#351=VERTEX_POINT('',#350) ;
#381=VERTEX_POINT('',#380) ;
#383=VERTEX_POINT('',#382) ;
#405=VERTEX_POINT('',#404) ;
#412=VERTEX_POINT('',#411) ;
#443=VERTEX_POINT('',#442) ;
#445=VERTEX_POINT('',#444) ;
#467=VERTEX_POINT('',#466) ;
#474=VERTEX_POINT('',#473) ;
#505=VERTEX_POINT('',#504) ;
#507=VERTEX_POINT('',#506) ;
#529=VERTEX_POINT('',#528) ;
#536=VERTEX_POINT('',#535) ;
#567=VERTEX_POINT('',#566) ;
#569=VERTEX_POINT('',#568) ;
#591=VERTEX_POINT('',#590) ;
#598=VERTEX_POINT('',#597) ;
#634=VERTEX_POINT('',#633) ;
#636=VERTEX_POINT('',#635) ;
#643=VERTEX_POINT('',#642) ;
#650=VERTEX_POINT('',#649) ;
#41=(LENGTH_UNIT()NAMED_UNIT(*)SI_UNIT(.MILLI.,.METRE.)) ;
#42=(NAMED_UNIT(*)PLANE_ANGLE_UNIT()SI_UNIT($,.RADIAN.)) ;
#44=(NAMED_UNIT(*)SI_UNIT($,.STERADIAN.)SOLID_ANGLE_UNIT()) ;
#46=(GEOMETRIC_REPRESENTATION_CONTEXT(3)GLOBAL_UNCERTAINTY_ASSIGNED_CONTEXT((#45))GLOBAL_UNIT_ASSIGNED_CONTEXT((#41,#42,#44))REPRESENTATION_CONTEXT(' ',' ')) ;
ENDSEC;
END-ISO-10303-21;
