ISO-10303-21;
HEADER;
FILE_DESCRIPTION(('CATIA V5 STEP Exchange'),'2;1');

FILE_NAME('C:\\Users\\jawel\\OneDrive\\Desktop\\MicroMouseSTP\\base.stp','2026-09-29T02:24:55+00:00',('none'),('none'),'CATIA Version 5 Release 21 GA (IN-10)','CATIA V5 STEP AP203','none');

FILE_SCHEMA(('CONFIG_CONTROL_DESIGN'));

ENDSEC;
/* file written by CATIA V5R21 */
DATA;
#5=PRODUCT('base','','',(#2)) ;
#1=APPLICATION_CONTEXT('configuration controlled 3D design of mechanical parts and assemblies') ;
#14=PRODUCT_DEFINITION('',' ',#6,#3) ;
#16=SECURITY_CLASSIFICATION(' ',' ',#15) ;
#15=SECURITY_CLASSIFICATION_LEVEL('unclassified') ;
#47=CARTESIAN_POINT(' ',(0.,0.,0.)) ;
#52=CARTESIAN_POINT('Axis2P3D Location',(0.,0.,21.)) ;
#57=CARTESIAN_POINT('Line Origine',(85.,17.5,21.)) ;
#61=CARTESIAN_POINT('Vertex',(85.,27.5,21.)) ;
#63=CARTESIAN_POINT('Vertex',(85.,7.5,21.)) ;
#66=CARTESIAN_POINT('Line Origine',(87.,7.5,21.)) ;
#70=CARTESIAN_POINT('Vertex',(89.,7.5,21.)) ;
#73=CARTESIAN_POINT('Line Origine',(89.,17.5,21.)) ;
#77=CARTESIAN_POINT('Vertex',(89.,27.5,21.)) ;
#80=CARTESIAN_POINT('Line Origine',(87.,27.5,21.)) ;
#92=CARTESIAN_POINT('Axis2P3D Location',(85.,27.5,5.)) ;
#97=CARTESIAN_POINT('Line Origine',(85.,7.5,15.5)) ;
#101=CARTESIAN_POINT('Vertex',(85.,7.5,10.)) ;
#104=CARTESIAN_POINT('Line Origine',(85.,27.5,15.5)) ;
#108=CARTESIAN_POINT('Vertex',(85.,27.5,10.)) ;
#111=CARTESIAN_POINT('Line Origine',(85.,24.995050488,10.)) ;
#115=CARTESIAN_POINT('Vertex',(85.,22.4901009759,10.)) ;
#118=CARTESIAN_POINT('Line Origine',(85.,22.4901009759,12.91575)) ;
#122=CARTESIAN_POINT('Vertex',(85.,22.4901009759,15.8315)) ;
#125=CARTESIAN_POINT('Axis2P3D Location',(85.,17.5,12.5)) ;
#129=CARTESIAN_POINT('Vertex',(85.,12.4901009759,15.8016528843)) ;
#132=CARTESIAN_POINT('Line Origine',(85.,12.4901009759,12.9008264422)) ;
#136=CARTESIAN_POINT('Vertex',(85.,12.4901009759,10.)) ;
#139=CARTESIAN_POINT('Line Origine',(85.,9.99505048797,10.)) ;
#155=CARTESIAN_POINT('Axis2P3D Location',(15.,7.5,5.)) ;
#160=CARTESIAN_POINT('Line Origine',(87.,7.5,10.)) ;
#164=CARTESIAN_POINT('Vertex',(89.,7.5,10.)) ;
#167=CARTESIAN_POINT('Line Origine',(89.,7.5,15.5)) ;
#179=CARTESIAN_POINT('Axis2P3D Location',(89.,7.5,5.)) ;
#184=CARTESIAN_POINT('Line Origine',(89.,27.5,15.5)) ;
#188=CARTESIAN_POINT('Vertex',(89.,27.5,10.)) ;
#191=CARTESIAN_POINT('Line Origine',(89.,9.99505048797,10.)) ;
#195=CARTESIAN_POINT('Vertex',(89.,12.4901009759,10.)) ;
#198=CARTESIAN_POINT('Line Origine',(89.,12.4901009759,12.9008264422)) ;
#202=CARTESIAN_POINT('Vertex',(89.,12.4901009759,15.8016528843)) ;
#205=CARTESIAN_POINT('Axis2P3D Location',(89.,17.5,12.5)) ;
#209=CARTESIAN_POINT('Vertex',(89.,22.4901009759,15.8315)) ;
#212=CARTESIAN_POINT('Line Origine',(89.,22.4901009759,12.91575)) ;
#216=CARTESIAN_POINT('Vertex',(89.,22.4901009759,10.)) ;
#219=CARTESIAN_POINT('Line Origine',(89.,24.995050488,10.)) ;
#235=CARTESIAN_POINT('Axis2P3D Location',(11.,27.5,5.)) ;
#240=CARTESIAN_POINT('Line Origine',(87.,27.5,10.)) ;
#252=CARTESIAN_POINT('Axis2P3D Location',(89.,22.4901009759,15.8315)) ;
#257=CARTESIAN_POINT('Line Origine',(87.,22.4901009759,10.)) ;
#262=CARTESIAN_POINT('Line Origine',(87.,22.4901009759,15.8315)) ;
#274=CARTESIAN_POINT('Axis2P3D Location',(-11.,17.5,12.5)) ;
#279=CARTESIAN_POINT('Line Origine',(-11.,12.4901009759,15.8016528843)) ;
#291=CARTESIAN_POINT('Axis2P3D Location',(89.,12.4901009759,9.19834711566)) ;
#296=CARTESIAN_POINT('Line Origine',(87.,12.4901009759,10.)) ;
#308=CARTESIAN_POINT('Line Origine',(11.,17.5,21.)) ;
#312=CARTESIAN_POINT('Vertex',(11.,27.5,21.)) ;
#314=CARTESIAN_POINT('Vertex',(11.,7.5,21.)) ;
#317=CARTESIAN_POINT('Line Origine',(13.,7.5,21.)) ;
#321=CARTESIAN_POINT('Vertex',(15.,7.5,21.)) ;
#324=CARTESIAN_POINT('Line Origine',(15.,17.5,21.)) ;
#328=CARTESIAN_POINT('Vertex',(15.,27.5,21.)) ;
#331=CARTESIAN_POINT('Line Origine',(13.,27.5,21.)) ;
#343=CARTESIAN_POINT('Axis2P3D Location',(11.,27.5,5.)) ;
#348=CARTESIAN_POINT('Line Origine',(11.,7.5,15.5)) ;
#352=CARTESIAN_POINT('Vertex',(11.,7.5,10.)) ;
#355=CARTESIAN_POINT('Line Origine',(11.,27.5,15.5)) ;
#359=CARTESIAN_POINT('Vertex',(11.,27.5,10.)) ;
#362=CARTESIAN_POINT('Line Origine',(11.,24.995050488,10.)) ;
#366=CARTESIAN_POINT('Vertex',(11.,22.4901009759,10.)) ;
#369=CARTESIAN_POINT('Line Origine',(11.,22.4901009759,12.91575)) ;
#373=CARTESIAN_POINT('Vertex',(11.,22.4901009759,15.8315)) ;
#376=CARTESIAN_POINT('Axis2P3D Location',(11.,17.5,12.5)) ;
#380=CARTESIAN_POINT('Vertex',(11.,12.4901009759,15.8016528843)) ;
#383=CARTESIAN_POINT('Line Origine',(11.,12.4901009759,12.9008264422)) ;
#387=CARTESIAN_POINT('Vertex',(11.,12.4901009759,10.)) ;
#390=CARTESIAN_POINT('Line Origine',(11.,9.99505048797,10.)) ;
#406=CARTESIAN_POINT('Line Origine',(13.,7.5,10.)) ;
#410=CARTESIAN_POINT('Vertex',(15.,7.5,10.)) ;
#413=CARTESIAN_POINT('Line Origine',(15.,7.5,15.5)) ;
#425=CARTESIAN_POINT('Axis2P3D Location',(15.,7.5,5.)) ;
#430=CARTESIAN_POINT('Line Origine',(15.,27.5,15.5)) ;
#434=CARTESIAN_POINT('Vertex',(15.,27.5,10.)) ;
#437=CARTESIAN_POINT('Line Origine',(15.,9.99505048797,10.)) ;
#441=CARTESIAN_POINT('Vertex',(15.,12.4901009759,10.)) ;
#444=CARTESIAN_POINT('Line Origine',(15.,12.4901009759,12.9008264422)) ;
#448=CARTESIAN_POINT('Vertex',(15.,12.4901009759,15.8016528843)) ;
#451=CARTESIAN_POINT('Axis2P3D Location',(15.,17.5,12.5)) ;
#455=CARTESIAN_POINT('Vertex',(15.,22.4901009759,15.8315)) ;
#458=CARTESIAN_POINT('Line Origine',(15.,22.4901009759,12.91575)) ;
#462=CARTESIAN_POINT('Vertex',(15.,22.4901009759,10.)) ;
#465=CARTESIAN_POINT('Line Origine',(15.,24.995050488,10.)) ;
#481=CARTESIAN_POINT('Line Origine',(13.,27.5,10.)) ;
#493=CARTESIAN_POINT('Line Origine',(13.,22.4901009759,10.)) ;
#498=CARTESIAN_POINT('Line Origine',(13.,22.4901009759,15.8315)) ;
#510=CARTESIAN_POINT('Line Origine',(-11.,12.4901009759,15.8016528843)) ;
#522=CARTESIAN_POINT('Line Origine',(13.,12.4901009759,10.)) ;
#534=CARTESIAN_POINT('Axis2P3D Location',(100.,60.,0.)) ;
#539=CARTESIAN_POINT('Line Origine',(100.,-2.84217094304E-014,5.)) ;
#543=CARTESIAN_POINT('Vertex',(100.,1.42108547152E-014,0.)) ;
#545=CARTESIAN_POINT('Vertex',(100.,1.42108547152E-014,10.)) ;
#548=CARTESIAN_POINT('Line Origine',(100.,30.,0.)) ;
#552=CARTESIAN_POINT('Vertex',(100.,60.,0.)) ;
#555=CARTESIAN_POINT('Line Origine',(100.,60.,5.)) ;
#559=CARTESIAN_POINT('Vertex',(100.,60.,10.)) ;
#562=CARTESIAN_POINT('Line Origine',(100.,30.,10.)) ;
#574=CARTESIAN_POINT('Axis2P3D Location',(50.,60.,2.5)) ;
#579=CARTESIAN_POINT('Axis2P3D Location',(50.,60.,0.)) ;
#583=CARTESIAN_POINT('Vertex',(-7.1054273576E-015,60.,0.)) ;
#586=CARTESIAN_POINT('Line Origine',(-7.1054273576E-015,60.,5.)) ;
#590=CARTESIAN_POINT('Vertex',(-7.1054273576E-015,60.,10.)) ;
#593=CARTESIAN_POINT('Axis2P3D Location',(50.,60.,10.)) ;
#605=CARTESIAN_POINT('Axis2P3D Location',(0.,0.,0.)) ;
#610=CARTESIAN_POINT('Line Origine',(0.,30.,0.)) ;
#614=CARTESIAN_POINT('Vertex',(-5.68434188608E-014,2.84217094304E-014,0.)) ;
#617=CARTESIAN_POINT('Line Origine',(0.,0.,5.)) ;
#621=CARTESIAN_POINT('Vertex',(-5.68434188608E-014,2.84217094304E-014,10.)) ;
#624=CARTESIAN_POINT('Line Origine',(0.,30.,10.)) ;
#636=CARTESIAN_POINT('Axis2P3D Location',(50.,120.,2.5)) ;
#641=CARTESIAN_POINT('Axis2P3D Location',(50.,120.,0.)) ;
#646=CARTESIAN_POINT('Axis2P3D Location',(50.,120.,10.)) ;
#658=CARTESIAN_POINT('Axis2P3D Location',(0.,0.,10.)) ;
#694=CARTESIAN_POINT('Axis2P3D Location',(0.,0.,0.)) ;
#707=CARTESIAN_POINT('Axis2P3D Location',(0.,0.,5.)) ;
#712=CARTESIAN_POINT('Axis2P3D Location',(6.,5.,5.)) ;
#716=CARTESIAN_POINT('Vertex',(2.,5.,5.)) ;
#718=CARTESIAN_POINT('Vertex',(10.,5.,5.)) ;
#721=CARTESIAN_POINT('Axis2P3D Location',(6.,5.,5.)) ;
#731=CARTESIAN_POINT('Axis2P3D Location',(6.,5.,3.75)) ;
#736=CARTESIAN_POINT('Axis2P3D Location',(6.,5.,2.5)) ;
#740=CARTESIAN_POINT('Vertex',(10.,5.,2.5)) ;
#742=CARTESIAN_POINT('Vertex',(2.,5.,2.5)) ;
#745=CARTESIAN_POINT('Line Origine',(2.,5.,3.75)) ;
#750=CARTESIAN_POINT('Line Origine',(10.,5.,3.75)) ;
#762=CARTESIAN_POINT('Axis2P3D Location',(6.,5.,2.5)) ;
#774=CARTESIAN_POINT('Axis2P3D Location',(0.,0.,2.5)) ;
#786=CARTESIAN_POINT('Axis2P3D Location',(94.,5.,5.)) ;
#790=CARTESIAN_POINT('Vertex',(90.,5.,5.)) ;
#792=CARTESIAN_POINT('Vertex',(98.,5.,5.)) ;
#795=CARTESIAN_POINT('Axis2P3D Location',(94.,5.,5.)) ;
#805=CARTESIAN_POINT('Axis2P3D Location',(94.,5.,3.75)) ;
#810=CARTESIAN_POINT('Axis2P3D Location',(94.,5.,2.5)) ;
#814=CARTESIAN_POINT('Vertex',(98.,5.,2.5)) ;
#816=CARTESIAN_POINT('Vertex',(90.,5.,2.5)) ;
#819=CARTESIAN_POINT('Line Origine',(90.,5.,3.75)) ;
#824=CARTESIAN_POINT('Line Origine',(98.,5.,3.75)) ;
#836=CARTESIAN_POINT('Axis2P3D Location',(94.,5.,2.5)) ;
#855=CARTESIAN_POINT('Axis2P3D Location',(89.,72.5,5.)) ;
#859=CARTESIAN_POINT('Vertex',(85.,72.5,5.)) ;
#861=CARTESIAN_POINT('Vertex',(93.,72.5,5.)) ;
#864=CARTESIAN_POINT('Axis2P3D Location',(89.,72.5,5.)) ;
#874=CARTESIAN_POINT('Axis2P3D Location',(89.,72.5,3.75)) ;
#879=CARTESIAN_POINT('Axis2P3D Location',(89.,72.5,2.5)) ;
#883=CARTESIAN_POINT('Vertex',(93.,72.5,2.5)) ;
#885=CARTESIAN_POINT('Vertex',(85.,72.5,2.5)) ;
#888=CARTESIAN_POINT('Line Origine',(85.,72.5,3.75)) ;
#893=CARTESIAN_POINT('Line Origine',(93.,72.5,3.75)) ;
#905=CARTESIAN_POINT('Axis2P3D Location',(89.,72.5,2.5)) ;
#924=CARTESIAN_POINT('Axis2P3D Location',(11.,69.7049560547,5.)) ;
#928=CARTESIAN_POINT('Vertex',(7.,69.7049560547,5.)) ;
#930=CARTESIAN_POINT('Vertex',(15.,69.7049560547,5.)) ;
#933=CARTESIAN_POINT('Axis2P3D Location',(11.,69.7049560547,5.)) ;
#943=CARTESIAN_POINT('Axis2P3D Location',(11.,69.7049560547,3.75)) ;
#948=CARTESIAN_POINT('Axis2P3D Location',(11.,69.7049560547,2.5)) ;
#952=CARTESIAN_POINT('Vertex',(15.,69.7049560547,2.5)) ;
#954=CARTESIAN_POINT('Vertex',(7.,69.7049560547,2.5)) ;
#957=CARTESIAN_POINT('Line Origine',(7.,69.7049560547,3.75)) ;
#962=CARTESIAN_POINT('Line Origine',(15.,69.7049560547,3.75)) ;
#974=CARTESIAN_POINT('Axis2P3D Location',(11.,69.7049560547,2.5)) ;
#53=DIRECTION('Axis2P3D Direction',(0.,0.,1.)) ;
#54=DIRECTION('Axis2P3D XDirection',(1.,0.,0.)) ;
#58=DIRECTION('Vector Direction',(0.,-1.,0.)) ;
#67=DIRECTION('Vector Direction',(-1.,0.,0.)) ;
#74=DIRECTION('Vector Direction',(0.,1.,0.)) ;
#81=DIRECTION('Vector Direction',(1.,0.,0.)) ;
#93=DIRECTION('Axis2P3D Direction',(-1.,0.,0.)) ;
#94=DIRECTION('Axis2P3D XDirection',(0.,-1.,0.)) ;
#98=DIRECTION('Vector Direction',(0.,0.,1.)) ;
#105=DIRECTION('Vector Direction',(0.,0.,1.)) ;
#112=DIRECTION('Vector Direction',(0.,-1.,0.)) ;
#119=DIRECTION('Vector Direction',(0.,0.,-1.)) ;
#126=DIRECTION('Axis2P3D Direction',(-1.,0.,0.)) ;
#133=DIRECTION('Vector Direction',(0.,0.,1.)) ;
#140=DIRECTION('Vector Direction',(0.,-1.,0.)) ;
#156=DIRECTION('Axis2P3D Direction',(0.,1.,-0.)) ;
#157=DIRECTION('Axis2P3D XDirection',(-1.,0.,0.)) ;
#161=DIRECTION('Vector Direction',(-1.,0.,0.)) ;
#168=DIRECTION('Vector Direction',(0.,0.,1.)) ;
#180=DIRECTION('Axis2P3D Direction',(1.,0.,0.)) ;
#181=DIRECTION('Axis2P3D XDirection',(0.,1.,0.)) ;
#185=DIRECTION('Vector Direction',(0.,0.,1.)) ;
#192=DIRECTION('Vector Direction',(0.,1.,0.)) ;
#199=DIRECTION('Vector Direction',(0.,0.,1.)) ;
#206=DIRECTION('Axis2P3D Direction',(1.,0.,0.)) ;
#213=DIRECTION('Vector Direction',(0.,0.,-1.)) ;
#220=DIRECTION('Vector Direction',(0.,1.,0.)) ;
#236=DIRECTION('Axis2P3D Direction',(0.,-1.,0.)) ;
#237=DIRECTION('Axis2P3D XDirection',(1.,0.,0.)) ;
#241=DIRECTION('Vector Direction',(1.,0.,0.)) ;
#253=DIRECTION('Axis2P3D Direction',(0.,1.,0.)) ;
#254=DIRECTION('Axis2P3D XDirection',(0.,0.,-1.)) ;
#258=DIRECTION('Vector Direction',(1.,0.,0.)) ;
#263=DIRECTION('Vector Direction',(-1.,0.,0.)) ;
#275=DIRECTION('Axis2P3D Direction',(1.,0.,0.)) ;
#276=DIRECTION('Axis2P3D XDirection',(0.,0.831683495989,0.55525)) ;
#280=DIRECTION('Vector Direction',(1.,0.,0.)) ;
#292=DIRECTION('Axis2P3D Direction',(0.,-1.,0.)) ;
#293=DIRECTION('Axis2P3D XDirection',(0.,0.,1.)) ;
#297=DIRECTION('Vector Direction',(1.,0.,0.)) ;
#309=DIRECTION('Vector Direction',(0.,-1.,0.)) ;
#318=DIRECTION('Vector Direction',(-1.,0.,0.)) ;
#325=DIRECTION('Vector Direction',(0.,1.,0.)) ;
#332=DIRECTION('Vector Direction',(1.,0.,0.)) ;
#344=DIRECTION('Axis2P3D Direction',(-1.,0.,0.)) ;
#345=DIRECTION('Axis2P3D XDirection',(0.,-1.,0.)) ;
#349=DIRECTION('Vector Direction',(0.,0.,1.)) ;
#356=DIRECTION('Vector Direction',(0.,0.,1.)) ;
#363=DIRECTION('Vector Direction',(0.,-1.,0.)) ;
#370=DIRECTION('Vector Direction',(0.,0.,-1.)) ;
#377=DIRECTION('Axis2P3D Direction',(-1.,0.,0.)) ;
#384=DIRECTION('Vector Direction',(0.,0.,1.)) ;
#391=DIRECTION('Vector Direction',(0.,-1.,0.)) ;
#407=DIRECTION('Vector Direction',(-1.,0.,0.)) ;
#414=DIRECTION('Vector Direction',(0.,0.,1.)) ;
#426=DIRECTION('Axis2P3D Direction',(1.,0.,0.)) ;
#427=DIRECTION('Axis2P3D XDirection',(0.,1.,0.)) ;
#431=DIRECTION('Vector Direction',(0.,0.,1.)) ;
#438=DIRECTION('Vector Direction',(0.,1.,0.)) ;
#445=DIRECTION('Vector Direction',(0.,0.,1.)) ;
#452=DIRECTION('Axis2P3D Direction',(1.,0.,0.)) ;
#459=DIRECTION('Vector Direction',(0.,0.,-1.)) ;
#466=DIRECTION('Vector Direction',(0.,1.,0.)) ;
#482=DIRECTION('Vector Direction',(1.,0.,0.)) ;
#494=DIRECTION('Vector Direction',(1.,0.,0.)) ;
#499=DIRECTION('Vector Direction',(-1.,0.,0.)) ;
#511=DIRECTION('Vector Direction',(1.,0.,0.)) ;
#523=DIRECTION('Vector Direction',(1.,0.,0.)) ;
#535=DIRECTION('Axis2P3D Direction',(-1.,0.,0.)) ;
#536=DIRECTION('Axis2P3D XDirection',(0.,-1.,0.)) ;
#540=DIRECTION('Vector Direction',(0.,0.,1.)) ;
#549=DIRECTION('Vector Direction',(0.,-1.,0.)) ;
#556=DIRECTION('Vector Direction',(0.,0.,1.)) ;
#563=DIRECTION('Vector Direction',(0.,-1.,0.)) ;
#575=DIRECTION('Axis2P3D Direction',(0.,0.,1.)) ;
#576=DIRECTION('Axis2P3D XDirection',(1.,0.,0.)) ;
#580=DIRECTION('Axis2P3D Direction',(0.,0.,1.)) ;
#587=DIRECTION('Vector Direction',(0.,0.,1.)) ;
#594=DIRECTION('Axis2P3D Direction',(0.,0.,1.)) ;
#606=DIRECTION('Axis2P3D Direction',(1.,0.,0.)) ;
#607=DIRECTION('Axis2P3D XDirection',(0.,1.,0.)) ;
#611=DIRECTION('Vector Direction',(0.,1.,0.)) ;
#618=DIRECTION('Vector Direction',(0.,0.,1.)) ;
#625=DIRECTION('Vector Direction',(0.,1.,0.)) ;
#637=DIRECTION('Axis2P3D Direction',(0.,0.,1.)) ;
#638=DIRECTION('Axis2P3D XDirection',(-0.384615384615,-0.923076923077,-0.)) ;
#642=DIRECTION('Axis2P3D Direction',(0.,0.,1.)) ;
#647=DIRECTION('Axis2P3D Direction',(0.,0.,1.)) ;
#659=DIRECTION('Axis2P3D Direction',(0.,0.,1.)) ;
#660=DIRECTION('Axis2P3D XDirection',(1.,0.,0.)) ;
#695=DIRECTION('Axis2P3D Direction',(0.,0.,1.)) ;
#696=DIRECTION('Axis2P3D XDirection',(1.,0.,0.)) ;
#708=DIRECTION('Axis2P3D Direction',(0.,0.,1.)) ;
#709=DIRECTION('Axis2P3D XDirection',(1.,0.,0.)) ;
#713=DIRECTION('Axis2P3D Direction',(0.,0.,1.)) ;
#722=DIRECTION('Axis2P3D Direction',(0.,0.,1.)) ;
#732=DIRECTION('Axis2P3D Direction',(0.,0.,1.)) ;
#733=DIRECTION('Axis2P3D XDirection',(1.,0.,0.)) ;
#737=DIRECTION('Axis2P3D Direction',(0.,0.,1.)) ;
#746=DIRECTION('Vector Direction',(0.,0.,1.)) ;
#751=DIRECTION('Vector Direction',(0.,0.,1.)) ;
#763=DIRECTION('Axis2P3D Direction',(0.,0.,1.)) ;
#775=DIRECTION('Axis2P3D Direction',(0.,0.,1.)) ;
#776=DIRECTION('Axis2P3D XDirection',(1.,0.,0.)) ;
#787=DIRECTION('Axis2P3D Direction',(0.,0.,1.)) ;
#796=DIRECTION('Axis2P3D Direction',(0.,0.,1.)) ;
#806=DIRECTION('Axis2P3D Direction',(0.,0.,1.)) ;
#807=DIRECTION('Axis2P3D XDirection',(1.,0.,0.)) ;
#811=DIRECTION('Axis2P3D Direction',(0.,0.,1.)) ;
#820=DIRECTION('Vector Direction',(0.,0.,1.)) ;
#825=DIRECTION('Vector Direction',(0.,0.,1.)) ;
#837=DIRECTION('Axis2P3D Direction',(0.,0.,1.)) ;
#856=DIRECTION('Axis2P3D Direction',(0.,0.,1.)) ;
#865=DIRECTION('Axis2P3D Direction',(0.,0.,1.)) ;
#875=DIRECTION('Axis2P3D Direction',(0.,0.,1.)) ;
#876=DIRECTION('Axis2P3D XDirection',(1.,0.,0.)) ;
#880=DIRECTION('Axis2P3D Direction',(0.,0.,1.)) ;
#889=DIRECTION('Vector Direction',(0.,0.,1.)) ;
#894=DIRECTION('Vector Direction',(0.,0.,1.)) ;
#906=DIRECTION('Axis2P3D Direction',(0.,0.,1.)) ;
#925=DIRECTION('Axis2P3D Direction',(0.,0.,1.)) ;
#934=DIRECTION('Axis2P3D Direction',(0.,0.,1.)) ;
#944=DIRECTION('Axis2P3D Direction',(0.,0.,1.)) ;
#945=DIRECTION('Axis2P3D XDirection',(1.,0.,0.)) ;
#949=DIRECTION('Axis2P3D Direction',(0.,0.,1.)) ;
#958=DIRECTION('Vector Direction',(0.,0.,1.)) ;
#963=DIRECTION('Vector Direction',(0.,0.,1.)) ;
#975=DIRECTION('Axis2P3D Direction',(0.,0.,1.)) ;
#48=AXIS2_PLACEMENT_3D(' ',#47,$,$) ;
#55=AXIS2_PLACEMENT_3D('Plane Axis2P3D',#52,#53,#54) ;
#95=AXIS2_PLACEMENT_3D('Plane Axis2P3D',#92,#93,#94) ;
#127=AXIS2_PLACEMENT_3D('Circle Axis2P3D',#125,#126,$) ;
#158=AXIS2_PLACEMENT_3D('Plane Axis2P3D',#155,#156,#157) ;
#182=AXIS2_PLACEMENT_3D('Plane Axis2P3D',#179,#180,#181) ;
#207=AXIS2_PLACEMENT_3D('Circle Axis2P3D',#205,#206,$) ;
#238=AXIS2_PLACEMENT_3D('Plane Axis2P3D',#235,#236,#237) ;
#255=AXIS2_PLACEMENT_3D('Plane Axis2P3D',#252,#253,#254) ;
#277=AXIS2_PLACEMENT_3D('Cylinder Axis2P3D',#274,#275,#276) ;
#294=AXIS2_PLACEMENT_3D('Plane Axis2P3D',#291,#292,#293) ;
#346=AXIS2_PLACEMENT_3D('Plane Axis2P3D',#343,#344,#345) ;
#378=AXIS2_PLACEMENT_3D('Circle Axis2P3D',#376,#377,$) ;
#428=AXIS2_PLACEMENT_3D('Plane Axis2P3D',#425,#426,#427) ;
#453=AXIS2_PLACEMENT_3D('Circle Axis2P3D',#451,#452,$) ;
#537=AXIS2_PLACEMENT_3D('Plane Axis2P3D',#534,#535,#536) ;
#577=AXIS2_PLACEMENT_3D('Cylinder Axis2P3D',#574,#575,#576) ;
#581=AXIS2_PLACEMENT_3D('Circle Axis2P3D',#579,#580,$) ;
#595=AXIS2_PLACEMENT_3D('Circle Axis2P3D',#593,#594,$) ;
#608=AXIS2_PLACEMENT_3D('Plane Axis2P3D',#605,#606,#607) ;
#639=AXIS2_PLACEMENT_3D('Cylinder Axis2P3D',#636,#637,#638) ;
#643=AXIS2_PLACEMENT_3D('Circle Axis2P3D',#641,#642,$) ;
#648=AXIS2_PLACEMENT_3D('Circle Axis2P3D',#646,#647,$) ;
#661=AXIS2_PLACEMENT_3D('Plane Axis2P3D',#658,#659,#660) ;
#697=AXIS2_PLACEMENT_3D('Plane Axis2P3D',#694,#695,#696) ;
#710=AXIS2_PLACEMENT_3D('Plane Axis2P3D',#707,#708,#709) ;
#714=AXIS2_PLACEMENT_3D('Circle Axis2P3D',#712,#713,$) ;
#723=AXIS2_PLACEMENT_3D('Circle Axis2P3D',#721,#722,$) ;
#734=AXIS2_PLACEMENT_3D('Cylinder Axis2P3D',#731,#732,#733) ;
#738=AXIS2_PLACEMENT_3D('Circle Axis2P3D',#736,#737,$) ;
#764=AXIS2_PLACEMENT_3D('Circle Axis2P3D',#762,#763,$) ;
#777=AXIS2_PLACEMENT_3D('Plane Axis2P3D',#774,#775,#776) ;
#788=AXIS2_PLACEMENT_3D('Circle Axis2P3D',#786,#787,$) ;
#797=AXIS2_PLACEMENT_3D('Circle Axis2P3D',#795,#796,$) ;
#808=AXIS2_PLACEMENT_3D('Cylinder Axis2P3D',#805,#806,#807) ;
#812=AXIS2_PLACEMENT_3D('Circle Axis2P3D',#810,#811,$) ;
#838=AXIS2_PLACEMENT_3D('Circle Axis2P3D',#836,#837,$) ;
#857=AXIS2_PLACEMENT_3D('Circle Axis2P3D',#855,#856,$) ;
#866=AXIS2_PLACEMENT_3D('Circle Axis2P3D',#864,#865,$) ;
#877=AXIS2_PLACEMENT_3D('Cylinder Axis2P3D',#874,#875,#876) ;
#881=AXIS2_PLACEMENT_3D('Circle Axis2P3D',#879,#880,$) ;
#907=AXIS2_PLACEMENT_3D('Circle Axis2P3D',#905,#906,$) ;
#926=AXIS2_PLACEMENT_3D('Circle Axis2P3D',#924,#925,$) ;
#935=AXIS2_PLACEMENT_3D('Circle Axis2P3D',#933,#934,$) ;
#946=AXIS2_PLACEMENT_3D('Cylinder Axis2P3D',#943,#944,#945) ;
#950=AXIS2_PLACEMENT_3D('Circle Axis2P3D',#948,#949,$) ;
#976=AXIS2_PLACEMENT_3D('Circle Axis2P3D',#974,#975,$) ;
#40=PRODUCT_DEFINITION_SHAPE(' ',' ',#14) ;
#31=APPROVAL_PERSON_ORGANIZATION(#25,#21,#19) ;
#25=PERSON_AND_ORGANIZATION(#22,#23) ;
#22=PERSON(' ',' ',' ',$,$,$) ;
#23=ORGANIZATION(' ',' ',' ') ;
#21=APPROVAL(#20,' ') ;
#20=APPROVAL_STATUS('not_yet_approved') ;
#19=APPROVAL_ROLE('APPROVER') ;
#13=DATE_AND_TIME(#11,#12) ;
#12=LOCAL_TIME(23,24,55.,#10) ;
#10=COORDINATED_UNIVERSAL_TIME_OFFSET(0,0,.AHEAD.) ;
#86=ORIENTED_EDGE('',*,*,#65,.T.) ;
#87=ORIENTED_EDGE('',*,*,#72,.T.) ;
#88=ORIENTED_EDGE('',*,*,#79,.T.) ;
#89=ORIENTED_EDGE('',*,*,#84,.T.) ;
#145=ORIENTED_EDGE('',*,*,#103,.T.) ;
#146=ORIENTED_EDGE('',*,*,#65,.F.) ;
#147=ORIENTED_EDGE('',*,*,#110,.F.) ;
#148=ORIENTED_EDGE('',*,*,#117,.T.) ;
#149=ORIENTED_EDGE('',*,*,#124,.F.) ;
#150=ORIENTED_EDGE('',*,*,#131,.F.) ;
#151=ORIENTED_EDGE('',*,*,#138,.F.) ;
#152=ORIENTED_EDGE('',*,*,#143,.T.) ;
#173=ORIENTED_EDGE('',*,*,#166,.F.) ;
#174=ORIENTED_EDGE('',*,*,#171,.T.) ;
#175=ORIENTED_EDGE('',*,*,#72,.F.) ;
#176=ORIENTED_EDGE('',*,*,#103,.F.) ;
#225=ORIENTED_EDGE('',*,*,#190,.T.) ;
#226=ORIENTED_EDGE('',*,*,#79,.F.) ;
#227=ORIENTED_EDGE('',*,*,#171,.F.) ;
#228=ORIENTED_EDGE('',*,*,#197,.T.) ;
#229=ORIENTED_EDGE('',*,*,#204,.F.) ;
#230=ORIENTED_EDGE('',*,*,#211,.F.) ;
#231=ORIENTED_EDGE('',*,*,#218,.F.) ;
#232=ORIENTED_EDGE('',*,*,#223,.T.) ;
#246=ORIENTED_EDGE('',*,*,#244,.F.) ;
#247=ORIENTED_EDGE('',*,*,#110,.T.) ;
#248=ORIENTED_EDGE('',*,*,#84,.F.) ;
#249=ORIENTED_EDGE('',*,*,#190,.F.) ;
#268=ORIENTED_EDGE('',*,*,#261,.T.) ;
#269=ORIENTED_EDGE('',*,*,#218,.T.) ;
#270=ORIENTED_EDGE('',*,*,#266,.T.) ;
#271=ORIENTED_EDGE('',*,*,#124,.T.) ;
#285=ORIENTED_EDGE('',*,*,#131,.T.) ;
#286=ORIENTED_EDGE('',*,*,#266,.F.) ;
#287=ORIENTED_EDGE('',*,*,#211,.T.) ;
#288=ORIENTED_EDGE('',*,*,#283,.T.) ;
#302=ORIENTED_EDGE('',*,*,#300,.F.) ;
#303=ORIENTED_EDGE('',*,*,#138,.T.) ;
#304=ORIENTED_EDGE('',*,*,#283,.F.) ;
#305=ORIENTED_EDGE('',*,*,#204,.T.) ;
#337=ORIENTED_EDGE('',*,*,#316,.T.) ;
#338=ORIENTED_EDGE('',*,*,#323,.T.) ;
#339=ORIENTED_EDGE('',*,*,#330,.T.) ;
#340=ORIENTED_EDGE('',*,*,#335,.T.) ;
#396=ORIENTED_EDGE('',*,*,#354,.T.) ;
#397=ORIENTED_EDGE('',*,*,#316,.F.) ;
#398=ORIENTED_EDGE('',*,*,#361,.F.) ;
#399=ORIENTED_EDGE('',*,*,#368,.T.) ;
#400=ORIENTED_EDGE('',*,*,#375,.F.) ;
#401=ORIENTED_EDGE('',*,*,#382,.F.) ;
#402=ORIENTED_EDGE('',*,*,#389,.F.) ;
#403=ORIENTED_EDGE('',*,*,#394,.T.) ;
#419=ORIENTED_EDGE('',*,*,#412,.F.) ;
#420=ORIENTED_EDGE('',*,*,#417,.T.) ;
#421=ORIENTED_EDGE('',*,*,#323,.F.) ;
#422=ORIENTED_EDGE('',*,*,#354,.F.) ;
#471=ORIENTED_EDGE('',*,*,#436,.T.) ;
#472=ORIENTED_EDGE('',*,*,#330,.F.) ;
#473=ORIENTED_EDGE('',*,*,#417,.F.) ;
#474=ORIENTED_EDGE('',*,*,#443,.T.) ;
#475=ORIENTED_EDGE('',*,*,#450,.T.) ;
#476=ORIENTED_EDGE('',*,*,#457,.F.) ;
#477=ORIENTED_EDGE('',*,*,#464,.T.) ;
#478=ORIENTED_EDGE('',*,*,#469,.T.) ;
#487=ORIENTED_EDGE('',*,*,#485,.F.) ;
#488=ORIENTED_EDGE('',*,*,#361,.T.) ;
#489=ORIENTED_EDGE('',*,*,#335,.F.) ;
#490=ORIENTED_EDGE('',*,*,#436,.F.) ;
#504=ORIENTED_EDGE('',*,*,#497,.T.) ;
#505=ORIENTED_EDGE('',*,*,#464,.F.) ;
#506=ORIENTED_EDGE('',*,*,#502,.T.) ;
#507=ORIENTED_EDGE('',*,*,#375,.T.) ;
#516=ORIENTED_EDGE('',*,*,#514,.T.) ;
#517=ORIENTED_EDGE('',*,*,#382,.T.) ;
#518=ORIENTED_EDGE('',*,*,#502,.F.) ;
#519=ORIENTED_EDGE('',*,*,#457,.T.) ;
#528=ORIENTED_EDGE('',*,*,#526,.F.) ;
#529=ORIENTED_EDGE('',*,*,#389,.T.) ;
#530=ORIENTED_EDGE('',*,*,#514,.F.) ;
#531=ORIENTED_EDGE('',*,*,#450,.F.) ;
#568=ORIENTED_EDGE('',*,*,#547,.F.) ;
#569=ORIENTED_EDGE('',*,*,#554,.T.) ;
#570=ORIENTED_EDGE('',*,*,#561,.T.) ;
#571=ORIENTED_EDGE('',*,*,#566,.F.) ;
#599=ORIENTED_EDGE('',*,*,#561,.F.) ;
#600=ORIENTED_EDGE('',*,*,#585,.T.) ;
#601=ORIENTED_EDGE('',*,*,#592,.T.) ;
#602=ORIENTED_EDGE('',*,*,#597,.F.) ;
#630=ORIENTED_EDGE('',*,*,#592,.F.) ;
#631=ORIENTED_EDGE('',*,*,#616,.T.) ;
#632=ORIENTED_EDGE('',*,*,#623,.T.) ;
#633=ORIENTED_EDGE('',*,*,#628,.F.) ;
#652=ORIENTED_EDGE('',*,*,#623,.F.) ;
#653=ORIENTED_EDGE('',*,*,#645,.T.) ;
#654=ORIENTED_EDGE('',*,*,#547,.T.) ;
#655=ORIENTED_EDGE('',*,*,#650,.F.) ;
#664=ORIENTED_EDGE('',*,*,#650,.T.) ;
#665=ORIENTED_EDGE('',*,*,#566,.T.) ;
#666=ORIENTED_EDGE('',*,*,#597,.T.) ;
#667=ORIENTED_EDGE('',*,*,#628,.T.) ;
#670=ORIENTED_EDGE('',*,*,#117,.F.) ;
#671=ORIENTED_EDGE('',*,*,#244,.T.) ;
#672=ORIENTED_EDGE('',*,*,#223,.F.) ;
#673=ORIENTED_EDGE('',*,*,#261,.F.) ;
#676=ORIENTED_EDGE('',*,*,#300,.T.) ;
#677=ORIENTED_EDGE('',*,*,#197,.F.) ;
#678=ORIENTED_EDGE('',*,*,#166,.T.) ;
#679=ORIENTED_EDGE('',*,*,#143,.F.) ;
#682=ORIENTED_EDGE('',*,*,#368,.F.) ;
#683=ORIENTED_EDGE('',*,*,#485,.T.) ;
#684=ORIENTED_EDGE('',*,*,#469,.F.) ;
#685=ORIENTED_EDGE('',*,*,#497,.F.) ;
#688=ORIENTED_EDGE('',*,*,#526,.T.) ;
#689=ORIENTED_EDGE('',*,*,#443,.F.) ;
#690=ORIENTED_EDGE('',*,*,#412,.T.) ;
#691=ORIENTED_EDGE('',*,*,#394,.F.) ;
#700=ORIENTED_EDGE('',*,*,#616,.F.) ;
#701=ORIENTED_EDGE('',*,*,#585,.F.) ;
#702=ORIENTED_EDGE('',*,*,#554,.F.) ;
#703=ORIENTED_EDGE('',*,*,#645,.F.) ;
#727=ORIENTED_EDGE('',*,*,#720,.T.) ;
#728=ORIENTED_EDGE('',*,*,#725,.T.) ;
#756=ORIENTED_EDGE('',*,*,#744,.T.) ;
#757=ORIENTED_EDGE('',*,*,#749,.F.) ;
#758=ORIENTED_EDGE('',*,*,#725,.F.) ;
#759=ORIENTED_EDGE('',*,*,#754,.T.) ;
#768=ORIENTED_EDGE('',*,*,#766,.T.) ;
#769=ORIENTED_EDGE('',*,*,#754,.F.) ;
#770=ORIENTED_EDGE('',*,*,#720,.F.) ;
#771=ORIENTED_EDGE('',*,*,#749,.T.) ;
#780=ORIENTED_EDGE('',*,*,#766,.F.) ;
#781=ORIENTED_EDGE('',*,*,#744,.F.) ;
#801=ORIENTED_EDGE('',*,*,#794,.T.) ;
#802=ORIENTED_EDGE('',*,*,#799,.T.) ;
#830=ORIENTED_EDGE('',*,*,#818,.T.) ;
#831=ORIENTED_EDGE('',*,*,#823,.F.) ;
#832=ORIENTED_EDGE('',*,*,#799,.F.) ;
#833=ORIENTED_EDGE('',*,*,#828,.T.) ;
#842=ORIENTED_EDGE('',*,*,#840,.T.) ;
#843=ORIENTED_EDGE('',*,*,#828,.F.) ;
#844=ORIENTED_EDGE('',*,*,#794,.F.) ;
#845=ORIENTED_EDGE('',*,*,#823,.T.) ;
#849=ORIENTED_EDGE('',*,*,#840,.F.) ;
#850=ORIENTED_EDGE('',*,*,#818,.F.) ;
#870=ORIENTED_EDGE('',*,*,#863,.T.) ;
#871=ORIENTED_EDGE('',*,*,#868,.T.) ;
#899=ORIENTED_EDGE('',*,*,#887,.T.) ;
#900=ORIENTED_EDGE('',*,*,#892,.F.) ;
#901=ORIENTED_EDGE('',*,*,#868,.F.) ;
#902=ORIENTED_EDGE('',*,*,#897,.T.) ;
#911=ORIENTED_EDGE('',*,*,#909,.T.) ;
#912=ORIENTED_EDGE('',*,*,#897,.F.) ;
#913=ORIENTED_EDGE('',*,*,#863,.F.) ;
#914=ORIENTED_EDGE('',*,*,#892,.T.) ;
#918=ORIENTED_EDGE('',*,*,#909,.F.) ;
#919=ORIENTED_EDGE('',*,*,#887,.F.) ;
#939=ORIENTED_EDGE('',*,*,#932,.T.) ;
#940=ORIENTED_EDGE('',*,*,#937,.T.) ;
#968=ORIENTED_EDGE('',*,*,#956,.T.) ;
#969=ORIENTED_EDGE('',*,*,#961,.F.) ;
#970=ORIENTED_EDGE('',*,*,#937,.F.) ;
#971=ORIENTED_EDGE('',*,*,#966,.T.) ;
#980=ORIENTED_EDGE('',*,*,#978,.T.) ;
#981=ORIENTED_EDGE('',*,*,#966,.F.) ;
#982=ORIENTED_EDGE('',*,*,#932,.F.) ;
#983=ORIENTED_EDGE('',*,*,#961,.T.) ;
#987=ORIENTED_EDGE('',*,*,#978,.F.) ;
#988=ORIENTED_EDGE('',*,*,#956,.F.) ;
#674=FACE_BOUND('',#669,.T.) ;
#680=FACE_BOUND('',#675,.T.) ;
#686=FACE_BOUND('',#681,.T.) ;
#692=FACE_BOUND('',#687,.T.) ;
#51=CLOSED_SHELL('Closed Shell',(#91,#154,#178,#234,#251,#273,#290,#307,#342,#405,#424,#480,#492,#509,#521,#533,#573,#604,#635,#657,#693,#705)) ;
#784=CLOSED_SHELL('Oriented Closed Shell',(#730,#761,#773,#783)) ;
#853=CLOSED_SHELL('Oriented Closed Shell',(#804,#835,#847,#852)) ;
#922=CLOSED_SHELL('Oriented Closed Shell',(#873,#904,#916,#921)) ;
#991=CLOSED_SHELL('Oriented Closed Shell',(#942,#973,#985,#990)) ;
#59=VECTOR('Line Direction',#58,1.) ;
#68=VECTOR('Line Direction',#67,1.) ;
#75=VECTOR('Line Direction',#74,1.) ;
#82=VECTOR('Line Direction',#81,1.) ;
#99=VECTOR('Line Direction',#98,1.) ;
#106=VECTOR('Line Direction',#105,1.) ;
#113=VECTOR('Line Direction',#112,1.) ;
#120=VECTOR('Line Direction',#119,1.) ;
#134=VECTOR('Line Direction',#133,1.) ;
#141=VECTOR('Line Direction',#140,1.) ;
#162=VECTOR('Line Direction',#161,1.) ;
#169=VECTOR('Line Direction',#168,1.) ;
#186=VECTOR('Line Direction',#185,1.) ;
#193=VECTOR('Line Direction',#192,1.) ;
#200=VECTOR('Line Direction',#199,1.) ;
#214=VECTOR('Line Direction',#213,1.) ;
#221=VECTOR('Line Direction',#220,1.) ;
#242=VECTOR('Line Direction',#241,1.) ;
#259=VECTOR('Line Direction',#258,1.) ;
#264=VECTOR('Line Direction',#263,1.) ;
#281=VECTOR('Line Direction',#280,1.) ;
#298=VECTOR('Line Direction',#297,1.) ;
#310=VECTOR('Line Direction',#309,1.) ;
#319=VECTOR('Line Direction',#318,1.) ;
#326=VECTOR('Line Direction',#325,1.) ;
#333=VECTOR('Line Direction',#332,1.) ;
#350=VECTOR('Line Direction',#349,1.) ;
#357=VECTOR('Line Direction',#356,1.) ;
#364=VECTOR('Line Direction',#363,1.) ;
#371=VECTOR('Line Direction',#370,1.) ;
#385=VECTOR('Line Direction',#384,1.) ;
#392=VECTOR('Line Direction',#391,1.) ;
#408=VECTOR('Line Direction',#407,1.) ;
#415=VECTOR('Line Direction',#414,1.) ;
#432=VECTOR('Line Direction',#431,1.) ;
#439=VECTOR('Line Direction',#438,1.) ;
#446=VECTOR('Line Direction',#445,1.) ;
#460=VECTOR('Line Direction',#459,1.) ;
#467=VECTOR('Line Direction',#466,1.) ;
#483=VECTOR('Line Direction',#482,1.) ;
#495=VECTOR('Line Direction',#494,1.) ;
#500=VECTOR('Line Direction',#499,1.) ;
#512=VECTOR('Line Direction',#511,1.) ;
#524=VECTOR('Line Direction',#523,1.) ;
#541=VECTOR('Line Direction',#540,1.) ;
#550=VECTOR('Line Direction',#549,1.) ;
#557=VECTOR('Line Direction',#556,1.) ;
#564=VECTOR('Line Direction',#563,1.) ;
#588=VECTOR('Line Direction',#587,1.) ;
#612=VECTOR('Line Direction',#611,1.) ;
#619=VECTOR('Line Direction',#618,1.) ;
#626=VECTOR('Line Direction',#625,1.) ;
#747=VECTOR('Line Direction',#746,1.) ;
#752=VECTOR('Line Direction',#751,1.) ;
#821=VECTOR('Line Direction',#820,1.) ;
#826=VECTOR('Line Direction',#825,1.) ;
#890=VECTOR('Line Direction',#889,1.) ;
#895=VECTOR('Line Direction',#894,1.) ;
#959=VECTOR('Line Direction',#958,1.) ;
#964=VECTOR('Line Direction',#963,1.) ;
#993=ADVANCED_BREP_SHAPE_REPRESENTATION('NONE',(#992),#46) ;
#49=SHAPE_REPRESENTATION(' ',(#48),#46) ;
#91=ADVANCED_FACE('PartBody',(#90),#56,.T.) ;
#154=ADVANCED_FACE('PartBody',(#153),#96,.T.) ;
#178=ADVANCED_FACE('PartBody',(#177),#159,.F.) ;
#234=ADVANCED_FACE('PartBody',(#233),#183,.T.) ;
#251=ADVANCED_FACE('PartBody',(#250),#239,.F.) ;
#273=ADVANCED_FACE('PartBody',(#272),#256,.F.) ;
#290=ADVANCED_FACE('PartBody',(#289),#278,.F.) ;
#307=ADVANCED_FACE('PartBody',(#306),#295,.F.) ;
#342=ADVANCED_FACE('PartBody',(#341),#56,.T.) ;
#405=ADVANCED_FACE('PartBody',(#404),#347,.T.) ;
#424=ADVANCED_FACE('PartBody',(#423),#159,.F.) ;
#480=ADVANCED_FACE('PartBody',(#479),#429,.T.) ;
#492=ADVANCED_FACE('PartBody',(#491),#239,.F.) ;
#509=ADVANCED_FACE('PartBody',(#508),#256,.F.) ;
#521=ADVANCED_FACE('PartBody',(#520),#278,.F.) ;
#533=ADVANCED_FACE('PartBody',(#532),#295,.F.) ;
#573=ADVANCED_FACE('PartBody',(#572),#538,.F.) ;
#604=ADVANCED_FACE('PartBody',(#603),#578,.T.) ;
#635=ADVANCED_FACE('PartBody',(#634),#609,.F.) ;
#657=ADVANCED_FACE('PartBody',(#656),#640,.T.) ;
#693=ADVANCED_FACE('PartBody',(#668,#674,#680,#686,#692),#662,.T.) ;
#705=ADVANCED_FACE('PartBody',(#704),#698,.F.) ;
#730=ADVANCED_FACE('PartBody',(#729),#711,.T.) ;
#761=ADVANCED_FACE('PartBody',(#760),#735,.T.) ;
#773=ADVANCED_FACE('PartBody',(#772),#735,.T.) ;
#783=ADVANCED_FACE('PartBody',(#782),#778,.F.) ;
#804=ADVANCED_FACE('PartBody',(#803),#711,.T.) ;
#835=ADVANCED_FACE('PartBody',(#834),#809,.T.) ;
#847=ADVANCED_FACE('PartBody',(#846),#809,.T.) ;
#852=ADVANCED_FACE('PartBody',(#851),#778,.F.) ;
#873=ADVANCED_FACE('PartBody',(#872),#711,.T.) ;
#904=ADVANCED_FACE('PartBody',(#903),#878,.T.) ;
#916=ADVANCED_FACE('PartBody',(#915),#878,.T.) ;
#921=ADVANCED_FACE('PartBody',(#920),#778,.F.) ;
#942=ADVANCED_FACE('PartBody',(#941),#711,.T.) ;
#973=ADVANCED_FACE('PartBody',(#972),#947,.T.) ;
#985=ADVANCED_FACE('PartBody',(#984),#947,.T.) ;
#990=ADVANCED_FACE('PartBody',(#989),#778,.F.) ;
#4=APPLICATION_PROTOCOL_DEFINITION('international standard','config_control_design',1994,#1) ;
#32=APPROVAL_DATE_TIME(#13,#21) ;
#992=BREP_WITH_VOIDS('Brep With Voids',#51,(#706,#785,#854,#923)) ;
#706=ORIENTED_CLOSED_SHELL('Oriented Closed Shell',*,#784,.F.) ;
#785=ORIENTED_CLOSED_SHELL('Oriented Closed Shell',*,#853,.F.) ;
#854=ORIENTED_CLOSED_SHELL('Oriented Closed Shell',*,#922,.F.) ;
#923=ORIENTED_CLOSED_SHELL('Oriented Closed Shell',*,#991,.F.) ;
#11=CALENDAR_DATE(2026,28,9) ;
#30=CC_DESIGN_APPROVAL(#21,(#16,#6,#14)) ;
#18=CC_DESIGN_DATE_AND_TIME_ASSIGNMENT(#13,#17,(#16)) ;
#29=CC_DESIGN_DATE_AND_TIME_ASSIGNMENT(#13,#28,(#14)) ;
#17=DATE_TIME_ROLE('classification_date') ;
#28=DATE_TIME_ROLE('creation_date') ;
#27=CC_DESIGN_PERSON_AND_ORGANIZATION_ASSIGNMENT(#25,#26,(#16)) ;
#33=CC_DESIGN_PERSON_AND_ORGANIZATION_ASSIGNMENT(#25,#34,(#6)) ;
#35=CC_DESIGN_PERSON_AND_ORGANIZATION_ASSIGNMENT(#25,#36,(#6,#14)) ;
#37=CC_DESIGN_PERSON_AND_ORGANIZATION_ASSIGNMENT(#25,#38,(#5)) ;
#26=PERSON_AND_ORGANIZATION_ROLE('classification_officer') ;
#34=PERSON_AND_ORGANIZATION_ROLE('design_supplier') ;
#36=PERSON_AND_ORGANIZATION_ROLE('creator') ;
#38=PERSON_AND_ORGANIZATION_ROLE('design_owner') ;
#39=CC_DESIGN_SECURITY_CLASSIFICATION(#16,(#6)) ;
#128=CIRCLE('generated circle',#127,6.) ;
#208=CIRCLE('generated circle',#207,6.) ;
#379=CIRCLE('generated circle',#378,6.) ;
#454=CIRCLE('generated circle',#453,6.) ;
#582=CIRCLE('generated circle',#581,50.) ;
#596=CIRCLE('generated circle',#595,50.) ;
#644=CIRCLE('generated circle',#643,130.) ;
#649=CIRCLE('generated circle',#648,130.) ;
#715=CIRCLE('generated circle',#714,4.) ;
#724=CIRCLE('generated circle',#723,4.) ;
#739=CIRCLE('generated circle',#738,4.) ;
#765=CIRCLE('generated circle',#764,4.) ;
#789=CIRCLE('generated circle',#788,4.) ;
#798=CIRCLE('generated circle',#797,4.) ;
#813=CIRCLE('generated circle',#812,4.) ;
#839=CIRCLE('generated circle',#838,4.) ;
#858=CIRCLE('generated circle',#857,4.) ;
#867=CIRCLE('generated circle',#866,4.) ;
#882=CIRCLE('generated circle',#881,4.) ;
#908=CIRCLE('generated circle',#907,4.) ;
#927=CIRCLE('generated circle',#926,4.) ;
#936=CIRCLE('generated circle',#935,4.) ;
#951=CIRCLE('generated circle',#950,4.) ;
#977=CIRCLE('generated circle',#976,4.) ;
#994=SHAPE_REPRESENTATION_RELATIONSHIP(' ',' ',#49,#993) ;
#278=CYLINDRICAL_SURFACE('generated cylinder',#277,6.) ;
#578=CYLINDRICAL_SURFACE('generated cylinder',#577,50.) ;
#640=CYLINDRICAL_SURFACE('generated cylinder',#639,130.) ;
#735=CYLINDRICAL_SURFACE('generated cylinder',#734,4.) ;
#809=CYLINDRICAL_SURFACE('generated cylinder',#808,4.) ;
#878=CYLINDRICAL_SURFACE('generated cylinder',#877,4.) ;
#947=CYLINDRICAL_SURFACE('generated cylinder',#946,4.) ;
#3=DESIGN_CONTEXT(' ',#1,'design') ;
#65=EDGE_CURVE('',#62,#64,#60,.T.) ;
#72=EDGE_CURVE('',#64,#71,#69,.F.) ;
#79=EDGE_CURVE('',#71,#78,#76,.T.) ;
#84=EDGE_CURVE('',#78,#62,#83,.F.) ;
#103=EDGE_CURVE('',#102,#64,#100,.T.) ;
#110=EDGE_CURVE('',#109,#62,#107,.T.) ;
#117=EDGE_CURVE('',#109,#116,#114,.T.) ;
#124=EDGE_CURVE('',#123,#116,#121,.T.) ;
#131=EDGE_CURVE('',#130,#123,#128,.T.) ;
#138=EDGE_CURVE('',#137,#130,#135,.T.) ;
#143=EDGE_CURVE('',#137,#102,#142,.T.) ;
#166=EDGE_CURVE('',#165,#102,#163,.T.) ;
#171=EDGE_CURVE('',#165,#71,#170,.T.) ;
#190=EDGE_CURVE('',#189,#78,#187,.T.) ;
#197=EDGE_CURVE('',#165,#196,#194,.T.) ;
#204=EDGE_CURVE('',#203,#196,#201,.F.) ;
#211=EDGE_CURVE('',#210,#203,#208,.T.) ;
#218=EDGE_CURVE('',#217,#210,#215,.F.) ;
#223=EDGE_CURVE('',#217,#189,#222,.T.) ;
#244=EDGE_CURVE('',#109,#189,#243,.T.) ;
#261=EDGE_CURVE('',#116,#217,#260,.T.) ;
#266=EDGE_CURVE('',#210,#123,#265,.T.) ;
#283=EDGE_CURVE('',#203,#130,#282,.F.) ;
#300=EDGE_CURVE('',#137,#196,#299,.T.) ;
#316=EDGE_CURVE('',#313,#315,#311,.T.) ;
#323=EDGE_CURVE('',#315,#322,#320,.F.) ;
#330=EDGE_CURVE('',#322,#329,#327,.T.) ;
#335=EDGE_CURVE('',#329,#313,#334,.F.) ;
#354=EDGE_CURVE('',#353,#315,#351,.T.) ;
#361=EDGE_CURVE('',#360,#313,#358,.T.) ;
#368=EDGE_CURVE('',#360,#367,#365,.T.) ;
#375=EDGE_CURVE('',#374,#367,#372,.T.) ;
#382=EDGE_CURVE('',#381,#374,#379,.T.) ;
#389=EDGE_CURVE('',#388,#381,#386,.T.) ;
#394=EDGE_CURVE('',#388,#353,#393,.T.) ;
#412=EDGE_CURVE('',#411,#353,#409,.T.) ;
#417=EDGE_CURVE('',#411,#322,#416,.T.) ;
#436=EDGE_CURVE('',#435,#329,#433,.T.) ;
#443=EDGE_CURVE('',#411,#442,#440,.T.) ;
#450=EDGE_CURVE('',#442,#449,#447,.T.) ;
#457=EDGE_CURVE('',#456,#449,#454,.T.) ;
#464=EDGE_CURVE('',#456,#463,#461,.T.) ;
#469=EDGE_CURVE('',#463,#435,#468,.T.) ;
#485=EDGE_CURVE('',#360,#435,#484,.T.) ;
#497=EDGE_CURVE('',#367,#463,#496,.T.) ;
#502=EDGE_CURVE('',#456,#374,#501,.T.) ;
#514=EDGE_CURVE('',#449,#381,#513,.F.) ;
#526=EDGE_CURVE('',#388,#442,#525,.T.) ;
#547=EDGE_CURVE('',#544,#546,#542,.T.) ;
#554=EDGE_CURVE('',#544,#553,#551,.F.) ;
#561=EDGE_CURVE('',#553,#560,#558,.T.) ;
#566=EDGE_CURVE('',#546,#560,#565,.F.) ;
#585=EDGE_CURVE('',#553,#584,#582,.T.) ;
#592=EDGE_CURVE('',#584,#591,#589,.T.) ;
#597=EDGE_CURVE('',#560,#591,#596,.T.) ;
#616=EDGE_CURVE('',#584,#615,#613,.F.) ;
#623=EDGE_CURVE('',#615,#622,#620,.T.) ;
#628=EDGE_CURVE('',#591,#622,#627,.F.) ;
#645=EDGE_CURVE('',#615,#544,#644,.T.) ;
#650=EDGE_CURVE('',#622,#546,#649,.T.) ;
#720=EDGE_CURVE('',#717,#719,#715,.T.) ;
#725=EDGE_CURVE('',#719,#717,#724,.T.) ;
#744=EDGE_CURVE('',#741,#743,#739,.T.) ;
#749=EDGE_CURVE('',#717,#743,#748,.F.) ;
#754=EDGE_CURVE('',#719,#741,#753,.F.) ;
#766=EDGE_CURVE('',#743,#741,#765,.T.) ;
#794=EDGE_CURVE('',#791,#793,#789,.T.) ;
#799=EDGE_CURVE('',#793,#791,#798,.T.) ;
#818=EDGE_CURVE('',#815,#817,#813,.T.) ;
#823=EDGE_CURVE('',#791,#817,#822,.F.) ;
#828=EDGE_CURVE('',#793,#815,#827,.F.) ;
#840=EDGE_CURVE('',#817,#815,#839,.T.) ;
#863=EDGE_CURVE('',#860,#862,#858,.T.) ;
#868=EDGE_CURVE('',#862,#860,#867,.T.) ;
#887=EDGE_CURVE('',#884,#886,#882,.T.) ;
#892=EDGE_CURVE('',#860,#886,#891,.F.) ;
#897=EDGE_CURVE('',#862,#884,#896,.F.) ;
#909=EDGE_CURVE('',#886,#884,#908,.T.) ;
#932=EDGE_CURVE('',#929,#931,#927,.T.) ;
#937=EDGE_CURVE('',#931,#929,#936,.T.) ;
#956=EDGE_CURVE('',#953,#955,#951,.T.) ;
#961=EDGE_CURVE('',#929,#955,#960,.F.) ;
#966=EDGE_CURVE('',#931,#953,#965,.F.) ;
#978=EDGE_CURVE('',#955,#953,#977,.T.) ;
#85=EDGE_LOOP('',(#86,#87,#88,#89)) ;
#144=EDGE_LOOP('',(#145,#146,#147,#148,#149,#150,#151,#152)) ;
#172=EDGE_LOOP('',(#173,#174,#175,#176)) ;
#224=EDGE_LOOP('',(#225,#226,#227,#228,#229,#230,#231,#232)) ;
#245=EDGE_LOOP('',(#246,#247,#248,#249)) ;
#267=EDGE_LOOP('',(#268,#269,#270,#271)) ;
#284=EDGE_LOOP('',(#285,#286,#287,#288)) ;
#301=EDGE_LOOP('',(#302,#303,#304,#305)) ;
#336=EDGE_LOOP('',(#337,#338,#339,#340)) ;
#395=EDGE_LOOP('',(#396,#397,#398,#399,#400,#401,#402,#403)) ;
#418=EDGE_LOOP('',(#419,#420,#421,#422)) ;
#470=EDGE_LOOP('',(#471,#472,#473,#474,#475,#476,#477,#478)) ;
#486=EDGE_LOOP('',(#487,#488,#489,#490)) ;
#503=EDGE_LOOP('',(#504,#505,#506,#507)) ;
#515=EDGE_LOOP('',(#516,#517,#518,#519)) ;
#527=EDGE_LOOP('',(#528,#529,#530,#531)) ;
#567=EDGE_LOOP('',(#568,#569,#570,#571)) ;
#598=EDGE_LOOP('',(#599,#600,#601,#602)) ;
#629=EDGE_LOOP('',(#630,#631,#632,#633)) ;
#651=EDGE_LOOP('',(#652,#653,#654,#655)) ;
#663=EDGE_LOOP('',(#664,#665,#666,#667)) ;
#669=EDGE_LOOP('',(#670,#671,#672,#673)) ;
#675=EDGE_LOOP('',(#676,#677,#678,#679)) ;
#681=EDGE_LOOP('',(#682,#683,#684,#685)) ;
#687=EDGE_LOOP('',(#688,#689,#690,#691)) ;
#699=EDGE_LOOP('',(#700,#701,#702,#703)) ;
#726=EDGE_LOOP('',(#727,#728)) ;
#755=EDGE_LOOP('',(#756,#757,#758,#759)) ;
#767=EDGE_LOOP('',(#768,#769,#770,#771)) ;
#779=EDGE_LOOP('',(#780,#781)) ;
#800=EDGE_LOOP('',(#801,#802)) ;
#829=EDGE_LOOP('',(#830,#831,#832,#833)) ;
#841=EDGE_LOOP('',(#842,#843,#844,#845)) ;
#848=EDGE_LOOP('',(#849,#850)) ;
#869=EDGE_LOOP('',(#870,#871)) ;
#898=EDGE_LOOP('',(#899,#900,#901,#902)) ;
#910=EDGE_LOOP('',(#911,#912,#913,#914)) ;
#917=EDGE_LOOP('',(#918,#919)) ;
#938=EDGE_LOOP('',(#939,#940)) ;
#967=EDGE_LOOP('',(#968,#969,#970,#971)) ;
#979=EDGE_LOOP('',(#980,#981,#982,#983)) ;
#986=EDGE_LOOP('',(#987,#988)) ;
#90=FACE_OUTER_BOUND('',#85,.T.) ;
#153=FACE_OUTER_BOUND('',#144,.T.) ;
#177=FACE_OUTER_BOUND('',#172,.T.) ;
#233=FACE_OUTER_BOUND('',#224,.T.) ;
#250=FACE_OUTER_BOUND('',#245,.T.) ;
#272=FACE_OUTER_BOUND('',#267,.T.) ;
#289=FACE_OUTER_BOUND('',#284,.T.) ;
#306=FACE_OUTER_BOUND('',#301,.T.) ;
#341=FACE_OUTER_BOUND('',#336,.T.) ;
#404=FACE_OUTER_BOUND('',#395,.T.) ;
#423=FACE_OUTER_BOUND('',#418,.T.) ;
#479=FACE_OUTER_BOUND('',#470,.T.) ;
#491=FACE_OUTER_BOUND('',#486,.T.) ;
#508=FACE_OUTER_BOUND('',#503,.T.) ;
#520=FACE_OUTER_BOUND('',#515,.T.) ;
#532=FACE_OUTER_BOUND('',#527,.T.) ;
#572=FACE_OUTER_BOUND('',#567,.T.) ;
#603=FACE_OUTER_BOUND('',#598,.T.) ;
#634=FACE_OUTER_BOUND('',#629,.T.) ;
#656=FACE_OUTER_BOUND('',#651,.T.) ;
#668=FACE_OUTER_BOUND('',#663,.T.) ;
#704=FACE_OUTER_BOUND('',#699,.T.) ;
#729=FACE_OUTER_BOUND('',#726,.T.) ;
#760=FACE_OUTER_BOUND('',#755,.T.) ;
#772=FACE_OUTER_BOUND('',#767,.T.) ;
#782=FACE_OUTER_BOUND('',#779,.T.) ;
#803=FACE_OUTER_BOUND('',#800,.T.) ;
#834=FACE_OUTER_BOUND('',#829,.T.) ;
#846=FACE_OUTER_BOUND('',#841,.T.) ;
#851=FACE_OUTER_BOUND('',#848,.T.) ;
#872=FACE_OUTER_BOUND('',#869,.T.) ;
#903=FACE_OUTER_BOUND('',#898,.T.) ;
#915=FACE_OUTER_BOUND('',#910,.T.) ;
#920=FACE_OUTER_BOUND('',#917,.T.) ;
#941=FACE_OUTER_BOUND('',#938,.T.) ;
#972=FACE_OUTER_BOUND('',#967,.T.) ;
#984=FACE_OUTER_BOUND('',#979,.T.) ;
#989=FACE_OUTER_BOUND('',#986,.T.) ;
#45=UNCERTAINTY_MEASURE_WITH_UNIT(LENGTH_MEASURE(0.005),#41,'distance_accuracy_value','CONFUSED CURVE UNCERTAINTY') ;
#60=LINE('Line',#57,#59) ;
#69=LINE('Line',#66,#68) ;
#76=LINE('Line',#73,#75) ;
#83=LINE('Line',#80,#82) ;
#100=LINE('Line',#97,#99) ;
#107=LINE('Line',#104,#106) ;
#114=LINE('Line',#111,#113) ;
#121=LINE('Line',#118,#120) ;
#135=LINE('Line',#132,#134) ;
#142=LINE('Line',#139,#141) ;
#163=LINE('Line',#160,#162) ;
#170=LINE('Line',#167,#169) ;
#187=LINE('Line',#184,#186) ;
#194=LINE('Line',#191,#193) ;
#201=LINE('Line',#198,#200) ;
#215=LINE('Line',#212,#214) ;
#222=LINE('Line',#219,#221) ;
#243=LINE('Line',#240,#242) ;
#260=LINE('Line',#257,#259) ;
#265=LINE('Line',#262,#264) ;
#282=LINE('Line',#279,#281) ;
#299=LINE('Line',#296,#298) ;
#311=LINE('Line',#308,#310) ;
#320=LINE('Line',#317,#319) ;
#327=LINE('Line',#324,#326) ;
#334=LINE('Line',#331,#333) ;
#351=LINE('Line',#348,#350) ;
#358=LINE('Line',#355,#357) ;
#365=LINE('Line',#362,#364) ;
#372=LINE('Line',#369,#371) ;
#386=LINE('Line',#383,#385) ;
#393=LINE('Line',#390,#392) ;
#409=LINE('Line',#406,#408) ;
#416=LINE('Line',#413,#415) ;
#433=LINE('Line',#430,#432) ;
#440=LINE('Line',#437,#439) ;
#447=LINE('Line',#444,#446) ;
#461=LINE('Line',#458,#460) ;
#468=LINE('Line',#465,#467) ;
#484=LINE('Line',#481,#483) ;
#496=LINE('Line',#493,#495) ;
#501=LINE('Line',#498,#500) ;
#513=LINE('Line',#510,#512) ;
#525=LINE('Line',#522,#524) ;
#542=LINE('Line',#539,#541) ;
#551=LINE('Line',#548,#550) ;
#558=LINE('Line',#555,#557) ;
#565=LINE('Line',#562,#564) ;
#589=LINE('Line',#586,#588) ;
#613=LINE('Line',#610,#612) ;
#620=LINE('Line',#617,#619) ;
#627=LINE('Line',#624,#626) ;
#748=LINE('Line',#745,#747) ;
#753=LINE('Line',#750,#752) ;
#822=LINE('Line',#819,#821) ;
#827=LINE('Line',#824,#826) ;
#891=LINE('Line',#888,#890) ;
#896=LINE('Line',#893,#895) ;
#960=LINE('Line',#957,#959) ;
#965=LINE('Line',#962,#964) ;
#2=MECHANICAL_CONTEXT(' ',#1,'mechanical') ;
#24=PERSONAL_ADDRESS(' ',' ',' ',' ',' ',' ',' ',' ',' ',' ',' ',' ',(#22),' ') ;
#56=PLANE('',#55) ;
#96=PLANE('',#95) ;
#159=PLANE('',#158) ;
#183=PLANE('',#182) ;
#239=PLANE('',#238) ;
#256=PLANE('',#255) ;
#295=PLANE('',#294) ;
#347=PLANE('',#346) ;
#429=PLANE('',#428) ;
#538=PLANE('',#537) ;
#609=PLANE('',#608) ;
#662=PLANE('',#661) ;
#698=PLANE('',#697) ;
#711=PLANE('',#710) ;
#778=PLANE('',#777) ;
#43=PLANE_ANGLE_MEASURE_WITH_UNIT(PLANE_ANGLE_MEASURE(0.0174532925199),#42) ;
#7=PRODUCT_CATEGORY('part',$) ;
#9=PRODUCT_CATEGORY_RELATIONSHIP(' ',' ',#7,#8) ;
#6=PRODUCT_DEFINITION_FORMATION_WITH_SPECIFIED_SOURCE('',' ',#5,.NOT_KNOWN.) ;
#8=PRODUCT_RELATED_PRODUCT_CATEGORY('detail',$,(#5)) ;
#50=SHAPE_DEFINITION_REPRESENTATION(#40,#49) ;
#62=VERTEX_POINT('',#61) ;
#64=VERTEX_POINT('',#63) ;
#71=VERTEX_POINT('',#70) ;
#78=VERTEX_POINT('',#77) ;
#102=VERTEX_POINT('',#101) ;
#109=VERTEX_POINT('',#108) ;
#116=VERTEX_POINT('',#115) ;
#123=VERTEX_POINT('',#122) ;
#130=VERTEX_POINT('',#129) ;
#137=VERTEX_POINT('',#136) ;
#165=VERTEX_POINT('',#164) ;
#189=VERTEX_POINT('',#188) ;
#196=VERTEX_POINT('',#195) ;
#203=VERTEX_POINT('',#202) ;
#210=VERTEX_POINT('',#209) ;
#217=VERTEX_POINT('',#216) ;
#313=VERTEX_POINT('',#312) ;
#315=VERTEX_POINT('',#314) ;
#322=VERTEX_POINT('',#321) ;
#329=VERTEX_POINT('',#328) ;
#353=VERTEX_POINT('',#352) ;
#360=VERTEX_POINT('',#359) ;
#367=VERTEX_POINT('',#366) ;
#374=VERTEX_POINT('',#373) ;
#381=VERTEX_POINT('',#380) ;
#388=VERTEX_POINT('',#387) ;
#411=VERTEX_POINT('',#410) ;
#435=VERTEX_POINT('',#434) ;
#442=VERTEX_POINT('',#441) ;
#449=VERTEX_POINT('',#448) ;
#456=VERTEX_POINT('',#455) ;
#463=VERTEX_POINT('',#462) ;
#544=VERTEX_POINT('',#543) ;
#546=VERTEX_POINT('',#545) ;
#553=VERTEX_POINT('',#552) ;
#560=VERTEX_POINT('',#559) ;
#584=VERTEX_POINT('',#583) ;
#591=VERTEX_POINT('',#590) ;
#615=VERTEX_POINT('',#614) ;
#622=VERTEX_POINT('',#621) ;
#717=VERTEX_POINT('',#716) ;
#719=VERTEX_POINT('',#718) ;
#741=VERTEX_POINT('',#740) ;
#743=VERTEX_POINT('',#742) ;
#791=VERTEX_POINT('',#790) ;
#793=VERTEX_POINT('',#792) ;
#815=VERTEX_POINT('',#814) ;
#817=VERTEX_POINT('',#816) ;
#860=VERTEX_POINT('',#859) ;
#862=VERTEX_POINT('',#861) ;
#884=VERTEX_POINT('',#883) ;
#886=VERTEX_POINT('',#885) ;
#929=VERTEX_POINT('',#928) ;
#931=VERTEX_POINT('',#930) ;
#953=VERTEX_POINT('',#952) ;
#955=VERTEX_POINT('',#954) ;
#41=(LENGTH_UNIT()NAMED_UNIT(*)SI_UNIT(.MILLI.,.METRE.)) ;
#42=(NAMED_UNIT(*)PLANE_ANGLE_UNIT()SI_UNIT($,.RADIAN.)) ;
#44=(NAMED_UNIT(*)SI_UNIT($,.STERADIAN.)SOLID_ANGLE_UNIT()) ;
#46=(GEOMETRIC_REPRESENTATION_CONTEXT(3)GLOBAL_UNCERTAINTY_ASSIGNED_CONTEXT((#45))GLOBAL_UNIT_ASSIGNED_CONTEXT((#41,#42,#44))REPRESENTATION_CONTEXT(' ',' ')) ;
ENDSEC;
END-ISO-10303-21;
