ISO-10303-21;
HEADER;
FILE_DESCRIPTION(('CATIA V5 STEP Exchange'),'2;1');

FILE_NAME('C:\\Users\\jawel\\OneDrive\\Desktop\\MicroMouseSTP\\rodas.stp','2026-09-29T02:23:43+00:00',('none'),('none'),'CATIA Version 5 Release 21 GA (IN-10)','CATIA V5 STEP AP203','none');

FILE_SCHEMA(('CONFIG_CONTROL_DESIGN'));

ENDSEC;
/* file written by CATIA V5R21 */
DATA;
#5=PRODUCT('rodas','','',(#2)) ;
#1=APPLICATION_CONTEXT('configuration controlled 3D design of mechanical parts and assemblies') ;
#14=PRODUCT_DEFINITION('',' ',#6,#3) ;
#16=SECURITY_CLASSIFICATION(' ',' ',#15) ;
#15=SECURITY_CLASSIFICATION_LEVEL('unclassified') ;
#47=CARTESIAN_POINT(' ',(0.,0.,0.)) ;
#52=CARTESIAN_POINT('Axis2P3D Location',(-8.95485711098,10.,0.)) ;
#57=CARTESIAN_POINT('Axis2P3D Location',(-8.95485711098,20.,0.)) ;
#61=CARTESIAN_POINT('Vertex',(-7.45485711098,20.,1.83690953073E-016)) ;
#63=CARTESIAN_POINT('Vertex',(-10.454857111,20.,0.)) ;
#66=CARTESIAN_POINT('Line Origine',(-10.454857111,10.,-3.67381906147E-016)) ;
#70=CARTESIAN_POINT('Vertex',(-10.454857111,0.,0.)) ;
#73=CARTESIAN_POINT('Axis2P3D Location',(-8.95485711098,0.,0.)) ;
#77=CARTESIAN_POINT('Vertex',(-7.45485711098,0.,1.83690953073E-016)) ;
#80=CARTESIAN_POINT('Line Origine',(-7.45485711098,10.,1.83690953073E-016)) ;
#92=CARTESIAN_POINT('Axis2P3D Location',(-8.95485711098,20.,0.)) ;
#97=CARTESIAN_POINT('Axis2P3D Location',(-8.95485711098,0.,0.)) ;
#109=CARTESIAN_POINT('Axis2P3D Location',(0.,20.,0.)) ;
#114=CARTESIAN_POINT('Axis2P3D Location',(-8.95485711098,20.,4.59391512527E-016)) ;
#118=CARTESIAN_POINT('Vertex',(-21.454857111,20.,-2.60212437203E-015)) ;
#120=CARTESIAN_POINT('Vertex',(3.54514288902,20.,-9.11208079145E-015)) ;
#123=CARTESIAN_POINT('Axis2P3D Location',(-8.95485711098,20.,4.59391512527E-016)) ;
#137=CARTESIAN_POINT('Axis2P3D Location',(-8.95485711098,15.,-5.3290705182E-015)) ;
#142=CARTESIAN_POINT('Axis2P3D Location',(-21.454857111,15.,3.69149155688E-015)) ;
#146=CARTESIAN_POINT('Vertex',(-26.454857111,15.,-1.98292445831E-014)) ;
#150=CARTESIAN_POINT('Control Point',(-26.454857111,15.,7.9936057773E-015)) ;
#151=CARTESIAN_POINT('Control Point',(-26.454857111,15.,2.05052327575)) ;
#152=CARTESIAN_POINT('Control Point',(-26.1545252749,15.,4.1010465515)) ;
#153=CARTESIAN_POINT('Control Point',(-25.5536885092,15.,6.09371873061)) ;
#154=CARTESIAN_POINT('Control Point',(-23.7852358748,15.,9.84499607732)) ;
#155=CARTESIAN_POINT('Control Point',(-21.0147661234,15.,12.9310945541)) ;
#156=CARTESIAN_POINT('Control Point',(-19.4116571979,15.,14.2584185557)) ;
#157=CARTESIAN_POINT('Control Point',(-15.8650307246,15.,16.404390818)) ;
#158=CARTESIAN_POINT('Control Point',(-11.8518939518,15.,17.4429828583)) ;
#159=CARTESIAN_POINT('Control Point',(-9.78235824829,15.,17.6625864507)) ;
#160=CARTESIAN_POINT('Control Point',(-5.63970330251,15.,17.4891128553)) ;
#161=CARTESIAN_POINT('Control Point',(-1.72093919796,15.,16.1345018482)) ;
#162=CARTESIAN_POINT('Control Point',(0.124666698721,15.,15.1727624657)) ;
#163=CARTESIAN_POINT('Control Point',(2.5573601242,15.,13.4068352903)) ;
#164=CARTESIAN_POINT('Control Point',(4.54863586051,15.,11.1887468883)) ;
#165=CARTESIAN_POINT('Control Point',(5.12039518793,15.,10.4603848917)) ;
#166=CARTESIAN_POINT('Control Point',(5.64245364075,15.,9.69644093126)) ;
#167=CARTESIAN_POINT('Control Point',(6.11208847575,15.,8.90152518879)) ;
#168=CARTESIAN_POINT('Vertex',(6.11208847575,15.,8.90152518879)) ;
#171=CARTESIAN_POINT('Axis2P3D Location',(-8.95485711098,15.,-5.3290705182E-015)) ;
#175=CARTESIAN_POINT('Vertex',(8.54514288902,15.,-5.62850005319E-015)) ;
#178=CARTESIAN_POINT('Axis2P3D Location',(3.54514288902,15.,9.15933995316E-016)) ;
#191=CARTESIAN_POINT('Axis2P3D Location',(-8.95485711098,15.,8.881784197E-016)) ;
#197=CARTESIAN_POINT('Control Point',(8.54514288902,15.,-1.7763568394E-015)) ;
#198=CARTESIAN_POINT('Control Point',(8.54514288902,15.,-4.10224725208)) ;
#199=CARTESIAN_POINT('Control Point',(7.34311199494,15.,-8.20449450415)) ;
#200=CARTESIAN_POINT('Control Point',(4.93345979685,15.,-11.8343643899)) ;
#201=CARTESIAN_POINT('Control Point',(-1.69455041107,15.,-17.2354035265)) ;
#202=CARTESIAN_POINT('Control Point',(-10.1894361734,15.,-18.2049412199)) ;
#203=CARTESIAN_POINT('Control Point',(-14.4682218349,15.,-17.3938747754)) ;
#204=CARTESIAN_POINT('Control Point',(-19.0934023223,15.,-14.9369158459)) ;
#205=CARTESIAN_POINT('Control Point',(-22.458207506,15.,-11.1889057034)) ;
#206=CARTESIAN_POINT('Control Point',(-23.0302298264,15.,-10.4602086812)) ;
#207=CARTESIAN_POINT('Control Point',(-23.5522220253,15.,-9.69634925425)) ;
#208=CARTESIAN_POINT('Control Point',(-24.0218026977,15.,-8.90152518879)) ;
#209=CARTESIAN_POINT('Vertex',(-24.0218026977,15.,-8.90152518879)) ;
#212=CARTESIAN_POINT('Axis2P3D Location',(-8.95485711098,15.,8.881784197E-016)) ;
#225=CARTESIAN_POINT('Axis2P3D Location',(0.,0.,0.)) ;
#230=CARTESIAN_POINT('Axis2P3D Location',(-8.95485711098,0.,4.59391512527E-016)) ;
#234=CARTESIAN_POINT('Vertex',(3.54514288902,0.,-9.11208079145E-015)) ;
#236=CARTESIAN_POINT('Vertex',(-21.454857111,0.,-2.60212437203E-015)) ;
#239=CARTESIAN_POINT('Axis2P3D Location',(-8.95485711098,0.,4.59391512527E-016)) ;
#253=CARTESIAN_POINT('Axis2P3D Location',(-8.95485711098,5.,-5.3290705182E-015)) ;
#258=CARTESIAN_POINT('Axis2P3D Location',(-21.454857111,5.,2.22044604925E-016)) ;
#262=CARTESIAN_POINT('Vertex',(-26.454857111,5.,-1.98292445831E-014)) ;
#265=CARTESIAN_POINT('Axis2P3D Location',(3.54514288902,5.,-4.63518112781E-015)) ;
#269=CARTESIAN_POINT('Vertex',(8.54514288902,5.,-5.62850005319E-015)) ;
#272=CARTESIAN_POINT('Axis2P3D Location',(-8.95485711098,5.,-5.3290705182E-015)) ;
#276=CARTESIAN_POINT('Vertex',(6.11208847575,5.,8.90152518879)) ;
#279=CARTESIAN_POINT('Axis2P3D Location',(-8.95485711098,5.,-5.3290705182E-015)) ;
#292=CARTESIAN_POINT('Axis2P3D Location',(-8.95485711098,5.,3.5527136788E-015)) ;
#297=CARTESIAN_POINT('Axis2P3D Location',(-8.95485711098,5.,3.5527136788E-015)) ;
#301=CARTESIAN_POINT('Vertex',(-24.0218026977,5.,-8.90152518879)) ;
#304=CARTESIAN_POINT('Axis2P3D Location',(-8.95485711098,5.,3.5527136788E-015)) ;
#317=CARTESIAN_POINT('Axis2P3D Location',(-8.95485711098,10.,0.)) ;
#322=CARTESIAN_POINT('Axis2P3D Location',(-8.95485711098,9.00062357759,0.)) ;
#326=CARTESIAN_POINT('Vertex',(-26.454857111,9.00062357759,0.)) ;
#328=CARTESIAN_POINT('Vertex',(-24.0217949486,9.00062357759,-8.90153830518)) ;
#331=CARTESIAN_POINT('Axis2P3D Location',(-8.95485711098,9.00062357759,0.)) ;
#335=CARTESIAN_POINT('Vertex',(8.54514288902,9.00062357759,2.14306111919E-015)) ;
#338=CARTESIAN_POINT('Line Origine',(8.54514288902,10.,2.14306111919E-015)) ;
#342=CARTESIAN_POINT('Vertex',(8.54514288902,6.99937642241,2.14306111919E-015)) ;
#345=CARTESIAN_POINT('Axis2P3D Location',(-8.95485711098,6.99937642241,0.)) ;
#349=CARTESIAN_POINT('Vertex',(-24.0217949486,6.99937642241,-8.90153830518)) ;
#352=CARTESIAN_POINT('Axis2P3D Location',(-8.95485711098,6.99937642241,0.)) ;
#356=CARTESIAN_POINT('Vertex',(-26.454857111,6.99937642241,0.)) ;
#359=CARTESIAN_POINT('Line Origine',(-26.454857111,10.,-4.28612223838E-015)) ;
#373=CARTESIAN_POINT('Axis2P3D Location',(-8.95485711098,10.9993764224,0.)) ;
#377=CARTESIAN_POINT('Vertex',(8.54514288902,10.9993764224,2.14306111919E-015)) ;
#379=CARTESIAN_POINT('Vertex',(-24.0217949486,10.9993764224,-8.90153830518)) ;
#382=CARTESIAN_POINT('Axis2P3D Location',(-8.95485711098,10.9993764224,0.)) ;
#386=CARTESIAN_POINT('Vertex',(-26.454857111,10.9993764224,0.)) ;
#389=CARTESIAN_POINT('Line Origine',(-26.454857111,10.,-4.28612223838E-015)) ;
#393=CARTESIAN_POINT('Vertex',(-26.454857111,13.0006235776,0.)) ;
#396=CARTESIAN_POINT('Axis2P3D Location',(-8.95485711098,13.0006235776,0.)) ;
#400=CARTESIAN_POINT('Vertex',(-24.0217949486,13.0006235776,-8.90153830518)) ;
#403=CARTESIAN_POINT('Axis2P3D Location',(-8.95485711098,13.0006235776,0.)) ;
#407=CARTESIAN_POINT('Vertex',(8.54514288902,13.0006235776,2.14306111919E-015)) ;
#410=CARTESIAN_POINT('Line Origine',(8.54514288902,10.,2.14306111919E-015)) ;
#424=CARTESIAN_POINT('Axis2P3D Location',(-8.95485711098,9.00062357759,0.)) ;
#428=CARTESIAN_POINT('Vertex',(6.1120807266,9.00062357759,8.90153830518)) ;
#431=CARTESIAN_POINT('Axis2P3D Location',(-8.95485711098,9.00062357759,0.)) ;
#436=CARTESIAN_POINT('Axis2P3D Location',(-8.95485711098,6.99937642241,0.)) ;
#440=CARTESIAN_POINT('Vertex',(6.1120807266,6.99937642241,8.90153830518)) ;
#443=CARTESIAN_POINT('Axis2P3D Location',(-8.95485711098,6.99937642241,0.)) ;
#457=CARTESIAN_POINT('Axis2P3D Location',(-8.95485711098,10.9993764224,0.)) ;
#461=CARTESIAN_POINT('Vertex',(6.1120807266,10.9993764224,8.90153830518)) ;
#464=CARTESIAN_POINT('Axis2P3D Location',(-8.95485711098,10.9993764224,0.)) ;
#469=CARTESIAN_POINT('Axis2P3D Location',(-8.95485711098,13.0006235776,0.)) ;
#473=CARTESIAN_POINT('Vertex',(6.1120807266,13.0006235776,8.90153830518)) ;
#476=CARTESIAN_POINT('Axis2P3D Location',(-8.95485711098,13.0006235776,0.)) ;
#491=CARTESIAN_POINT('Control Point',(0.,5.,15.)) ;
#492=CARTESIAN_POINT('Control Point',(0.,5.,14.6858407346)) ;
#493=CARTESIAN_POINT('Control Point',(0.,5.12337005501,14.3716814693)) ;
#494=CARTESIAN_POINT('Control Point',(0.,5.37168146928,14.123370055)) ;
#495=CARTESIAN_POINT('Control Point',(0.,6.,13.876629945)) ;
#496=CARTESIAN_POINT('Control Point',(0.,6.62831853072,14.123370055)) ;
#497=CARTESIAN_POINT('Control Point',(0.,6.87662994499,14.3716814693)) ;
#498=CARTESIAN_POINT('Control Point',(0.,7.,14.6858407346)) ;
#499=CARTESIAN_POINT('Control Point',(0.,7.,15.)) ;
#500=CARTESIAN_POINT('Axis1P Location',(-8.95485711098,10.,3.5527136788E-015)) ;
#505=CARTESIAN_POINT('Control Point',(-24.0048666349,5.,-8.8705512348)) ;
#506=CARTESIAN_POINT('Control Point',(-23.8542506599,5.,-8.59485054187)) ;
#507=CARTESIAN_POINT('Control Point',(-23.7036346848,5.12337005501,-8.31914984893)) ;
#508=CARTESIAN_POINT('Control Point',(-23.5845878513,5.37168146928,-8.10123608185)) ;
#509=CARTESIAN_POINT('Control Point',(-23.4662943412,6.,-7.88470126397)) ;
#510=CARTESIAN_POINT('Control Point',(-23.5845878513,6.62831853072,-8.10123608185)) ;
#511=CARTESIAN_POINT('Control Point',(-23.7036346848,6.87662994499,-8.31914984893)) ;
#512=CARTESIAN_POINT('Control Point',(-23.8542506599,7.,-8.59485054187)) ;
#513=CARTESIAN_POINT('Control Point',(-24.0048666349,7.,-8.8705512348)) ;
#514=CARTESIAN_POINT('Vertex',(-24.0048666349,5.,-8.8705512348)) ;
#516=CARTESIAN_POINT('Vertex',(-24.0048666349,7.,-8.8705512348)) ;
#519=CARTESIAN_POINT('Axis2P3D Location',(-8.95485711098,7.,3.5527136788E-015)) ;
#523=CARTESIAN_POINT('Vertex',(6.0951524129,7.,8.8705512348)) ;
#527=CARTESIAN_POINT('Control Point',(6.0951524129,5.,8.8705512348)) ;
#528=CARTESIAN_POINT('Control Point',(5.9445364379,5.,8.59485054187)) ;
#529=CARTESIAN_POINT('Control Point',(5.79392046289,5.12337005501,8.31914984893)) ;
#530=CARTESIAN_POINT('Control Point',(5.67487362937,5.37168146928,8.10123608185)) ;
#531=CARTESIAN_POINT('Control Point',(5.55658011922,6.,7.88470126397)) ;
#532=CARTESIAN_POINT('Control Point',(5.67487362937,6.62831853072,8.10123608185)) ;
#533=CARTESIAN_POINT('Control Point',(5.79392046289,6.87662994499,8.31914984893)) ;
#534=CARTESIAN_POINT('Control Point',(5.9445364379,7.,8.59485054187)) ;
#535=CARTESIAN_POINT('Control Point',(6.0951524129,7.,8.8705512348)) ;
#536=CARTESIAN_POINT('Vertex',(6.0951524129,5.,8.8705512348)) ;
#539=CARTESIAN_POINT('Axis2P3D Location',(-8.95485711098,5.,3.5527136788E-015)) ;
#552=CARTESIAN_POINT('Control Point',(0.,5.00062252615,15.0352798067)) ;
#553=CARTESIAN_POINT('Control Point',(0.,5.00020755178,15.0235247526)) ;
#554=CARTESIAN_POINT('Control Point',(0.,5.,15.0117623765)) ;
#555=CARTESIAN_POINT('Control Point',(0.,5.,15.)) ;
#556=CARTESIAN_POINT('Axis1P Location',(-8.95485711098,10.,3.5527136788E-015)) ;
#561=CARTESIAN_POINT('Control Point',(-24.0217806752,5.00062252615,-8.90151217792)) ;
#562=CARTESIAN_POINT('Control Point',(-24.016145002,5.00020755178,-8.89119614746)) ;
#563=CARTESIAN_POINT('Control Point',(-24.0105058185,5.,-8.88087369126)) ;
#564=CARTESIAN_POINT('Control Point',(-24.0048666349,5.,-8.8705512348)) ;
#567=CARTESIAN_POINT('Control Point',(6.11206645321,5.00062252615,8.90151217792)) ;
#568=CARTESIAN_POINT('Control Point',(6.10643078009,5.00020755178,8.89119614746)) ;
#569=CARTESIAN_POINT('Control Point',(6.10079159657,5.,8.88087369126)) ;
#570=CARTESIAN_POINT('Control Point',(6.0951524129,5.,8.8705512348)) ;
#581=CARTESIAN_POINT('Control Point',(0.,5.,15.)) ;
#582=CARTESIAN_POINT('Control Point',(0.,5.,14.6858407346)) ;
#583=CARTESIAN_POINT('Control Point',(0.,5.12337005501,14.3716814693)) ;
#584=CARTESIAN_POINT('Control Point',(0.,5.37168146928,14.123370055)) ;
#585=CARTESIAN_POINT('Control Point',(0.,6.,13.876629945)) ;
#586=CARTESIAN_POINT('Control Point',(0.,6.62831853072,14.123370055)) ;
#587=CARTESIAN_POINT('Control Point',(0.,6.87662994499,14.3716814693)) ;
#588=CARTESIAN_POINT('Control Point',(0.,7.,14.6858407346)) ;
#589=CARTESIAN_POINT('Control Point',(0.,7.,15.)) ;
#590=CARTESIAN_POINT('Axis1P Location',(-8.95485711098,10.,3.5527136788E-015)) ;
#594=CARTESIAN_POINT('Axis2P3D Location',(-8.95485711098,7.,3.5527136788E-015)) ;
#599=CARTESIAN_POINT('Axis2P3D Location',(-8.95485711098,5.,3.5527136788E-015)) ;
#612=CARTESIAN_POINT('Control Point',(0.,7.,15.)) ;
#613=CARTESIAN_POINT('Control Point',(0.,7.,15.0117723066)) ;
#614=CARTESIAN_POINT('Control Point',(0.,6.99979209759,15.0235446129)) ;
#615=CARTESIAN_POINT('Control Point',(0.,6.99937642241,15.0353095785)) ;
#616=CARTESIAN_POINT('Axis1P Location',(-8.95485711098,10.,3.5527136788E-015)) ;
#621=CARTESIAN_POINT('Control Point',(6.0951524129,7.,8.8705512348)) ;
#622=CARTESIAN_POINT('Control Point',(6.10079635733,7.,8.88088240578)) ;
#623=CARTESIAN_POINT('Control Point',(6.10644030161,6.99979209759,8.89121357649)) ;
#624=CARTESIAN_POINT('Control Point',(6.1120807266,6.99937642241,8.90153830518)) ;
#627=CARTESIAN_POINT('Control Point',(-24.0048666349,7.,-8.8705512348)) ;
#628=CARTESIAN_POINT('Control Point',(-24.0105105793,7.,-8.88088240578)) ;
#629=CARTESIAN_POINT('Control Point',(-24.0161545236,6.99979209759,-8.89121357649)) ;
#630=CARTESIAN_POINT('Control Point',(-24.0217949486,6.99937642241,-8.90153830518)) ;
#641=CARTESIAN_POINT('Control Point',(0.,5.00062252615,15.0352798067)) ;
#642=CARTESIAN_POINT('Control Point',(0.,5.00020755178,15.0235247526)) ;
#643=CARTESIAN_POINT('Control Point',(0.,5.,15.0117623765)) ;
#644=CARTESIAN_POINT('Control Point',(0.,5.,15.)) ;
#645=CARTESIAN_POINT('Axis1P Location',(-8.95485711098,10.,3.5527136788E-015)) ;
#658=CARTESIAN_POINT('Control Point',(0.,7.,15.)) ;
#659=CARTESIAN_POINT('Control Point',(0.,7.,15.0117723066)) ;
#660=CARTESIAN_POINT('Control Point',(0.,6.99979209759,15.0235446129)) ;
#661=CARTESIAN_POINT('Control Point',(0.,6.99937642241,15.0353095785)) ;
#662=CARTESIAN_POINT('Axis1P Location',(-8.95485711098,10.,3.5527136788E-015)) ;
#675=CARTESIAN_POINT('Control Point',(0.,9.,15.)) ;
#676=CARTESIAN_POINT('Control Point',(0.,9.,14.6858407346)) ;
#677=CARTESIAN_POINT('Control Point',(0.,9.12337005501,14.3716814693)) ;
#678=CARTESIAN_POINT('Control Point',(0.,9.37168146928,14.123370055)) ;
#679=CARTESIAN_POINT('Control Point',(0.,10.,13.876629945)) ;
#680=CARTESIAN_POINT('Control Point',(0.,10.6283185307,14.123370055)) ;
#681=CARTESIAN_POINT('Control Point',(0.,10.876629945,14.3716814693)) ;
#682=CARTESIAN_POINT('Control Point',(0.,11.,14.6858407346)) ;
#683=CARTESIAN_POINT('Control Point',(0.,11.,15.)) ;
#684=CARTESIAN_POINT('Axis1P Location',(-8.95485711098,10.,3.5527136788E-015)) ;
#689=CARTESIAN_POINT('Control Point',(-24.0048666349,9.,-8.8705512348)) ;
#690=CARTESIAN_POINT('Control Point',(-23.8542506599,9.,-8.59485054187)) ;
#691=CARTESIAN_POINT('Control Point',(-23.7036346848,9.12337005501,-8.31914984893)) ;
#692=CARTESIAN_POINT('Control Point',(-23.5845878513,9.37168146928,-8.10123608185)) ;
#693=CARTESIAN_POINT('Control Point',(-23.4662943412,10.,-7.88470126397)) ;
#694=CARTESIAN_POINT('Control Point',(-23.5845878513,10.6283185307,-8.10123608185)) ;
#695=CARTESIAN_POINT('Control Point',(-23.7036346848,10.876629945,-8.31914984893)) ;
#696=CARTESIAN_POINT('Control Point',(-23.8542506599,11.,-8.59485054187)) ;
#697=CARTESIAN_POINT('Control Point',(-24.0048666349,11.,-8.8705512348)) ;
#698=CARTESIAN_POINT('Vertex',(-24.0048666349,9.,-8.8705512348)) ;
#700=CARTESIAN_POINT('Vertex',(-24.0048666349,11.,-8.8705512348)) ;
#703=CARTESIAN_POINT('Axis2P3D Location',(-8.95485711098,11.,3.5527136788E-015)) ;
#707=CARTESIAN_POINT('Vertex',(6.0951524129,11.,8.8705512348)) ;
#711=CARTESIAN_POINT('Control Point',(6.0951524129,9.,8.8705512348)) ;
#712=CARTESIAN_POINT('Control Point',(5.9445364379,9.,8.59485054187)) ;
#713=CARTESIAN_POINT('Control Point',(5.79392046289,9.12337005501,8.31914984893)) ;
#714=CARTESIAN_POINT('Control Point',(5.67487362937,9.37168146928,8.10123608185)) ;
#715=CARTESIAN_POINT('Control Point',(5.55658011922,10.,7.88470126397)) ;
#716=CARTESIAN_POINT('Control Point',(5.67487362937,10.6283185307,8.10123608185)) ;
#717=CARTESIAN_POINT('Control Point',(5.79392046289,10.876629945,8.31914984893)) ;
#718=CARTESIAN_POINT('Control Point',(5.9445364379,11.,8.59485054187)) ;
#719=CARTESIAN_POINT('Control Point',(6.0951524129,11.,8.8705512348)) ;
#720=CARTESIAN_POINT('Vertex',(6.0951524129,9.,8.8705512348)) ;
#723=CARTESIAN_POINT('Axis2P3D Location',(-8.95485711098,9.,3.5527136788E-015)) ;
#736=CARTESIAN_POINT('Control Point',(0.,9.00062357759,15.0353095785)) ;
#737=CARTESIAN_POINT('Control Point',(0.,9.00020790241,15.0235446129)) ;
#738=CARTESIAN_POINT('Control Point',(0.,9.,15.0117723066)) ;
#739=CARTESIAN_POINT('Control Point',(0.,9.,15.)) ;
#740=CARTESIAN_POINT('Axis1P Location',(-8.95485711098,10.,3.5527136788E-015)) ;
#745=CARTESIAN_POINT('Control Point',(-24.0217949486,9.00062357759,-8.90153830518)) ;
#746=CARTESIAN_POINT('Control Point',(-24.0161545236,9.00020790241,-8.89121357649)) ;
#747=CARTESIAN_POINT('Control Point',(-24.0105105793,9.,-8.88088240578)) ;
#748=CARTESIAN_POINT('Control Point',(-24.0048666349,9.,-8.8705512348)) ;
#751=CARTESIAN_POINT('Control Point',(6.1120807266,9.00062357759,8.90153830518)) ;
#752=CARTESIAN_POINT('Control Point',(6.10644030161,9.00020790241,8.89121357649)) ;
#753=CARTESIAN_POINT('Control Point',(6.10079635733,9.,8.88088240578)) ;
#754=CARTESIAN_POINT('Control Point',(6.0951524129,9.,8.8705512348)) ;
#765=CARTESIAN_POINT('Control Point',(0.,9.,15.)) ;
#766=CARTESIAN_POINT('Control Point',(0.,9.,14.6858407346)) ;
#767=CARTESIAN_POINT('Control Point',(0.,9.12337005501,14.3716814693)) ;
#768=CARTESIAN_POINT('Control Point',(0.,9.37168146928,14.123370055)) ;
#769=CARTESIAN_POINT('Control Point',(0.,10.,13.876629945)) ;
#770=CARTESIAN_POINT('Control Point',(0.,10.6283185307,14.123370055)) ;
#771=CARTESIAN_POINT('Control Point',(0.,10.876629945,14.3716814693)) ;
#772=CARTESIAN_POINT('Control Point',(0.,11.,14.6858407346)) ;
#773=CARTESIAN_POINT('Control Point',(0.,11.,15.)) ;
#774=CARTESIAN_POINT('Axis1P Location',(-8.95485711098,10.,3.5527136788E-015)) ;
#778=CARTESIAN_POINT('Axis2P3D Location',(-8.95485711098,11.,3.5527136788E-015)) ;
#783=CARTESIAN_POINT('Axis2P3D Location',(-8.95485711098,9.,3.5527136788E-015)) ;
#796=CARTESIAN_POINT('Control Point',(0.,11.,15.)) ;
#797=CARTESIAN_POINT('Control Point',(0.,11.,15.0117723066)) ;
#798=CARTESIAN_POINT('Control Point',(0.,10.9997920976,15.0235446129)) ;
#799=CARTESIAN_POINT('Control Point',(0.,10.9993764224,15.0353095785)) ;
#800=CARTESIAN_POINT('Axis1P Location',(-8.95485711098,10.,3.5527136788E-015)) ;
#805=CARTESIAN_POINT('Control Point',(6.0951524129,11.,8.8705512348)) ;
#806=CARTESIAN_POINT('Control Point',(6.10079635733,11.,8.88088240578)) ;
#807=CARTESIAN_POINT('Control Point',(6.10644030161,10.9997920976,8.89121357649)) ;
#808=CARTESIAN_POINT('Control Point',(6.1120807266,10.9993764224,8.90153830518)) ;
#811=CARTESIAN_POINT('Control Point',(-24.0048666349,11.,-8.8705512348)) ;
#812=CARTESIAN_POINT('Control Point',(-24.0105105793,11.,-8.88088240578)) ;
#813=CARTESIAN_POINT('Control Point',(-24.0161545236,10.9997920976,-8.89121357649)) ;
#814=CARTESIAN_POINT('Control Point',(-24.0217949486,10.9993764224,-8.90153830518)) ;
#825=CARTESIAN_POINT('Control Point',(0.,9.00062357759,15.0353095785)) ;
#826=CARTESIAN_POINT('Control Point',(0.,9.00020790241,15.0235446129)) ;
#827=CARTESIAN_POINT('Control Point',(0.,9.,15.0117723066)) ;
#828=CARTESIAN_POINT('Control Point',(0.,9.,15.)) ;
#829=CARTESIAN_POINT('Axis1P Location',(-8.95485711098,10.,3.5527136788E-015)) ;
#842=CARTESIAN_POINT('Control Point',(0.,11.,15.)) ;
#843=CARTESIAN_POINT('Control Point',(0.,11.,15.0117723066)) ;
#844=CARTESIAN_POINT('Control Point',(0.,10.9997920976,15.0235446129)) ;
#845=CARTESIAN_POINT('Control Point',(0.,10.9993764224,15.0353095785)) ;
#846=CARTESIAN_POINT('Axis1P Location',(-8.95485711098,10.,3.5527136788E-015)) ;
#859=CARTESIAN_POINT('Control Point',(0.,13.,15.)) ;
#860=CARTESIAN_POINT('Control Point',(0.,13.,14.6858407346)) ;
#861=CARTESIAN_POINT('Control Point',(0.,13.123370055,14.3716814693)) ;
#862=CARTESIAN_POINT('Control Point',(0.,13.3716814693,14.123370055)) ;
#863=CARTESIAN_POINT('Control Point',(0.,14.,13.876629945)) ;
#864=CARTESIAN_POINT('Control Point',(0.,14.6283185307,14.123370055)) ;
#865=CARTESIAN_POINT('Control Point',(0.,14.876629945,14.3716814693)) ;
#866=CARTESIAN_POINT('Control Point',(0.,15.,14.6858407346)) ;
#867=CARTESIAN_POINT('Control Point',(0.,15.,15.)) ;
#868=CARTESIAN_POINT('Axis1P Location',(-8.95485711098,10.,3.5527136788E-015)) ;
#873=CARTESIAN_POINT('Control Point',(-24.0048666349,13.,-8.8705512348)) ;
#874=CARTESIAN_POINT('Control Point',(-23.8542506599,13.,-8.59485054187)) ;
#875=CARTESIAN_POINT('Control Point',(-23.7036346848,13.123370055,-8.31914984893)) ;
#876=CARTESIAN_POINT('Control Point',(-23.5845878513,13.3716814693,-8.10123608185)) ;
#877=CARTESIAN_POINT('Control Point',(-23.4662943412,14.,-7.88470126397)) ;
#878=CARTESIAN_POINT('Control Point',(-23.5845878513,14.6283185307,-8.10123608185)) ;
#879=CARTESIAN_POINT('Control Point',(-23.7036346848,14.876629945,-8.31914984893)) ;
#880=CARTESIAN_POINT('Control Point',(-23.8542506599,15.,-8.59485054187)) ;
#881=CARTESIAN_POINT('Control Point',(-24.0048666349,15.,-8.8705512348)) ;
#882=CARTESIAN_POINT('Vertex',(-24.0048666349,13.,-8.8705512348)) ;
#884=CARTESIAN_POINT('Vertex',(-24.0048666349,15.,-8.8705512348)) ;
#887=CARTESIAN_POINT('Axis2P3D Location',(-8.95485711098,15.,3.5527136788E-015)) ;
#891=CARTESIAN_POINT('Vertex',(6.0951524129,15.,8.8705512348)) ;
#895=CARTESIAN_POINT('Control Point',(6.0951524129,13.,8.8705512348)) ;
#896=CARTESIAN_POINT('Control Point',(5.9445364379,13.,8.59485054187)) ;
#897=CARTESIAN_POINT('Control Point',(5.79392046289,13.123370055,8.31914984893)) ;
#898=CARTESIAN_POINT('Control Point',(5.67487362937,13.3716814693,8.10123608185)) ;
#899=CARTESIAN_POINT('Control Point',(5.55658011922,14.,7.88470126397)) ;
#900=CARTESIAN_POINT('Control Point',(5.67487362937,14.6283185307,8.10123608185)) ;
#901=CARTESIAN_POINT('Control Point',(5.79392046289,14.876629945,8.31914984893)) ;
#902=CARTESIAN_POINT('Control Point',(5.9445364379,15.,8.59485054187)) ;
#903=CARTESIAN_POINT('Control Point',(6.0951524129,15.,8.8705512348)) ;
#904=CARTESIAN_POINT('Vertex',(6.0951524129,13.,8.8705512348)) ;
#907=CARTESIAN_POINT('Axis2P3D Location',(-8.95485711098,13.,3.5527136788E-015)) ;
#920=CARTESIAN_POINT('Control Point',(0.,13.0006235776,15.0353095785)) ;
#921=CARTESIAN_POINT('Control Point',(0.,13.0002079024,15.0235446129)) ;
#922=CARTESIAN_POINT('Control Point',(0.,13.,15.0117723066)) ;
#923=CARTESIAN_POINT('Control Point',(0.,13.,15.)) ;
#924=CARTESIAN_POINT('Axis1P Location',(-8.95485711098,10.,3.5527136788E-015)) ;
#929=CARTESIAN_POINT('Control Point',(-24.0217949486,13.0006235776,-8.90153830518)) ;
#930=CARTESIAN_POINT('Control Point',(-24.0161545236,13.0002079024,-8.89121357649)) ;
#931=CARTESIAN_POINT('Control Point',(-24.0105105793,13.,-8.88088240578)) ;
#932=CARTESIAN_POINT('Control Point',(-24.0048666349,13.,-8.8705512348)) ;
#935=CARTESIAN_POINT('Control Point',(6.1120807266,13.0006235776,8.90153830518)) ;
#936=CARTESIAN_POINT('Control Point',(6.10644030161,13.0002079024,8.89121357649)) ;
#937=CARTESIAN_POINT('Control Point',(6.10079635733,13.,8.88088240578)) ;
#938=CARTESIAN_POINT('Control Point',(6.0951524129,13.,8.8705512348)) ;
#949=CARTESIAN_POINT('Control Point',(0.,13.,15.)) ;
#950=CARTESIAN_POINT('Control Point',(0.,13.,14.6858407346)) ;
#951=CARTESIAN_POINT('Control Point',(0.,13.123370055,14.3716814693)) ;
#952=CARTESIAN_POINT('Control Point',(0.,13.3716814693,14.123370055)) ;
#953=CARTESIAN_POINT('Control Point',(0.,14.,13.876629945)) ;
#954=CARTESIAN_POINT('Control Point',(0.,14.6283185307,14.123370055)) ;
#955=CARTESIAN_POINT('Control Point',(0.,14.876629945,14.3716814693)) ;
#956=CARTESIAN_POINT('Control Point',(0.,15.,14.6858407346)) ;
#957=CARTESIAN_POINT('Control Point',(0.,15.,15.)) ;
#958=CARTESIAN_POINT('Axis1P Location',(-8.95485711098,10.,3.5527136788E-015)) ;
#962=CARTESIAN_POINT('Axis2P3D Location',(-8.95485711098,15.,3.5527136788E-015)) ;
#967=CARTESIAN_POINT('Axis2P3D Location',(-8.95485711098,13.,3.5527136788E-015)) ;
#980=CARTESIAN_POINT('Control Point',(0.,15.,15.)) ;
#981=CARTESIAN_POINT('Control Point',(0.,15.,15.0117623765)) ;
#982=CARTESIAN_POINT('Control Point',(0.,14.9997924482,15.0235247526)) ;
#983=CARTESIAN_POINT('Control Point',(0.,14.9993774739,15.0352798067)) ;
#984=CARTESIAN_POINT('Axis1P Location',(-8.95485711098,10.,3.5527136788E-015)) ;
#989=CARTESIAN_POINT('Control Point',(6.0951524129,15.,8.8705512348)) ;
#990=CARTESIAN_POINT('Control Point',(6.10079159657,15.,8.88087369126)) ;
#991=CARTESIAN_POINT('Control Point',(6.10643078009,14.9997924482,8.89119614746)) ;
#992=CARTESIAN_POINT('Control Point',(6.11206645321,14.9993774739,8.90151217792)) ;
#995=CARTESIAN_POINT('Control Point',(-24.0048666349,15.,-8.8705512348)) ;
#996=CARTESIAN_POINT('Control Point',(-24.0105058185,15.,-8.88087369126)) ;
#997=CARTESIAN_POINT('Control Point',(-24.016145002,14.9997924482,-8.89119614746)) ;
#998=CARTESIAN_POINT('Control Point',(-24.0217806752,14.9993774739,-8.90151217792)) ;
#1009=CARTESIAN_POINT('Control Point',(0.,13.0006235776,15.0353095785)) ;
#1010=CARTESIAN_POINT('Control Point',(0.,13.0002079024,15.0235446129)) ;
#1011=CARTESIAN_POINT('Control Point',(0.,13.,15.0117723066)) ;
#1012=CARTESIAN_POINT('Control Point',(0.,13.,15.)) ;
#1013=CARTESIAN_POINT('Axis1P Location',(-8.95485711098,10.,3.5527136788E-015)) ;
#1026=CARTESIAN_POINT('Control Point',(0.,15.,15.)) ;
#1027=CARTESIAN_POINT('Control Point',(0.,15.,15.0117623765)) ;
#1028=CARTESIAN_POINT('Control Point',(0.,14.9997924482,15.0235247526)) ;
#1029=CARTESIAN_POINT('Control Point',(0.,14.9993774739,15.0352798067)) ;
#1030=CARTESIAN_POINT('Axis1P Location',(-8.95485711098,10.,3.5527136788E-015)) ;
#53=DIRECTION('Axis2P3D Direction',(0.,1.,0.)) ;
#54=DIRECTION('Axis2P3D XDirection',(-1.,0.,0.)) ;
#58=DIRECTION('Axis2P3D Direction',(0.,1.,0.)) ;
#67=DIRECTION('Vector Direction',(0.,1.,0.)) ;
#74=DIRECTION('Axis2P3D Direction',(0.,1.,0.)) ;
#81=DIRECTION('Vector Direction',(0.,1.,0.)) ;
#93=DIRECTION('Axis2P3D Direction',(0.,1.,0.)) ;
#98=DIRECTION('Axis2P3D Direction',(0.,1.,0.)) ;
#110=DIRECTION('Axis2P3D Direction',(0.,1.,0.)) ;
#111=DIRECTION('Axis2P3D XDirection',(-1.,0.,0.)) ;
#115=DIRECTION('Axis2P3D Direction',(0.,1.,0.)) ;
#124=DIRECTION('Axis2P3D Direction',(0.,1.,0.)) ;
#138=DIRECTION('Axis2P3D Direction',(0.,1.,0.)) ;
#139=DIRECTION('Axis2P3D XDirection',(-1.,0.,4.06024420434E-016)) ;
#143=DIRECTION('Axis2P3D Direction',(-7.21644966006E-016,0.,-1.)) ;
#172=DIRECTION('Axis2P3D Direction',(0.,1.,0.)) ;
#179=DIRECTION('Axis2P3D Direction',(-4.99600361081E-016,0.,1.)) ;
#192=DIRECTION('Axis2P3D Direction',(-0.,1.,0.)) ;
#193=DIRECTION('Axis2P3D XDirection',(1.,0.,-1.52259157663E-016)) ;
#213=DIRECTION('Axis2P3D Direction',(-0.,1.,0.)) ;
#226=DIRECTION('Axis2P3D Direction',(0.,1.,0.)) ;
#227=DIRECTION('Axis2P3D XDirection',(-1.,0.,0.)) ;
#231=DIRECTION('Axis2P3D Direction',(0.,1.,0.)) ;
#240=DIRECTION('Axis2P3D Direction',(0.,1.,0.)) ;
#254=DIRECTION('Axis2P3D Direction',(0.,1.,0.)) ;
#255=DIRECTION('Axis2P3D XDirection',(-1.,0.,4.97379915032E-016)) ;
#259=DIRECTION('Axis2P3D Direction',(-4.4408920985E-016,0.,-1.)) ;
#266=DIRECTION('Axis2P3D Direction',(-5.55111512313E-017,0.,1.)) ;
#273=DIRECTION('Axis2P3D Direction',(0.,1.,0.)) ;
#280=DIRECTION('Axis2P3D Direction',(0.,1.,0.)) ;
#293=DIRECTION('Axis2P3D Direction',(-0.,1.,0.)) ;
#294=DIRECTION('Axis2P3D XDirection',(1.,0.,3.5527136788E-016)) ;
#298=DIRECTION('Axis2P3D Direction',(-0.,1.,0.)) ;
#305=DIRECTION('Axis2P3D Direction',(-0.,1.,0.)) ;
#318=DIRECTION('Axis2P3D Direction',(0.,1.,0.)) ;
#319=DIRECTION('Axis2P3D XDirection',(-1.,0.,0.)) ;
#323=DIRECTION('Axis2P3D Direction',(0.,1.,0.)) ;
#332=DIRECTION('Axis2P3D Direction',(0.,1.,0.)) ;
#339=DIRECTION('Vector Direction',(0.,1.,0.)) ;
#346=DIRECTION('Axis2P3D Direction',(0.,1.,0.)) ;
#353=DIRECTION('Axis2P3D Direction',(0.,1.,0.)) ;
#360=DIRECTION('Vector Direction',(0.,1.,0.)) ;
#374=DIRECTION('Axis2P3D Direction',(0.,1.,0.)) ;
#383=DIRECTION('Axis2P3D Direction',(0.,1.,0.)) ;
#390=DIRECTION('Vector Direction',(0.,1.,0.)) ;
#397=DIRECTION('Axis2P3D Direction',(0.,1.,0.)) ;
#404=DIRECTION('Axis2P3D Direction',(0.,1.,0.)) ;
#411=DIRECTION('Vector Direction',(0.,1.,0.)) ;
#425=DIRECTION('Axis2P3D Direction',(0.,1.,0.)) ;
#432=DIRECTION('Axis2P3D Direction',(0.,1.,0.)) ;
#437=DIRECTION('Axis2P3D Direction',(0.,1.,0.)) ;
#444=DIRECTION('Axis2P3D Direction',(0.,1.,0.)) ;
#458=DIRECTION('Axis2P3D Direction',(0.,1.,0.)) ;
#465=DIRECTION('Axis2P3D Direction',(0.,1.,0.)) ;
#470=DIRECTION('Axis2P3D Direction',(0.,1.,0.)) ;
#477=DIRECTION('Axis2P3D Direction',(0.,1.,0.)) ;
#501=DIRECTION('Axis1P Direction',(0.,1.,0.)) ;
#520=DIRECTION('Axis2P3D Direction',(0.,1.,0.)) ;
#540=DIRECTION('Axis2P3D Direction',(0.,1.,0.)) ;
#557=DIRECTION('Axis1P Direction',(0.,1.,0.)) ;
#591=DIRECTION('Axis1P Direction',(0.,1.,0.)) ;
#595=DIRECTION('Axis2P3D Direction',(0.,1.,0.)) ;
#600=DIRECTION('Axis2P3D Direction',(0.,1.,0.)) ;
#617=DIRECTION('Axis1P Direction',(0.,1.,0.)) ;
#646=DIRECTION('Axis1P Direction',(0.,1.,0.)) ;
#663=DIRECTION('Axis1P Direction',(0.,1.,0.)) ;
#685=DIRECTION('Axis1P Direction',(0.,1.,0.)) ;
#704=DIRECTION('Axis2P3D Direction',(0.,1.,0.)) ;
#724=DIRECTION('Axis2P3D Direction',(0.,1.,0.)) ;
#741=DIRECTION('Axis1P Direction',(0.,1.,0.)) ;
#775=DIRECTION('Axis1P Direction',(0.,1.,0.)) ;
#779=DIRECTION('Axis2P3D Direction',(0.,1.,0.)) ;
#784=DIRECTION('Axis2P3D Direction',(0.,1.,0.)) ;
#801=DIRECTION('Axis1P Direction',(0.,1.,0.)) ;
#830=DIRECTION('Axis1P Direction',(0.,1.,0.)) ;
#847=DIRECTION('Axis1P Direction',(0.,1.,0.)) ;
#869=DIRECTION('Axis1P Direction',(0.,1.,0.)) ;
#888=DIRECTION('Axis2P3D Direction',(0.,1.,0.)) ;
#908=DIRECTION('Axis2P3D Direction',(0.,1.,0.)) ;
#925=DIRECTION('Axis1P Direction',(0.,1.,0.)) ;
#959=DIRECTION('Axis1P Direction',(0.,1.,0.)) ;
#963=DIRECTION('Axis2P3D Direction',(0.,1.,0.)) ;
#968=DIRECTION('Axis2P3D Direction',(0.,1.,0.)) ;
#985=DIRECTION('Axis1P Direction',(0.,1.,0.)) ;
#1014=DIRECTION('Axis1P Direction',(0.,1.,0.)) ;
#1031=DIRECTION('Axis1P Direction',(0.,1.,0.)) ;
#48=AXIS2_PLACEMENT_3D(' ',#47,$,$) ;
#55=AXIS2_PLACEMENT_3D('Cylinder Axis2P3D',#52,#53,#54) ;
#59=AXIS2_PLACEMENT_3D('Circle Axis2P3D',#57,#58,$) ;
#75=AXIS2_PLACEMENT_3D('Circle Axis2P3D',#73,#74,$) ;
#94=AXIS2_PLACEMENT_3D('Circle Axis2P3D',#92,#93,$) ;
#99=AXIS2_PLACEMENT_3D('Circle Axis2P3D',#97,#98,$) ;
#112=AXIS2_PLACEMENT_3D('Plane Axis2P3D',#109,#110,#111) ;
#116=AXIS2_PLACEMENT_3D('Circle Axis2P3D',#114,#115,$) ;
#125=AXIS2_PLACEMENT_3D('Circle Axis2P3D',#123,#124,$) ;
#140=AXIS2_PLACEMENT_3D('Torus Axis2P3D',#137,#138,#139) ;
#144=AXIS2_PLACEMENT_3D('Circle Axis2P3D',#142,#143,$) ;
#173=AXIS2_PLACEMENT_3D('Circle Axis2P3D',#171,#172,$) ;
#180=AXIS2_PLACEMENT_3D('Circle Axis2P3D',#178,#179,$) ;
#194=AXIS2_PLACEMENT_3D('Torus Axis2P3D',#191,#192,#193) ;
#214=AXIS2_PLACEMENT_3D('Circle Axis2P3D',#212,#213,$) ;
#228=AXIS2_PLACEMENT_3D('Plane Axis2P3D',#225,#226,#227) ;
#232=AXIS2_PLACEMENT_3D('Circle Axis2P3D',#230,#231,$) ;
#241=AXIS2_PLACEMENT_3D('Circle Axis2P3D',#239,#240,$) ;
#256=AXIS2_PLACEMENT_3D('Torus Axis2P3D',#253,#254,#255) ;
#260=AXIS2_PLACEMENT_3D('Circle Axis2P3D',#258,#259,$) ;
#267=AXIS2_PLACEMENT_3D('Circle Axis2P3D',#265,#266,$) ;
#274=AXIS2_PLACEMENT_3D('Circle Axis2P3D',#272,#273,$) ;
#281=AXIS2_PLACEMENT_3D('Circle Axis2P3D',#279,#280,$) ;
#295=AXIS2_PLACEMENT_3D('Torus Axis2P3D',#292,#293,#294) ;
#299=AXIS2_PLACEMENT_3D('Circle Axis2P3D',#297,#298,$) ;
#306=AXIS2_PLACEMENT_3D('Circle Axis2P3D',#304,#305,$) ;
#320=AXIS2_PLACEMENT_3D('Cylinder Axis2P3D',#317,#318,#319) ;
#324=AXIS2_PLACEMENT_3D('Circle Axis2P3D',#322,#323,$) ;
#333=AXIS2_PLACEMENT_3D('Circle Axis2P3D',#331,#332,$) ;
#347=AXIS2_PLACEMENT_3D('Circle Axis2P3D',#345,#346,$) ;
#354=AXIS2_PLACEMENT_3D('Circle Axis2P3D',#352,#353,$) ;
#375=AXIS2_PLACEMENT_3D('Circle Axis2P3D',#373,#374,$) ;
#384=AXIS2_PLACEMENT_3D('Circle Axis2P3D',#382,#383,$) ;
#398=AXIS2_PLACEMENT_3D('Circle Axis2P3D',#396,#397,$) ;
#405=AXIS2_PLACEMENT_3D('Circle Axis2P3D',#403,#404,$) ;
#426=AXIS2_PLACEMENT_3D('Circle Axis2P3D',#424,#425,$) ;
#433=AXIS2_PLACEMENT_3D('Circle Axis2P3D',#431,#432,$) ;
#438=AXIS2_PLACEMENT_3D('Circle Axis2P3D',#436,#437,$) ;
#445=AXIS2_PLACEMENT_3D('Circle Axis2P3D',#443,#444,$) ;
#459=AXIS2_PLACEMENT_3D('Circle Axis2P3D',#457,#458,$) ;
#466=AXIS2_PLACEMENT_3D('Circle Axis2P3D',#464,#465,$) ;
#471=AXIS2_PLACEMENT_3D('Circle Axis2P3D',#469,#470,$) ;
#478=AXIS2_PLACEMENT_3D('Circle Axis2P3D',#476,#477,$) ;
#521=AXIS2_PLACEMENT_3D('Circle Axis2P3D',#519,#520,$) ;
#541=AXIS2_PLACEMENT_3D('Circle Axis2P3D',#539,#540,$) ;
#596=AXIS2_PLACEMENT_3D('Circle Axis2P3D',#594,#595,$) ;
#601=AXIS2_PLACEMENT_3D('Circle Axis2P3D',#599,#600,$) ;
#705=AXIS2_PLACEMENT_3D('Circle Axis2P3D',#703,#704,$) ;
#725=AXIS2_PLACEMENT_3D('Circle Axis2P3D',#723,#724,$) ;
#780=AXIS2_PLACEMENT_3D('Circle Axis2P3D',#778,#779,$) ;
#785=AXIS2_PLACEMENT_3D('Circle Axis2P3D',#783,#784,$) ;
#889=AXIS2_PLACEMENT_3D('Circle Axis2P3D',#887,#888,$) ;
#909=AXIS2_PLACEMENT_3D('Circle Axis2P3D',#907,#908,$) ;
#964=AXIS2_PLACEMENT_3D('Circle Axis2P3D',#962,#963,$) ;
#969=AXIS2_PLACEMENT_3D('Circle Axis2P3D',#967,#968,$) ;
#40=PRODUCT_DEFINITION_SHAPE(' ',' ',#14) ;
#31=APPROVAL_PERSON_ORGANIZATION(#25,#21,#19) ;
#25=PERSON_AND_ORGANIZATION(#22,#23) ;
#22=PERSON(' ',' ',' ',$,$,$) ;
#23=ORGANIZATION(' ',' ',' ') ;
#21=APPROVAL(#20,' ') ;
#20=APPROVAL_STATUS('not_yet_approved') ;
#19=APPROVAL_ROLE('APPROVER') ;
#13=DATE_AND_TIME(#11,#12) ;
#12=LOCAL_TIME(23,23,43.,#10) ;
#10=COORDINATED_UNIVERSAL_TIME_OFFSET(0,0,.AHEAD.) ;
#86=ORIENTED_EDGE('',*,*,#65,.T.) ;
#87=ORIENTED_EDGE('',*,*,#72,.F.) ;
#88=ORIENTED_EDGE('',*,*,#79,.F.) ;
#89=ORIENTED_EDGE('',*,*,#84,.T.) ;
#103=ORIENTED_EDGE('',*,*,#96,.T.) ;
#104=ORIENTED_EDGE('',*,*,#84,.F.) ;
#105=ORIENTED_EDGE('',*,*,#101,.F.) ;
#106=ORIENTED_EDGE('',*,*,#72,.T.) ;
#129=ORIENTED_EDGE('',*,*,#122,.T.) ;
#130=ORIENTED_EDGE('',*,*,#127,.T.) ;
#133=ORIENTED_EDGE('',*,*,#65,.F.) ;
#134=ORIENTED_EDGE('',*,*,#96,.F.) ;
#184=ORIENTED_EDGE('',*,*,#148,.T.) ;
#185=ORIENTED_EDGE('',*,*,#170,.T.) ;
#186=ORIENTED_EDGE('',*,*,#177,.T.) ;
#187=ORIENTED_EDGE('',*,*,#182,.F.) ;
#188=ORIENTED_EDGE('',*,*,#122,.F.) ;
#218=ORIENTED_EDGE('',*,*,#182,.T.) ;
#219=ORIENTED_EDGE('',*,*,#211,.T.) ;
#220=ORIENTED_EDGE('',*,*,#216,.T.) ;
#221=ORIENTED_EDGE('',*,*,#148,.F.) ;
#222=ORIENTED_EDGE('',*,*,#127,.F.) ;
#245=ORIENTED_EDGE('',*,*,#238,.F.) ;
#246=ORIENTED_EDGE('',*,*,#243,.F.) ;
#249=ORIENTED_EDGE('',*,*,#101,.T.) ;
#250=ORIENTED_EDGE('',*,*,#79,.T.) ;
#285=ORIENTED_EDGE('',*,*,#264,.T.) ;
#286=ORIENTED_EDGE('',*,*,#243,.T.) ;
#287=ORIENTED_EDGE('',*,*,#271,.F.) ;
#288=ORIENTED_EDGE('',*,*,#278,.F.) ;
#289=ORIENTED_EDGE('',*,*,#283,.F.) ;
#310=ORIENTED_EDGE('',*,*,#271,.T.) ;
#311=ORIENTED_EDGE('',*,*,#238,.T.) ;
#312=ORIENTED_EDGE('',*,*,#264,.F.) ;
#313=ORIENTED_EDGE('',*,*,#303,.F.) ;
#314=ORIENTED_EDGE('',*,*,#308,.F.) ;
#365=ORIENTED_EDGE('',*,*,#330,.T.) ;
#366=ORIENTED_EDGE('',*,*,#337,.F.) ;
#367=ORIENTED_EDGE('',*,*,#344,.F.) ;
#368=ORIENTED_EDGE('',*,*,#351,.T.) ;
#369=ORIENTED_EDGE('',*,*,#358,.F.) ;
#370=ORIENTED_EDGE('',*,*,#363,.T.) ;
#416=ORIENTED_EDGE('',*,*,#381,.T.) ;
#417=ORIENTED_EDGE('',*,*,#388,.F.) ;
#418=ORIENTED_EDGE('',*,*,#395,.T.) ;
#419=ORIENTED_EDGE('',*,*,#402,.T.) ;
#420=ORIENTED_EDGE('',*,*,#409,.F.) ;
#421=ORIENTED_EDGE('',*,*,#414,.F.) ;
#449=ORIENTED_EDGE('',*,*,#430,.T.) ;
#450=ORIENTED_EDGE('',*,*,#435,.F.) ;
#451=ORIENTED_EDGE('',*,*,#363,.F.) ;
#452=ORIENTED_EDGE('',*,*,#442,.T.) ;
#453=ORIENTED_EDGE('',*,*,#447,.F.) ;
#454=ORIENTED_EDGE('',*,*,#344,.T.) ;
#482=ORIENTED_EDGE('',*,*,#463,.T.) ;
#483=ORIENTED_EDGE('',*,*,#468,.F.) ;
#484=ORIENTED_EDGE('',*,*,#414,.T.) ;
#485=ORIENTED_EDGE('',*,*,#475,.T.) ;
#486=ORIENTED_EDGE('',*,*,#480,.F.) ;
#487=ORIENTED_EDGE('',*,*,#395,.F.) ;
#545=ORIENTED_EDGE('',*,*,#518,.T.) ;
#546=ORIENTED_EDGE('',*,*,#525,.F.) ;
#547=ORIENTED_EDGE('',*,*,#538,.F.) ;
#548=ORIENTED_EDGE('',*,*,#543,.T.) ;
#573=ORIENTED_EDGE('',*,*,#278,.T.) ;
#574=ORIENTED_EDGE('',*,*,#308,.T.) ;
#575=ORIENTED_EDGE('',*,*,#565,.T.) ;
#576=ORIENTED_EDGE('',*,*,#543,.F.) ;
#577=ORIENTED_EDGE('',*,*,#571,.F.) ;
#605=ORIENTED_EDGE('',*,*,#538,.T.) ;
#606=ORIENTED_EDGE('',*,*,#598,.F.) ;
#607=ORIENTED_EDGE('',*,*,#518,.F.) ;
#608=ORIENTED_EDGE('',*,*,#603,.T.) ;
#633=ORIENTED_EDGE('',*,*,#351,.F.) ;
#634=ORIENTED_EDGE('',*,*,#447,.T.) ;
#635=ORIENTED_EDGE('',*,*,#625,.F.) ;
#636=ORIENTED_EDGE('',*,*,#525,.T.) ;
#637=ORIENTED_EDGE('',*,*,#631,.T.) ;
#650=ORIENTED_EDGE('',*,*,#303,.T.) ;
#651=ORIENTED_EDGE('',*,*,#283,.T.) ;
#652=ORIENTED_EDGE('',*,*,#571,.T.) ;
#653=ORIENTED_EDGE('',*,*,#603,.F.) ;
#654=ORIENTED_EDGE('',*,*,#565,.F.) ;
#667=ORIENTED_EDGE('',*,*,#442,.F.) ;
#668=ORIENTED_EDGE('',*,*,#358,.T.) ;
#669=ORIENTED_EDGE('',*,*,#631,.F.) ;
#670=ORIENTED_EDGE('',*,*,#598,.T.) ;
#671=ORIENTED_EDGE('',*,*,#625,.T.) ;
#729=ORIENTED_EDGE('',*,*,#702,.T.) ;
#730=ORIENTED_EDGE('',*,*,#709,.F.) ;
#731=ORIENTED_EDGE('',*,*,#722,.F.) ;
#732=ORIENTED_EDGE('',*,*,#727,.T.) ;
#757=ORIENTED_EDGE('',*,*,#430,.F.) ;
#758=ORIENTED_EDGE('',*,*,#337,.T.) ;
#759=ORIENTED_EDGE('',*,*,#749,.T.) ;
#760=ORIENTED_EDGE('',*,*,#727,.F.) ;
#761=ORIENTED_EDGE('',*,*,#755,.F.) ;
#789=ORIENTED_EDGE('',*,*,#722,.T.) ;
#790=ORIENTED_EDGE('',*,*,#782,.F.) ;
#791=ORIENTED_EDGE('',*,*,#702,.F.) ;
#792=ORIENTED_EDGE('',*,*,#787,.T.) ;
#817=ORIENTED_EDGE('',*,*,#381,.F.) ;
#818=ORIENTED_EDGE('',*,*,#468,.T.) ;
#819=ORIENTED_EDGE('',*,*,#809,.F.) ;
#820=ORIENTED_EDGE('',*,*,#709,.T.) ;
#821=ORIENTED_EDGE('',*,*,#815,.T.) ;
#834=ORIENTED_EDGE('',*,*,#330,.F.) ;
#835=ORIENTED_EDGE('',*,*,#435,.T.) ;
#836=ORIENTED_EDGE('',*,*,#755,.T.) ;
#837=ORIENTED_EDGE('',*,*,#787,.F.) ;
#838=ORIENTED_EDGE('',*,*,#749,.F.) ;
#851=ORIENTED_EDGE('',*,*,#463,.F.) ;
#852=ORIENTED_EDGE('',*,*,#388,.T.) ;
#853=ORIENTED_EDGE('',*,*,#815,.F.) ;
#854=ORIENTED_EDGE('',*,*,#782,.T.) ;
#855=ORIENTED_EDGE('',*,*,#809,.T.) ;
#913=ORIENTED_EDGE('',*,*,#886,.T.) ;
#914=ORIENTED_EDGE('',*,*,#893,.F.) ;
#915=ORIENTED_EDGE('',*,*,#906,.F.) ;
#916=ORIENTED_EDGE('',*,*,#911,.T.) ;
#941=ORIENTED_EDGE('',*,*,#475,.F.) ;
#942=ORIENTED_EDGE('',*,*,#409,.T.) ;
#943=ORIENTED_EDGE('',*,*,#933,.T.) ;
#944=ORIENTED_EDGE('',*,*,#911,.F.) ;
#945=ORIENTED_EDGE('',*,*,#939,.F.) ;
#973=ORIENTED_EDGE('',*,*,#906,.T.) ;
#974=ORIENTED_EDGE('',*,*,#966,.F.) ;
#975=ORIENTED_EDGE('',*,*,#886,.F.) ;
#976=ORIENTED_EDGE('',*,*,#971,.T.) ;
#1001=ORIENTED_EDGE('',*,*,#211,.F.) ;
#1002=ORIENTED_EDGE('',*,*,#177,.F.) ;
#1003=ORIENTED_EDGE('',*,*,#993,.F.) ;
#1004=ORIENTED_EDGE('',*,*,#893,.T.) ;
#1005=ORIENTED_EDGE('',*,*,#999,.T.) ;
#1018=ORIENTED_EDGE('',*,*,#402,.F.) ;
#1019=ORIENTED_EDGE('',*,*,#480,.T.) ;
#1020=ORIENTED_EDGE('',*,*,#939,.T.) ;
#1021=ORIENTED_EDGE('',*,*,#971,.F.) ;
#1022=ORIENTED_EDGE('',*,*,#933,.F.) ;
#1035=ORIENTED_EDGE('',*,*,#170,.F.) ;
#1036=ORIENTED_EDGE('',*,*,#216,.F.) ;
#1037=ORIENTED_EDGE('',*,*,#999,.F.) ;
#1038=ORIENTED_EDGE('',*,*,#966,.T.) ;
#1039=ORIENTED_EDGE('',*,*,#993,.T.) ;
#135=FACE_BOUND('',#132,.T.) ;
#251=FACE_BOUND('',#248,.T.) ;
#51=CLOSED_SHELL('Closed Shell',(#91,#108,#136,#190,#224,#252,#291,#316,#372,#423,#456,#489,#550,#579,#610,#639,#656,#673,#734,#763,#794,#823,#840,#857,#918,#947,#978,#1007,#1024,#1041)) ;
#68=VECTOR('Line Direction',#67,1.) ;
#82=VECTOR('Line Direction',#81,1.) ;
#340=VECTOR('Line Direction',#339,1.) ;
#361=VECTOR('Line Direction',#360,1.) ;
#391=VECTOR('Line Direction',#390,1.) ;
#412=VECTOR('Line Direction',#411,1.) ;
#1043=ADVANCED_BREP_SHAPE_REPRESENTATION('NONE',(#1042),#46) ;
#49=SHAPE_REPRESENTATION(' ',(#48),#46) ;
#91=ADVANCED_FACE('PartBody',(#90),#56,.F.) ;
#108=ADVANCED_FACE('PartBody',(#107),#56,.F.) ;
#136=ADVANCED_FACE('PartBody',(#131,#135),#113,.T.) ;
#190=ADVANCED_FACE('PartBody',(#189),#141,.T.) ;
#224=ADVANCED_FACE('PartBody',(#223),#195,.T.) ;
#252=ADVANCED_FACE('PartBody',(#247,#251),#229,.F.) ;
#291=ADVANCED_FACE('PartBody',(#290),#257,.T.) ;
#316=ADVANCED_FACE('PartBody',(#315),#296,.T.) ;
#372=ADVANCED_FACE('PartBody',(#371),#321,.T.) ;
#423=ADVANCED_FACE('PartBody',(#422),#321,.T.) ;
#456=ADVANCED_FACE('PartBody',(#455),#321,.T.) ;
#489=ADVANCED_FACE('PartBody',(#488),#321,.T.) ;
#550=ADVANCED_FACE('PartBody',(#549),#503,.T.) ;
#579=ADVANCED_FACE('PartBody',(#578),#559,.T.) ;
#610=ADVANCED_FACE('PartBody',(#609),#593,.T.) ;
#639=ADVANCED_FACE('PartBody',(#638),#619,.T.) ;
#656=ADVANCED_FACE('PartBody',(#655),#648,.T.) ;
#673=ADVANCED_FACE('PartBody',(#672),#665,.T.) ;
#734=ADVANCED_FACE('PartBody',(#733),#687,.T.) ;
#763=ADVANCED_FACE('PartBody',(#762),#743,.T.) ;
#794=ADVANCED_FACE('PartBody',(#793),#777,.T.) ;
#823=ADVANCED_FACE('PartBody',(#822),#803,.T.) ;
#840=ADVANCED_FACE('PartBody',(#839),#832,.T.) ;
#857=ADVANCED_FACE('PartBody',(#856),#849,.T.) ;
#918=ADVANCED_FACE('PartBody',(#917),#871,.T.) ;
#947=ADVANCED_FACE('PartBody',(#946),#927,.T.) ;
#978=ADVANCED_FACE('PartBody',(#977),#961,.T.) ;
#1007=ADVANCED_FACE('PartBody',(#1006),#987,.T.) ;
#1024=ADVANCED_FACE('PartBody',(#1023),#1016,.T.) ;
#1041=ADVANCED_FACE('PartBody',(#1040),#1033,.T.) ;
#4=APPLICATION_PROTOCOL_DEFINITION('international standard','config_control_design',1994,#1) ;
#32=APPROVAL_DATE_TIME(#13,#21) ;
#502=AXIS1_PLACEMENT('Revolution Surface Axis1P',#500,#501) ;
#558=AXIS1_PLACEMENT('Revolution Surface Axis1P',#556,#557) ;
#592=AXIS1_PLACEMENT('Revolution Surface Axis1P',#590,#591) ;
#618=AXIS1_PLACEMENT('Revolution Surface Axis1P',#616,#617) ;
#647=AXIS1_PLACEMENT('Revolution Surface Axis1P',#645,#646) ;
#664=AXIS1_PLACEMENT('Revolution Surface Axis1P',#662,#663) ;
#686=AXIS1_PLACEMENT('Revolution Surface Axis1P',#684,#685) ;
#742=AXIS1_PLACEMENT('Revolution Surface Axis1P',#740,#741) ;
#776=AXIS1_PLACEMENT('Revolution Surface Axis1P',#774,#775) ;
#802=AXIS1_PLACEMENT('Revolution Surface Axis1P',#800,#801) ;
#831=AXIS1_PLACEMENT('Revolution Surface Axis1P',#829,#830) ;
#848=AXIS1_PLACEMENT('Revolution Surface Axis1P',#846,#847) ;
#870=AXIS1_PLACEMENT('Revolution Surface Axis1P',#868,#869) ;
#926=AXIS1_PLACEMENT('Revolution Surface Axis1P',#924,#925) ;
#960=AXIS1_PLACEMENT('Revolution Surface Axis1P',#958,#959) ;
#986=AXIS1_PLACEMENT('Revolution Surface Axis1P',#984,#985) ;
#1015=AXIS1_PLACEMENT('Revolution Surface Axis1P',#1013,#1014) ;
#1032=AXIS1_PLACEMENT('Revolution Surface Axis1P',#1030,#1031) ;
#149=B_SPLINE_CURVE_WITH_KNOTS('',5,(#150,#151,#152,#153,#154,#155,#156,#157,#158,#159,#160,#161,#162,#163,#164,#165,#166,#167),.UNSPECIFIED.,.F.,.U.,(6,3,3,3,3,6),(2.18095975248E-015,14.4880788405,28.976157681,43.4679272762,57.9596968714,64.4831872157),.UNSPECIFIED.) ;
#196=B_SPLINE_CURVE_WITH_KNOTS('',5,(#197,#198,#199,#200,#201,#202,#203,#204,#205,#206,#207,#208),.UNSPECIFIED.,.F.,.U.,(6,3,3,6),(0.,28.9846412933,57.9726530766,64.4953910718),.UNSPECIFIED.) ;
#490=B_SPLINE_CURVE_WITH_KNOTS('',5,(#491,#492,#493,#494,#495,#496,#497,#498,#499),.UNSPECIFIED.,.F.,.U.,(6,3,6),(3.14159265359,4.71238898038,6.28318530718),.UNSPECIFIED.) ;
#504=B_SPLINE_CURVE_WITH_KNOTS('',5,(#505,#506,#507,#508,#509,#510,#511,#512,#513),.UNSPECIFIED.,.F.,.U.,(6,3,6),(3.14159265359,4.71238898038,6.28318530718),.UNSPECIFIED.) ;
#526=B_SPLINE_CURVE_WITH_KNOTS('',5,(#527,#528,#529,#530,#531,#532,#533,#534,#535),.UNSPECIFIED.,.F.,.U.,(6,3,6),(3.14159265359,4.71238898038,6.28318530718),.UNSPECIFIED.) ;
#551=B_SPLINE_CURVE_WITH_KNOTS('',3,(#552,#553,#554,#555),.UNSPECIFIED.,.F.,.U.,(4,4),(3.10630552423,3.14159265359),.UNSPECIFIED.) ;
#560=B_SPLINE_CURVE_WITH_KNOTS('',3,(#561,#562,#563,#564),.UNSPECIFIED.,.F.,.U.,(4,4),(3.10630552423,3.14159265359),.UNSPECIFIED.) ;
#566=B_SPLINE_CURVE_WITH_KNOTS('',3,(#567,#568,#569,#570),.UNSPECIFIED.,.F.,.U.,(4,4),(3.10630552423,3.14159265359),.UNSPECIFIED.) ;
#580=B_SPLINE_CURVE_WITH_KNOTS('',5,(#581,#582,#583,#584,#585,#586,#587,#588,#589),.UNSPECIFIED.,.F.,.U.,(6,3,6),(3.14159265359,4.71238898038,6.28318530718),.UNSPECIFIED.) ;
#611=B_SPLINE_CURVE_WITH_KNOTS('',3,(#612,#613,#614,#615),.UNSPECIFIED.,.F.,.U.,(4,4),(0.,0.0353169197734),.UNSPECIFIED.) ;
#620=B_SPLINE_CURVE_WITH_KNOTS('',3,(#621,#622,#623,#624),.UNSPECIFIED.,.F.,.U.,(4,4),(0.,0.0353169197734),.UNSPECIFIED.) ;
#626=B_SPLINE_CURVE_WITH_KNOTS('',3,(#627,#628,#629,#630),.UNSPECIFIED.,.F.,.U.,(4,4),(0.,0.0353169197734),.UNSPECIFIED.) ;
#640=B_SPLINE_CURVE_WITH_KNOTS('',3,(#641,#642,#643,#644),.UNSPECIFIED.,.F.,.U.,(4,4),(3.10630552423,3.14159265359),.UNSPECIFIED.) ;
#657=B_SPLINE_CURVE_WITH_KNOTS('',3,(#658,#659,#660,#661),.UNSPECIFIED.,.F.,.U.,(4,4),(0.,0.0353169197734),.UNSPECIFIED.) ;
#674=B_SPLINE_CURVE_WITH_KNOTS('',5,(#675,#676,#677,#678,#679,#680,#681,#682,#683),.UNSPECIFIED.,.F.,.U.,(6,3,6),(3.14159265359,4.71238898038,6.28318530718),.UNSPECIFIED.) ;
#688=B_SPLINE_CURVE_WITH_KNOTS('',5,(#689,#690,#691,#692,#693,#694,#695,#696,#697),.UNSPECIFIED.,.F.,.U.,(6,3,6),(3.14159265359,4.71238898038,6.28318530718),.UNSPECIFIED.) ;
#710=B_SPLINE_CURVE_WITH_KNOTS('',5,(#711,#712,#713,#714,#715,#716,#717,#718,#719),.UNSPECIFIED.,.F.,.U.,(6,3,6),(3.14159265359,4.71238898038,6.28318530718),.UNSPECIFIED.) ;
#735=B_SPLINE_CURVE_WITH_KNOTS('',3,(#736,#737,#738,#739),.UNSPECIFIED.,.F.,.U.,(4,4),(3.10627573382,3.14159265359),.UNSPECIFIED.) ;
#744=B_SPLINE_CURVE_WITH_KNOTS('',3,(#745,#746,#747,#748),.UNSPECIFIED.,.F.,.U.,(4,4),(3.10627573382,3.14159265359),.UNSPECIFIED.) ;
#750=B_SPLINE_CURVE_WITH_KNOTS('',3,(#751,#752,#753,#754),.UNSPECIFIED.,.F.,.U.,(4,4),(3.10627573382,3.14159265359),.UNSPECIFIED.) ;
#764=B_SPLINE_CURVE_WITH_KNOTS('',5,(#765,#766,#767,#768,#769,#770,#771,#772,#773),.UNSPECIFIED.,.F.,.U.,(6,3,6),(3.14159265359,4.71238898038,6.28318530718),.UNSPECIFIED.) ;
#795=B_SPLINE_CURVE_WITH_KNOTS('',3,(#796,#797,#798,#799),.UNSPECIFIED.,.F.,.U.,(4,4),(0.,0.0353169197734),.UNSPECIFIED.) ;
#804=B_SPLINE_CURVE_WITH_KNOTS('',3,(#805,#806,#807,#808),.UNSPECIFIED.,.F.,.U.,(4,4),(0.,0.0353169197734),.UNSPECIFIED.) ;
#810=B_SPLINE_CURVE_WITH_KNOTS('',3,(#811,#812,#813,#814),.UNSPECIFIED.,.F.,.U.,(4,4),(0.,0.0353169197734),.UNSPECIFIED.) ;
#824=B_SPLINE_CURVE_WITH_KNOTS('',3,(#825,#826,#827,#828),.UNSPECIFIED.,.F.,.U.,(4,4),(3.10627573382,3.14159265359),.UNSPECIFIED.) ;
#841=B_SPLINE_CURVE_WITH_KNOTS('',3,(#842,#843,#844,#845),.UNSPECIFIED.,.F.,.U.,(4,4),(0.,0.0353169197734),.UNSPECIFIED.) ;
#858=B_SPLINE_CURVE_WITH_KNOTS('',5,(#859,#860,#861,#862,#863,#864,#865,#866,#867),.UNSPECIFIED.,.F.,.U.,(6,3,6),(3.14159265359,4.71238898038,6.28318530718),.UNSPECIFIED.) ;
#872=B_SPLINE_CURVE_WITH_KNOTS('',5,(#873,#874,#875,#876,#877,#878,#879,#880,#881),.UNSPECIFIED.,.F.,.U.,(6,3,6),(3.14159265359,4.71238898038,6.28318530718),.UNSPECIFIED.) ;
#894=B_SPLINE_CURVE_WITH_KNOTS('',5,(#895,#896,#897,#898,#899,#900,#901,#902,#903),.UNSPECIFIED.,.F.,.U.,(6,3,6),(3.14159265359,4.71238898038,6.28318530718),.UNSPECIFIED.) ;
#919=B_SPLINE_CURVE_WITH_KNOTS('',3,(#920,#921,#922,#923),.UNSPECIFIED.,.F.,.U.,(4,4),(3.10627573382,3.14159265359),.UNSPECIFIED.) ;
#928=B_SPLINE_CURVE_WITH_KNOTS('',3,(#929,#930,#931,#932),.UNSPECIFIED.,.F.,.U.,(4,4),(3.10627573382,3.14159265359),.UNSPECIFIED.) ;
#934=B_SPLINE_CURVE_WITH_KNOTS('',3,(#935,#936,#937,#938),.UNSPECIFIED.,.F.,.U.,(4,4),(3.10627573382,3.14159265359),.UNSPECIFIED.) ;
#948=B_SPLINE_CURVE_WITH_KNOTS('',5,(#949,#950,#951,#952,#953,#954,#955,#956,#957),.UNSPECIFIED.,.F.,.U.,(6,3,6),(3.14159265359,4.71238898038,6.28318530718),.UNSPECIFIED.) ;
#979=B_SPLINE_CURVE_WITH_KNOTS('',3,(#980,#981,#982,#983),.UNSPECIFIED.,.F.,.U.,(4,4),(0.,0.0352871293554),.UNSPECIFIED.) ;
#988=B_SPLINE_CURVE_WITH_KNOTS('',3,(#989,#990,#991,#992),.UNSPECIFIED.,.F.,.U.,(4,4),(0.,0.0352871293554),.UNSPECIFIED.) ;
#994=B_SPLINE_CURVE_WITH_KNOTS('',3,(#995,#996,#997,#998),.UNSPECIFIED.,.F.,.U.,(4,4),(0.,0.0352871293554),.UNSPECIFIED.) ;
#1008=B_SPLINE_CURVE_WITH_KNOTS('',3,(#1009,#1010,#1011,#1012),.UNSPECIFIED.,.F.,.U.,(4,4),(3.10627573382,3.14159265359),.UNSPECIFIED.) ;
#1025=B_SPLINE_CURVE_WITH_KNOTS('',3,(#1026,#1027,#1028,#1029),.UNSPECIFIED.,.F.,.U.,(4,4),(0.,0.0352871293554),.UNSPECIFIED.) ;
#1042=MANIFOLD_SOLID_BREP('PartBody',#51) ;
#11=CALENDAR_DATE(2026,28,9) ;
#30=CC_DESIGN_APPROVAL(#21,(#16,#6,#14)) ;
#18=CC_DESIGN_DATE_AND_TIME_ASSIGNMENT(#13,#17,(#16)) ;
#29=CC_DESIGN_DATE_AND_TIME_ASSIGNMENT(#13,#28,(#14)) ;
#17=DATE_TIME_ROLE('classification_date') ;
#28=DATE_TIME_ROLE('creation_date') ;
#27=CC_DESIGN_PERSON_AND_ORGANIZATION_ASSIGNMENT(#25,#26,(#16)) ;
#33=CC_DESIGN_PERSON_AND_ORGANIZATION_ASSIGNMENT(#25,#34,(#6)) ;
#35=CC_DESIGN_PERSON_AND_ORGANIZATION_ASSIGNMENT(#25,#36,(#6,#14)) ;
#37=CC_DESIGN_PERSON_AND_ORGANIZATION_ASSIGNMENT(#25,#38,(#5)) ;
#26=PERSON_AND_ORGANIZATION_ROLE('classification_officer') ;
#34=PERSON_AND_ORGANIZATION_ROLE('design_supplier') ;
#36=PERSON_AND_ORGANIZATION_ROLE('creator') ;
#38=PERSON_AND_ORGANIZATION_ROLE('design_owner') ;
#39=CC_DESIGN_SECURITY_CLASSIFICATION(#16,(#6)) ;
#60=CIRCLE('generated circle',#59,1.5) ;
#76=CIRCLE('generated circle',#75,1.5) ;
#95=CIRCLE('generated circle',#94,1.5) ;
#100=CIRCLE('generated circle',#99,1.5) ;
#117=CIRCLE('generated circle',#116,12.5) ;
#126=CIRCLE('generated circle',#125,12.5) ;
#145=CIRCLE('generated circle',#144,5.) ;
#174=CIRCLE('generated circle',#173,17.5) ;
#181=CIRCLE('generated circle',#180,5.) ;
#215=CIRCLE('generated circle',#214,17.5) ;
#233=CIRCLE('generated circle',#232,12.5) ;
#242=CIRCLE('generated circle',#241,12.5) ;
#261=CIRCLE('generated circle',#260,5.) ;
#268=CIRCLE('generated circle',#267,5.) ;
#275=CIRCLE('generated circle',#274,17.5) ;
#282=CIRCLE('generated circle',#281,17.5) ;
#300=CIRCLE('generated circle',#299,17.5) ;
#307=CIRCLE('generated circle',#306,17.5) ;
#325=CIRCLE('generated circle',#324,17.5) ;
#334=CIRCLE('generated circle',#333,17.5) ;
#348=CIRCLE('generated circle',#347,17.5) ;
#355=CIRCLE('generated circle',#354,17.5) ;
#376=CIRCLE('generated circle',#375,17.5) ;
#385=CIRCLE('generated circle',#384,17.5) ;
#399=CIRCLE('generated circle',#398,17.5) ;
#406=CIRCLE('generated circle',#405,17.5) ;
#427=CIRCLE('generated circle',#426,17.5) ;
#434=CIRCLE('generated circle',#433,17.5) ;
#439=CIRCLE('generated circle',#438,17.5) ;
#446=CIRCLE('generated circle',#445,17.5) ;
#460=CIRCLE('generated circle',#459,17.5) ;
#467=CIRCLE('generated circle',#466,17.5) ;
#472=CIRCLE('generated circle',#471,17.5) ;
#479=CIRCLE('generated circle',#478,17.5) ;
#522=CIRCLE('generated circle',#521,17.4696727467) ;
#542=CIRCLE('generated circle',#541,17.4696727467) ;
#597=CIRCLE('generated circle',#596,17.4696727467) ;
#602=CIRCLE('generated circle',#601,17.4696727467) ;
#706=CIRCLE('generated circle',#705,17.4696727467) ;
#726=CIRCLE('generated circle',#725,17.4696727467) ;
#781=CIRCLE('generated circle',#780,17.4696727467) ;
#786=CIRCLE('generated circle',#785,17.4696727467) ;
#890=CIRCLE('generated circle',#889,17.4696727467) ;
#910=CIRCLE('generated circle',#909,17.4696727467) ;
#965=CIRCLE('generated circle',#964,17.4696727467) ;
#970=CIRCLE('generated circle',#969,17.4696727467) ;
#1044=SHAPE_REPRESENTATION_RELATIONSHIP(' ',' ',#49,#1043) ;
#56=CYLINDRICAL_SURFACE('generated cylinder',#55,1.5) ;
#321=CYLINDRICAL_SURFACE('generated cylinder',#320,17.5) ;
#141=TOROIDAL_SURFACE('homeo Torus',#140,12.5,5.) ;
#195=TOROIDAL_SURFACE('homeo Torus',#194,12.5,5.) ;
#257=TOROIDAL_SURFACE('homeo Torus',#256,12.5,5.) ;
#296=TOROIDAL_SURFACE('homeo Torus',#295,12.5,5.) ;
#3=DESIGN_CONTEXT(' ',#1,'design') ;
#65=EDGE_CURVE('',#62,#64,#60,.T.) ;
#72=EDGE_CURVE('',#71,#64,#69,.T.) ;
#79=EDGE_CURVE('',#78,#71,#76,.T.) ;
#84=EDGE_CURVE('',#78,#62,#83,.T.) ;
#96=EDGE_CURVE('',#64,#62,#95,.T.) ;
#101=EDGE_CURVE('',#71,#78,#100,.T.) ;
#122=EDGE_CURVE('',#119,#121,#117,.T.) ;
#127=EDGE_CURVE('',#121,#119,#126,.T.) ;
#148=EDGE_CURVE('',#119,#147,#145,.F.) ;
#170=EDGE_CURVE('',#147,#169,#149,.T.) ;
#177=EDGE_CURVE('',#169,#176,#174,.T.) ;
#182=EDGE_CURVE('',#121,#176,#181,.F.) ;
#211=EDGE_CURVE('',#176,#210,#196,.T.) ;
#216=EDGE_CURVE('',#210,#147,#215,.T.) ;
#238=EDGE_CURVE('',#235,#237,#233,.T.) ;
#243=EDGE_CURVE('',#237,#235,#242,.T.) ;
#264=EDGE_CURVE('',#263,#237,#261,.F.) ;
#271=EDGE_CURVE('',#270,#235,#268,.F.) ;
#278=EDGE_CURVE('',#277,#270,#275,.T.) ;
#283=EDGE_CURVE('',#263,#277,#282,.T.) ;
#303=EDGE_CURVE('',#302,#263,#300,.T.) ;
#308=EDGE_CURVE('',#270,#302,#307,.T.) ;
#330=EDGE_CURVE('',#327,#329,#325,.F.) ;
#337=EDGE_CURVE('',#336,#329,#334,.T.) ;
#344=EDGE_CURVE('',#343,#336,#341,.T.) ;
#351=EDGE_CURVE('',#343,#350,#348,.T.) ;
#358=EDGE_CURVE('',#357,#350,#355,.F.) ;
#363=EDGE_CURVE('',#357,#327,#362,.T.) ;
#381=EDGE_CURVE('',#378,#380,#376,.T.) ;
#388=EDGE_CURVE('',#387,#380,#385,.F.) ;
#395=EDGE_CURVE('',#387,#394,#392,.T.) ;
#402=EDGE_CURVE('',#394,#401,#399,.F.) ;
#409=EDGE_CURVE('',#408,#401,#406,.T.) ;
#414=EDGE_CURVE('',#378,#408,#413,.T.) ;
#430=EDGE_CURVE('',#336,#429,#427,.F.) ;
#435=EDGE_CURVE('',#327,#429,#434,.T.) ;
#442=EDGE_CURVE('',#357,#441,#439,.T.) ;
#447=EDGE_CURVE('',#343,#441,#446,.F.) ;
#463=EDGE_CURVE('',#387,#462,#460,.T.) ;
#468=EDGE_CURVE('',#378,#462,#467,.F.) ;
#475=EDGE_CURVE('',#408,#474,#472,.F.) ;
#480=EDGE_CURVE('',#394,#474,#479,.T.) ;
#518=EDGE_CURVE('',#515,#517,#504,.T.) ;
#525=EDGE_CURVE('',#524,#517,#522,.T.) ;
#538=EDGE_CURVE('',#537,#524,#526,.T.) ;
#543=EDGE_CURVE('',#537,#515,#542,.T.) ;
#565=EDGE_CURVE('',#302,#515,#560,.T.) ;
#571=EDGE_CURVE('',#277,#537,#566,.T.) ;
#598=EDGE_CURVE('',#517,#524,#597,.T.) ;
#603=EDGE_CURVE('',#515,#537,#602,.T.) ;
#625=EDGE_CURVE('',#524,#441,#620,.T.) ;
#631=EDGE_CURVE('',#517,#350,#626,.T.) ;
#702=EDGE_CURVE('',#699,#701,#688,.T.) ;
#709=EDGE_CURVE('',#708,#701,#706,.T.) ;
#722=EDGE_CURVE('',#721,#708,#710,.T.) ;
#727=EDGE_CURVE('',#721,#699,#726,.T.) ;
#749=EDGE_CURVE('',#329,#699,#744,.T.) ;
#755=EDGE_CURVE('',#429,#721,#750,.T.) ;
#782=EDGE_CURVE('',#701,#708,#781,.T.) ;
#787=EDGE_CURVE('',#699,#721,#786,.T.) ;
#809=EDGE_CURVE('',#708,#462,#804,.T.) ;
#815=EDGE_CURVE('',#701,#380,#810,.T.) ;
#886=EDGE_CURVE('',#883,#885,#872,.T.) ;
#893=EDGE_CURVE('',#892,#885,#890,.T.) ;
#906=EDGE_CURVE('',#905,#892,#894,.T.) ;
#911=EDGE_CURVE('',#905,#883,#910,.T.) ;
#933=EDGE_CURVE('',#401,#883,#928,.T.) ;
#939=EDGE_CURVE('',#474,#905,#934,.T.) ;
#966=EDGE_CURVE('',#885,#892,#965,.T.) ;
#971=EDGE_CURVE('',#883,#905,#970,.T.) ;
#993=EDGE_CURVE('',#892,#169,#988,.T.) ;
#999=EDGE_CURVE('',#885,#210,#994,.T.) ;
#85=EDGE_LOOP('',(#86,#87,#88,#89)) ;
#102=EDGE_LOOP('',(#103,#104,#105,#106)) ;
#128=EDGE_LOOP('',(#129,#130)) ;
#132=EDGE_LOOP('',(#133,#134)) ;
#183=EDGE_LOOP('',(#184,#185,#186,#187,#188)) ;
#217=EDGE_LOOP('',(#218,#219,#220,#221,#222)) ;
#244=EDGE_LOOP('',(#245,#246)) ;
#248=EDGE_LOOP('',(#249,#250)) ;
#284=EDGE_LOOP('',(#285,#286,#287,#288,#289)) ;
#309=EDGE_LOOP('',(#310,#311,#312,#313,#314)) ;
#364=EDGE_LOOP('',(#365,#366,#367,#368,#369,#370)) ;
#415=EDGE_LOOP('',(#416,#417,#418,#419,#420,#421)) ;
#448=EDGE_LOOP('',(#449,#450,#451,#452,#453,#454)) ;
#481=EDGE_LOOP('',(#482,#483,#484,#485,#486,#487)) ;
#544=EDGE_LOOP('',(#545,#546,#547,#548)) ;
#572=EDGE_LOOP('',(#573,#574,#575,#576,#577)) ;
#604=EDGE_LOOP('',(#605,#606,#607,#608)) ;
#632=EDGE_LOOP('',(#633,#634,#635,#636,#637)) ;
#649=EDGE_LOOP('',(#650,#651,#652,#653,#654)) ;
#666=EDGE_LOOP('',(#667,#668,#669,#670,#671)) ;
#728=EDGE_LOOP('',(#729,#730,#731,#732)) ;
#756=EDGE_LOOP('',(#757,#758,#759,#760,#761)) ;
#788=EDGE_LOOP('',(#789,#790,#791,#792)) ;
#816=EDGE_LOOP('',(#817,#818,#819,#820,#821)) ;
#833=EDGE_LOOP('',(#834,#835,#836,#837,#838)) ;
#850=EDGE_LOOP('',(#851,#852,#853,#854,#855)) ;
#912=EDGE_LOOP('',(#913,#914,#915,#916)) ;
#940=EDGE_LOOP('',(#941,#942,#943,#944,#945)) ;
#972=EDGE_LOOP('',(#973,#974,#975,#976)) ;
#1000=EDGE_LOOP('',(#1001,#1002,#1003,#1004,#1005)) ;
#1017=EDGE_LOOP('',(#1018,#1019,#1020,#1021,#1022)) ;
#1034=EDGE_LOOP('',(#1035,#1036,#1037,#1038,#1039)) ;
#90=FACE_OUTER_BOUND('',#85,.T.) ;
#107=FACE_OUTER_BOUND('',#102,.T.) ;
#131=FACE_OUTER_BOUND('',#128,.T.) ;
#189=FACE_OUTER_BOUND('',#183,.T.) ;
#223=FACE_OUTER_BOUND('',#217,.T.) ;
#247=FACE_OUTER_BOUND('',#244,.T.) ;
#290=FACE_OUTER_BOUND('',#284,.T.) ;
#315=FACE_OUTER_BOUND('',#309,.T.) ;
#371=FACE_OUTER_BOUND('',#364,.T.) ;
#422=FACE_OUTER_BOUND('',#415,.T.) ;
#455=FACE_OUTER_BOUND('',#448,.T.) ;
#488=FACE_OUTER_BOUND('',#481,.T.) ;
#549=FACE_OUTER_BOUND('',#544,.T.) ;
#578=FACE_OUTER_BOUND('',#572,.T.) ;
#609=FACE_OUTER_BOUND('',#604,.T.) ;
#638=FACE_OUTER_BOUND('',#632,.T.) ;
#655=FACE_OUTER_BOUND('',#649,.T.) ;
#672=FACE_OUTER_BOUND('',#666,.T.) ;
#733=FACE_OUTER_BOUND('',#728,.T.) ;
#762=FACE_OUTER_BOUND('',#756,.T.) ;
#793=FACE_OUTER_BOUND('',#788,.T.) ;
#822=FACE_OUTER_BOUND('',#816,.T.) ;
#839=FACE_OUTER_BOUND('',#833,.T.) ;
#856=FACE_OUTER_BOUND('',#850,.T.) ;
#917=FACE_OUTER_BOUND('',#912,.T.) ;
#946=FACE_OUTER_BOUND('',#940,.T.) ;
#977=FACE_OUTER_BOUND('',#972,.T.) ;
#1006=FACE_OUTER_BOUND('',#1000,.T.) ;
#1023=FACE_OUTER_BOUND('',#1017,.T.) ;
#1040=FACE_OUTER_BOUND('',#1034,.T.) ;
#45=UNCERTAINTY_MEASURE_WITH_UNIT(LENGTH_MEASURE(0.005),#41,'distance_accuracy_value','CONFUSED CURVE UNCERTAINTY') ;
#69=LINE('Line',#66,#68) ;
#83=LINE('Line',#80,#82) ;
#341=LINE('Line',#338,#340) ;
#362=LINE('Line',#359,#361) ;
#392=LINE('Line',#389,#391) ;
#413=LINE('Line',#410,#412) ;
#2=MECHANICAL_CONTEXT(' ',#1,'mechanical') ;
#24=PERSONAL_ADDRESS(' ',' ',' ',' ',' ',' ',' ',' ',' ',' ',' ',' ',(#22),' ') ;
#113=PLANE('',#112) ;
#229=PLANE('',#228) ;
#43=PLANE_ANGLE_MEASURE_WITH_UNIT(PLANE_ANGLE_MEASURE(0.0174532925199),#42) ;
#7=PRODUCT_CATEGORY('part',$) ;
#9=PRODUCT_CATEGORY_RELATIONSHIP(' ',' ',#7,#8) ;
#6=PRODUCT_DEFINITION_FORMATION_WITH_SPECIFIED_SOURCE('',' ',#5,.NOT_KNOWN.) ;
#8=PRODUCT_RELATED_PRODUCT_CATEGORY('detail',$,(#5)) ;
#50=SHAPE_DEFINITION_REPRESENTATION(#40,#49) ;
#503=SURFACE_OF_REVOLUTION('Surface of Revolution',#490,#502) ;
#559=SURFACE_OF_REVOLUTION('Surface of Revolution',#551,#558) ;
#593=SURFACE_OF_REVOLUTION('Surface of Revolution',#580,#592) ;
#619=SURFACE_OF_REVOLUTION('Surface of Revolution',#611,#618) ;
#648=SURFACE_OF_REVOLUTION('Surface of Revolution',#640,#647) ;
#665=SURFACE_OF_REVOLUTION('Surface of Revolution',#657,#664) ;
#687=SURFACE_OF_REVOLUTION('Surface of Revolution',#674,#686) ;
#743=SURFACE_OF_REVOLUTION('Surface of Revolution',#735,#742) ;
#777=SURFACE_OF_REVOLUTION('Surface of Revolution',#764,#776) ;
#803=SURFACE_OF_REVOLUTION('Surface of Revolution',#795,#802) ;
#832=SURFACE_OF_REVOLUTION('Surface of Revolution',#824,#831) ;
#849=SURFACE_OF_REVOLUTION('Surface of Revolution',#841,#848) ;
#871=SURFACE_OF_REVOLUTION('Surface of Revolution',#858,#870) ;
#927=SURFACE_OF_REVOLUTION('Surface of Revolution',#919,#926) ;
#961=SURFACE_OF_REVOLUTION('Surface of Revolution',#948,#960) ;
#987=SURFACE_OF_REVOLUTION('Surface of Revolution',#979,#986) ;
#1016=SURFACE_OF_REVOLUTION('Surface of Revolution',#1008,#1015) ;
#1033=SURFACE_OF_REVOLUTION('Surface of Revolution',#1025,#1032) ;
#62=VERTEX_POINT('',#61) ;
#64=VERTEX_POINT('',#63) ;
#71=VERTEX_POINT('',#70) ;
#78=VERTEX_POINT('',#77) ;
#119=VERTEX_POINT('',#118) ;
#121=VERTEX_POINT('',#120) ;
#147=VERTEX_POINT('',#146) ;
#169=VERTEX_POINT('',#168) ;
#176=VERTEX_POINT('',#175) ;
#210=VERTEX_POINT('',#209) ;
#235=VERTEX_POINT('',#234) ;
#237=VERTEX_POINT('',#236) ;
#263=VERTEX_POINT('',#262) ;
#270=VERTEX_POINT('',#269) ;
#277=VERTEX_POINT('',#276) ;
#302=VERTEX_POINT('',#301) ;
#327=VERTEX_POINT('',#326) ;
#329=VERTEX_POINT('',#328) ;
#336=VERTEX_POINT('',#335) ;
#343=VERTEX_POINT('',#342) ;
#350=VERTEX_POINT('',#349) ;
#357=VERTEX_POINT('',#356) ;
#378=VERTEX_POINT('',#377) ;
#380=VERTEX_POINT('',#379) ;
#387=VERTEX_POINT('',#386) ;
#394=VERTEX_POINT('',#393) ;
#401=VERTEX_POINT('',#400) ;
#408=VERTEX_POINT('',#407) ;
#429=VERTEX_POINT('',#428) ;
#441=VERTEX_POINT('',#440) ;
#462=VERTEX_POINT('',#461) ;
#474=VERTEX_POINT('',#473) ;
#515=VERTEX_POINT('',#514) ;
#517=VERTEX_POINT('',#516) ;
#524=VERTEX_POINT('',#523) ;
#537=VERTEX_POINT('',#536) ;
#699=VERTEX_POINT('',#698) ;
#701=VERTEX_POINT('',#700) ;
#708=VERTEX_POINT('',#707) ;
#721=VERTEX_POINT('',#720) ;
#883=VERTEX_POINT('',#882) ;
#885=VERTEX_POINT('',#884) ;
#892=VERTEX_POINT('',#891) ;
#905=VERTEX_POINT('',#904) ;
#41=(LENGTH_UNIT()NAMED_UNIT(*)SI_UNIT(.MILLI.,.METRE.)) ;
#42=(NAMED_UNIT(*)PLANE_ANGLE_UNIT()SI_UNIT($,.RADIAN.)) ;
#44=(NAMED_UNIT(*)SI_UNIT($,.STERADIAN.)SOLID_ANGLE_UNIT()) ;
#46=(GEOMETRIC_REPRESENTATION_CONTEXT(3)GLOBAL_UNCERTAINTY_ASSIGNED_CONTEXT((#45))GLOBAL_UNIT_ASSIGNED_CONTEXT((#41,#42,#44))REPRESENTATION_CONTEXT(' ',' ')) ;
ENDSEC;
END-ISO-10303-21;
